<svg width="545" height="377" viewBox="0 0 545 377" fill="none" xmlns="http://www.w3.org/2000/svg">
<g clip-path="url(#clip0)">
<path opacity="0.1" d="M308.268 51.2253C273.334 51.272 239.709 41.3691 207.546 30.3678C175.384 19.3666 143.469 7.04748 109.185 1.82727C87.1358 -1.52825 62.063 -1.2198 44.8274 10.9638C28.2368 22.6847 23.4325 42.0841 21.1145 60.0066C19.3713 73.4895 18.5675 87.6406 25.0962 99.9737C29.6295 108.535 37.3873 115.592 42.8552 123.752C61.9415 152.138 50.4635 188.399 31.9148 217.445C23.2175 231.072 13.0295 244.135 6.45398 258.543C-0.121521 272.951 -2.81808 289.289 3.88827 303.51C10.5339 317.605 25.5449 327.836 41.6542 334.822C74.3681 349.039 112.456 352.086 149.521 353.259C231.568 355.862 313.773 350.553 395.759 345.244C426.099 343.281 456.574 341.304 486.288 335.617C502.785 332.462 519.773 327.779 531.47 317.517C546.318 304.487 549.356 283.214 538.551 267.922C520.432 242.275 472.655 237.438 459.663 209.687C452.499 194.409 458.677 176.889 467.776 162.163C487.293 130.566 520.885 102.264 521.451 66.9233C521.838 42.6542 504.369 18.9787 478.278 8.43081C450.929 -2.61715 413.639 0.224287 394.478 20.8154C374.775 42.028 339.112 51.1926 308.268 51.2253Z" fill="#4D8AF0"/>
<path d="M463.851 301.604C463.851 301.604 458.107 297.814 452.415 300.51C452.415 300.51 454.167 303.884 461.374 303.567L463.851 301.604Z" fill="#4D8AF0"/>
<path d="M464.58 301.805C464.58 301.805 466.328 308.46 461.944 312.988C461.944 312.988 459.308 310.245 461.944 303.525L464.58 301.805Z" fill="#4D8AF0"/>
<path d="M471.721 295.416C471.721 295.416 471.296 289.757 458.514 291.635C458.514 291.635 458.453 295.285 462.94 297.014C467.426 298.744 469.482 297.285 471.721 295.416Z" fill="#4D8AF0"/>
<path d="M472.525 295.379C472.525 295.379 477.927 297.112 473.109 309.1C473.109 309.1 469.543 308.305 468.903 303.534C468.263 298.762 470.16 297.117 472.525 295.379Z" fill="#4D8AF0"/>
<path d="M479.74 287.35C479.74 287.35 480.474 278.036 467.412 278.989C467.412 278.989 466.477 287.401 477.436 289.588L479.74 287.35Z" fill="#4D8AF0"/>
<path d="M488.372 276.835C488.372 276.835 486.582 266.277 473.525 269.423C473.525 269.423 473.478 278.55 486.241 279.349L488.372 276.835Z" fill="#4D8AF0"/>
<path d="M494.681 265.964C494.681 265.964 491.681 255.683 478.745 258.758C478.745 258.758 481.825 268.006 493.821 267.862L494.681 265.964Z" fill="#4D8AF0"/>
<path d="M500.673 255.346C500.673 255.346 497.742 244.677 485.25 247.869C485.25 247.869 489.419 258.005 499.845 257.15L500.673 255.346Z" fill="#4D8AF0"/>
<path d="M504.533 245.261C504.533 245.261 502.28 232.213 490.634 235.101C490.634 235.101 494.018 246.971 503.678 247.163L504.533 245.261Z" fill="#4D8AF0"/>
<path d="M508.155 233.077C508.155 233.077 505.449 219.926 493.667 223.73C493.667 223.73 498.284 236.162 507.318 234.877L508.155 233.077Z" fill="#4D8AF0"/>
<path d="M510.379 221.74C510.379 221.74 506.084 208.584 496.976 208.939C496.976 208.939 501.364 222.833 509.618 224.361L510.379 221.74Z" fill="#4D8AF0"/>
<path d="M511.819 210.673C511.819 210.673 507.145 194.839 499.733 196.059C499.733 196.059 502.967 208.163 511.557 213.141L511.819 210.673Z" fill="#4D8AF0"/>
<path d="M512.632 197.471C512.632 197.471 508.248 184.277 500.948 183.749C500.948 183.749 503.93 196.732 512.487 200.901L512.632 197.471Z" fill="#4D8AF0"/>
<path d="M513.515 185.151C513.515 185.151 508.052 171.944 503.234 171.645C503.234 171.645 505.608 184.651 513.048 187.32L513.515 185.151Z" fill="#4D8AF0"/>
<path d="M514.118 173.692C514.118 173.692 510.758 159.35 505.93 158.158C505.93 158.158 506.589 169.893 513.632 174.767L514.118 173.692Z" fill="#4D8AF0"/>
<path d="M515.941 158.681C515.941 158.681 512.407 147.245 508.496 145.502C508.496 145.502 509.267 158.985 515.039 161.476L515.941 158.681Z" fill="#4D8AF0"/>
<path d="M517.45 148.867L518.161 128.706C518.161 128.706 510.847 143.904 516.922 152.405L517.45 148.867Z" fill="#4D8AF0"/>
<path d="M523.096 128.813C523.096 128.813 528.363 114.092 529.638 113.27C529.638 113.27 519.31 122.822 520.32 135.109L523.096 128.813Z" fill="#4D8AF0"/>
<path d="M480.096 287.279C480.096 287.279 489.358 286.069 489.083 299.159C489.083 299.159 480.713 300.524 477.979 289.696L480.096 287.279Z" fill="#4D8AF0"/>
<path d="M488.811 276.479C488.811 276.479 499.513 276.447 498.626 289.845C498.626 289.845 489.639 291.453 486.676 279.012L488.811 276.479Z" fill="#4D8AF0"/>
<path d="M494.784 266.829C494.784 266.829 504.5 262.272 510.716 274.035C510.716 274.035 501.743 277.83 493.924 268.731L494.784 266.829Z" fill="#4D8AF0"/>
<path d="M500.888 255.444C500.888 255.444 510.837 250.598 516.679 262.085C516.679 262.085 506.313 265.656 500.065 257.262L500.888 255.444Z" fill="#4D8AF0"/>
<path d="M504.407 245.546C504.407 245.546 513.982 236.4 521.623 245.649C521.623 245.649 511.842 253.178 503.967 247.584L504.407 245.546Z" fill="#4D8AF0"/>
<path d="M507.613 232.764C507.613 232.764 517.245 223.417 524.825 233.194C524.825 233.194 514.015 240.873 507.267 234.727L507.613 232.764Z" fill="#4D8AF0"/>
<path d="M509.412 221.366C509.412 221.366 516.833 209.682 525.573 212.29C525.573 212.29 517.871 224.661 509.496 224.109L509.412 221.366Z" fill="#4D8AF0"/>
<path d="M511.599 210.598C511.599 210.598 519.076 195.886 526.152 198.447C526.152 198.447 520.759 209.757 511.407 213.08L511.599 210.598Z" fill="#4D8AF0"/>
<path d="M512.118 196.704C512.118 196.704 519.806 185.123 527.007 186.539C527.007 186.539 520.722 198.284 511.37 200.055L512.118 196.704Z" fill="#4D8AF0"/>
<path d="M512.716 184.894C512.716 184.894 518.675 171.898 523.516 171.809C523.516 171.809 520.656 184.712 513.118 187.1L512.716 184.894Z" fill="#4D8AF0"/>
<path d="M513.884 173.412C513.884 173.412 520.507 160.252 525.484 160.224C525.484 160.224 522.096 171.477 514.104 174.566L513.884 173.412Z" fill="#4D8AF0"/>
<path d="M514.88 159.504C514.88 159.504 519.834 148.615 523.937 147.381C523.937 147.381 521.46 160.653 515.427 162.392L514.88 159.504Z" fill="#4D8AF0"/>
<path d="M518.039 148.47L529.11 131.604C529.11 131.604 526.274 148.241 516.422 151.699L518.039 148.47Z" fill="#4D8AF0"/>
<path d="M525.638 130.173C525.638 130.173 538.504 121.294 538.971 119.859C538.971 119.859 532.429 132.295 520.278 134.492L525.638 130.173Z" fill="#4D8AF0"/>
<path d="M526.409 126.178C526.409 126.178 541.182 111.975 544.953 111.989C544.953 111.989 532.77 112.545 526.054 125.42L526.409 126.178Z" fill="#4D8AF0"/>
<path d="M515.025 161.611L515.562 161.682C518.338 139.955 522.385 127.098 526.956 125.523L526.778 125.009C521.932 126.692 517.857 139.352 515.025 161.611Z" fill="#444053"/>
<path d="M510.94 213.571L511.753 213.636C511.926 211.608 512.057 209.533 512.146 207.462C512.922 189.479 514.123 172.963 515.702 160.583L515.235 159.999C513.651 172.407 512.108 189.418 511.333 207.43C511.244 209.486 511.113 211.552 510.94 213.571Z" fill="#444053"/>
<path d="M448.69 311.969C448.83 311.909 463.145 305.515 478.002 290.271C486.706 281.342 493.939 271.089 499.43 259.893C506.3 245.906 510.487 228.717 511.889 212.019L511.043 212.416C507.889 249.897 490.826 275.507 477.259 289.457C462.547 304.567 448.391 310.894 448.251 310.955L448.69 311.969Z" fill="#444053"/>
<path d="M485.755 39.8315H36.6957C35.6347 39.8315 34.6172 40.253 33.867 41.0032C33.1167 41.7535 32.6953 42.771 32.6953 43.832V55.4875H489.755V43.832C489.755 42.771 489.334 41.7535 488.584 41.0032C487.834 40.253 486.816 39.8315 485.755 39.8315Z" fill="#3F3D56"/>
<path d="M32.6953 55.4875V317.778C32.6953 319.918 33.5451 321.969 35.0578 323.482C36.5705 324.995 38.6222 325.845 40.7616 325.845H481.689C483.828 325.845 485.88 324.995 487.393 323.482C488.906 321.969 489.755 319.918 489.755 317.778V55.4875H32.6953Z" fill="white"/>
<path opacity="0.8" d="M39.9344 49.4121C40.9668 49.4121 41.8037 48.5751 41.8037 47.5427C41.8037 46.5103 40.9668 45.6733 39.9344 45.6733C38.902 45.6733 38.065 46.5103 38.065 47.5427C38.065 48.5751 38.902 49.4121 39.9344 49.4121Z" fill="#FA5959"/>
<path opacity="0.8" d="M45.0751 49.4121C46.1076 49.4121 46.9445 48.5751 46.9445 47.5427C46.9445 46.5103 46.1076 45.6733 45.0751 45.6733C44.0427 45.6733 43.2058 46.5103 43.2058 47.5427C43.2058 48.5751 44.0427 49.4121 45.0751 49.4121Z" fill="#FED253"/>
<path opacity="0.8" d="M50.2159 49.4121C51.2483 49.4121 52.0853 48.5751 52.0853 47.5427C52.0853 46.5103 51.2483 45.6733 50.2159 45.6733C49.1835 45.6733 48.3465 46.5103 48.3465 47.5427C48.3465 48.5751 49.1835 49.4121 50.2159 49.4121Z" fill="#8CCF4D"/>
<path opacity="0.05" d="M442.512 99.2213H75.1813V260.744H442.512V99.2213Z" fill="black"/>
<path d="M439.708 100.446H77.9853V258.407H439.708V100.446Z" fill="#4D8AF0"/>
<path d="M176.594 141.1C169.477 141.1 162.52 143.21 156.602 147.164C150.684 151.119 146.072 156.739 143.348 163.314C140.625 169.89 139.912 177.125 141.301 184.106C142.689 191.086 146.116 197.498 151.149 202.531C156.182 207.563 162.594 210.991 169.574 212.379C176.555 213.768 183.79 213.055 190.365 210.331C196.941 207.608 202.561 202.995 206.515 197.078C210.469 191.16 212.58 184.202 212.58 177.085C212.58 172.36 211.649 167.68 209.841 163.314C208.032 158.948 205.381 154.981 202.04 151.64C198.698 148.298 194.731 145.648 190.365 143.839C185.999 142.031 181.32 141.1 176.594 141.1ZM183.048 177.95V194.989H170.327V177.95C168.567 176.617 167.27 174.765 166.618 172.656C165.967 170.546 165.995 168.285 166.698 166.192C167.4 164.099 168.743 162.28 170.535 160.991C172.328 159.702 174.48 159.009 176.688 159.009C178.896 159.009 181.048 159.702 182.84 160.991C184.633 162.28 185.975 164.099 186.678 166.192C187.381 168.285 187.409 170.546 186.758 172.656C186.106 174.765 184.809 176.617 183.048 177.95Z" fill="#4D8AF0"/>
<path opacity="0.05" d="M176.594 141.1C169.477 141.1 162.52 143.21 156.602 147.164C150.684 151.119 146.072 156.739 143.348 163.314C140.625 169.89 139.912 177.125 141.301 184.106C142.689 191.086 146.116 197.498 151.149 202.531C156.182 207.563 162.594 210.991 169.574 212.379C176.555 213.768 183.79 213.055 190.365 210.331C196.941 207.608 202.561 202.995 206.515 197.078C210.469 191.16 212.58 184.202 212.58 177.085C212.58 172.36 211.649 167.68 209.841 163.314C208.032 158.948 205.381 154.981 202.04 151.64C198.698 148.298 194.731 145.648 190.365 143.839C185.999 142.031 181.32 141.1 176.594 141.1ZM183.048 177.95V194.989H170.327V177.95C168.567 176.617 167.27 174.765 166.618 172.656C165.967 170.546 165.995 168.285 166.698 166.192C167.4 164.099 168.743 162.28 170.535 160.991C172.328 159.702 174.48 159.009 176.688 159.009C178.896 159.009 181.048 159.702 182.84 160.991C184.633 162.28 185.975 164.099 186.678 166.192C187.381 168.285 187.409 170.546 186.758 172.656C186.106 174.765 184.809 176.617 183.048 177.95Z" fill="black"/>
<path d="M176.594 130.818C167.444 130.818 158.499 133.532 150.89 138.616C143.281 143.7 137.351 150.925 133.849 159.38C130.348 167.834 129.431 177.137 131.217 186.111C133.002 195.086 137.408 203.33 143.879 209.801C150.349 216.271 158.593 220.678 167.568 222.463C176.543 224.248 185.846 223.332 194.3 219.83C202.754 216.328 209.98 210.398 215.064 202.79C220.148 195.181 222.861 186.236 222.861 177.085C222.861 164.814 217.987 153.046 209.31 144.37C200.633 135.693 188.865 130.818 176.594 130.818ZM184.89 178.197V200.102H168.533V178.197C166.269 176.484 164.6 174.103 163.762 171.389C162.924 168.676 162.959 165.769 163.863 163.077C164.767 160.385 166.493 158.045 168.799 156.387C171.104 154.729 173.872 153.837 176.711 153.837C179.551 153.837 182.319 154.729 184.624 156.387C186.929 158.045 188.656 160.385 189.559 163.077C190.463 165.769 190.499 168.676 189.661 171.389C188.823 174.103 187.154 176.484 184.89 178.197Z" fill="white"/>
<path d="M391.572 171.014H242.022V186.904H391.572V171.014Z" fill="white"/>
<path d="M391.572 199.99H359.325V215.879H391.572V199.99Z" fill="#4D8AF0"/>
<path d="M256.744 178.721H254.038L256.444 176.319C256.488 176.274 256.512 176.215 256.512 176.153C256.512 176.091 256.488 176.031 256.444 175.987C256.423 175.965 256.397 175.948 256.368 175.936C256.34 175.924 256.309 175.918 256.279 175.918C256.248 175.918 256.217 175.924 256.189 175.936C256.16 175.948 256.134 175.965 256.113 175.987L253.706 178.394V175.683C253.706 175.621 253.681 175.562 253.637 175.518C253.594 175.474 253.534 175.449 253.472 175.449C253.411 175.451 253.352 175.476 253.308 175.519C253.265 175.563 253.24 175.622 253.238 175.683V178.394L250.836 175.973C250.815 175.951 250.789 175.934 250.76 175.922C250.732 175.91 250.701 175.904 250.67 175.904C250.64 175.904 250.609 175.91 250.581 175.922C250.552 175.934 250.526 175.951 250.505 175.973C250.461 176.017 250.437 176.077 250.437 176.139C250.437 176.201 250.461 176.26 250.505 176.305L252.911 178.707H250.201C250.139 178.708 250.08 178.733 250.037 178.777C249.993 178.82 249.968 178.879 249.967 178.941C249.967 179.002 249.992 179.062 250.036 179.106C250.079 179.15 250.139 179.174 250.201 179.174H252.911L250.505 181.581C250.461 181.625 250.437 181.685 250.437 181.747C250.437 181.809 250.461 181.868 250.505 181.913C250.55 181.955 250.609 181.978 250.67 181.978C250.732 181.978 250.791 181.955 250.836 181.913L253.238 179.506V182.212C253.238 182.274 253.263 182.333 253.307 182.377C253.351 182.421 253.41 182.446 253.472 182.446C253.534 182.446 253.594 182.421 253.637 182.377C253.681 182.333 253.706 182.274 253.706 182.212V179.506L256.113 181.913C256.158 181.955 256.217 181.978 256.279 181.978C256.34 181.978 256.399 181.955 256.444 181.913C256.488 181.868 256.512 181.809 256.512 181.747C256.512 181.685 256.488 181.625 256.444 181.581L254.038 179.174H256.744C256.806 179.174 256.865 179.15 256.909 179.106C256.953 179.062 256.977 179.002 256.977 178.941C256.974 178.881 256.947 178.825 256.904 178.784C256.861 178.743 256.803 178.721 256.744 178.721Z" fill="#4D8AF0"/>
<path d="M266.558 178.721H263.852L266.259 176.319C266.302 176.274 266.326 176.215 266.326 176.153C266.326 176.091 266.302 176.031 266.259 175.987C266.237 175.965 266.211 175.948 266.183 175.936C266.154 175.924 266.124 175.918 266.093 175.918C266.062 175.918 266.031 175.924 266.003 175.936C265.974 175.948 265.949 175.965 265.927 175.987L263.52 178.394V175.683C263.52 175.621 263.495 175.562 263.452 175.518C263.408 175.474 263.348 175.449 263.286 175.449C263.225 175.451 263.166 175.476 263.122 175.519C263.079 175.563 263.054 175.622 263.053 175.683V178.394L260.651 175.973C260.629 175.951 260.603 175.934 260.574 175.922C260.546 175.91 260.515 175.904 260.485 175.904C260.454 175.904 260.423 175.91 260.395 175.922C260.366 175.934 260.34 175.951 260.319 175.973C260.276 176.017 260.251 176.077 260.251 176.139C260.251 176.201 260.276 176.26 260.319 176.305L262.726 178.707H260.015C259.953 178.708 259.895 178.733 259.851 178.777C259.807 178.82 259.782 178.879 259.781 178.941C259.781 179.002 259.806 179.062 259.85 179.106C259.894 179.15 259.953 179.174 260.015 179.174H262.726L260.319 181.581C260.276 181.625 260.251 181.685 260.251 181.747C260.251 181.809 260.276 181.868 260.319 181.913C260.364 181.955 260.423 181.978 260.485 181.978C260.546 181.978 260.606 181.955 260.651 181.913L263.053 179.506V182.212C263.053 182.274 263.077 182.333 263.121 182.377C263.165 182.421 263.224 182.446 263.286 182.446C263.348 182.446 263.408 182.421 263.452 182.377C263.495 182.333 263.52 182.274 263.52 182.212V179.506L265.927 181.913C265.972 181.955 266.031 181.978 266.093 181.978C266.154 181.978 266.214 181.955 266.259 181.913C266.302 181.868 266.326 181.809 266.326 181.747C266.326 181.685 266.302 181.625 266.259 181.581L263.852 179.174H266.558C266.62 179.174 266.679 179.15 266.723 179.106C266.767 179.062 266.791 179.002 266.791 178.941C266.788 178.881 266.762 178.825 266.718 178.784C266.675 178.743 266.617 178.721 266.558 178.721Z" fill="#4D8AF0"/>
<path d="M276.372 178.721H273.666L276.073 176.319C276.116 176.274 276.14 176.215 276.14 176.153C276.14 176.091 276.116 176.031 276.073 175.987C276.051 175.965 276.025 175.948 275.997 175.936C275.968 175.924 275.938 175.918 275.907 175.918C275.876 175.918 275.846 175.924 275.817 175.936C275.789 175.948 275.763 175.965 275.741 175.987L273.334 178.394V175.683C273.334 175.621 273.31 175.562 273.266 175.518C273.222 175.474 273.162 175.449 273.101 175.449C273.039 175.451 272.98 175.476 272.937 175.519C272.893 175.563 272.868 175.622 272.867 175.683V178.394L270.465 175.973C270.443 175.951 270.417 175.934 270.389 175.922C270.36 175.91 270.33 175.904 270.299 175.904C270.268 175.904 270.237 175.91 270.209 175.922C270.18 175.934 270.155 175.951 270.133 175.973C270.09 176.017 270.066 176.077 270.066 176.139C270.066 176.201 270.09 176.26 270.133 176.305L272.54 178.707H269.829C269.768 178.708 269.709 178.733 269.665 178.777C269.622 178.82 269.597 178.879 269.595 178.941C269.595 179.002 269.62 179.062 269.664 179.106C269.708 179.15 269.767 179.174 269.829 179.174H272.54L270.133 181.581C270.09 181.625 270.066 181.685 270.066 181.747C270.066 181.809 270.09 181.868 270.133 181.913C270.178 181.955 270.237 181.978 270.299 181.978C270.36 181.978 270.42 181.955 270.465 181.913L272.867 179.506V182.212C272.867 182.274 272.891 182.333 272.935 182.377C272.979 182.421 273.039 182.446 273.101 182.446C273.162 182.446 273.222 182.421 273.266 182.377C273.31 182.333 273.334 182.274 273.334 182.212V179.506L275.741 181.913C275.786 181.955 275.845 181.978 275.907 181.978C275.968 181.978 276.028 181.955 276.073 181.913C276.116 181.868 276.14 181.809 276.14 181.747C276.14 181.685 276.116 181.625 276.073 181.581L273.666 179.174H276.372C276.434 179.174 276.493 179.15 276.537 179.106C276.581 179.062 276.606 179.002 276.606 178.941C276.602 178.881 276.576 178.825 276.532 178.784C276.489 178.743 276.432 178.721 276.372 178.721Z" fill="#4D8AF0"/>
<path d="M286.186 178.721H283.48L285.887 176.319C285.93 176.274 285.954 176.215 285.954 176.153C285.954 176.091 285.93 176.031 285.887 175.987C285.865 175.965 285.839 175.948 285.811 175.936C285.782 175.924 285.752 175.918 285.721 175.918C285.69 175.918 285.66 175.924 285.631 175.936C285.603 175.948 285.577 175.965 285.555 175.987L283.148 178.394V175.683C283.148 175.621 283.124 175.562 283.08 175.518C283.036 175.474 282.977 175.449 282.915 175.449C282.853 175.451 282.794 175.476 282.751 175.519C282.707 175.563 282.682 175.622 282.681 175.683V178.394L280.279 175.973C280.257 175.951 280.231 175.934 280.203 175.922C280.174 175.91 280.144 175.904 280.113 175.904C280.082 175.904 280.052 175.91 280.023 175.922C279.995 175.934 279.969 175.951 279.947 175.973C279.904 176.017 279.88 176.077 279.88 176.139C279.88 176.201 279.904 176.26 279.947 176.305L282.354 178.707H279.643C279.582 178.708 279.523 178.733 279.479 178.777C279.436 178.82 279.411 178.879 279.41 178.941C279.41 179.002 279.434 179.062 279.478 179.106C279.522 179.15 279.581 179.174 279.643 179.174H282.354L279.947 181.581C279.904 181.625 279.88 181.685 279.88 181.747C279.88 181.809 279.904 181.868 279.947 181.913C279.992 181.955 280.051 181.978 280.113 181.978C280.175 181.978 280.234 181.955 280.279 181.913L282.681 179.506V182.212C282.681 182.274 282.706 182.333 282.749 182.377C282.793 182.421 282.853 182.446 282.915 182.446C282.977 182.446 283.036 182.421 283.08 182.377C283.124 182.333 283.148 182.274 283.148 182.212V179.506L285.555 181.913C285.6 181.955 285.659 181.978 285.721 181.978C285.783 181.978 285.842 181.955 285.887 181.913C285.93 181.868 285.954 181.809 285.954 181.747C285.954 181.685 285.93 181.625 285.887 181.581L283.48 179.174H286.186C286.248 179.174 286.307 179.15 286.351 179.106C286.395 179.062 286.42 179.002 286.42 178.941C286.416 178.881 286.39 178.825 286.347 178.784C286.303 178.743 286.246 178.721 286.186 178.721Z" fill="#4D8AF0"/>
<path d="M296 178.721H293.294L295.701 176.319C295.744 176.274 295.768 176.215 295.768 176.153C295.768 176.091 295.744 176.031 295.701 175.987C295.679 175.965 295.654 175.948 295.625 175.936C295.597 175.924 295.566 175.918 295.535 175.918C295.504 175.918 295.474 175.924 295.445 175.936C295.417 175.948 295.391 175.965 295.369 175.987L292.963 178.394V175.683C292.963 175.621 292.938 175.562 292.894 175.518C292.85 175.474 292.791 175.449 292.729 175.449C292.667 175.451 292.609 175.476 292.565 175.519C292.521 175.563 292.496 175.622 292.495 175.683V178.394L290.093 175.973C290.071 175.951 290.045 175.934 290.017 175.922C289.989 175.91 289.958 175.904 289.927 175.904C289.896 175.904 289.866 175.91 289.837 175.922C289.809 175.934 289.783 175.951 289.761 175.973C289.718 176.017 289.694 176.077 289.694 176.139C289.694 176.201 289.718 176.26 289.761 176.305L292.168 178.707H289.457C289.396 178.708 289.337 178.733 289.294 178.777C289.25 178.82 289.225 178.879 289.224 178.941C289.224 179.002 289.248 179.062 289.292 179.106C289.336 179.15 289.396 179.174 289.457 179.174H292.168L289.761 181.581C289.718 181.625 289.694 181.685 289.694 181.747C289.694 181.809 289.718 181.868 289.761 181.913C289.806 181.955 289.866 181.978 289.927 181.978C289.989 181.978 290.048 181.955 290.093 181.913L292.495 179.506V182.212C292.495 182.274 292.52 182.333 292.564 182.377C292.607 182.421 292.667 182.446 292.729 182.446C292.791 182.446 292.85 182.421 292.894 182.377C292.938 182.333 292.963 182.274 292.963 182.212V179.506L295.369 181.913C295.414 181.955 295.474 181.978 295.535 181.978C295.597 181.978 295.656 181.955 295.701 181.913C295.744 181.868 295.768 181.809 295.768 181.747C295.768 181.685 295.744 181.625 295.701 181.581L293.294 179.174H296C296.062 179.174 296.122 179.15 296.165 179.106C296.209 179.062 296.234 179.002 296.234 178.941C296.23 178.881 296.204 178.825 296.161 178.784C296.117 178.743 296.06 178.721 296 178.721Z" fill="#4D8AF0"/>
<path d="M305.814 178.721H303.108L305.515 176.319C305.558 176.274 305.583 176.215 305.583 176.153C305.583 176.091 305.558 176.031 305.515 175.987C305.494 175.965 305.468 175.948 305.439 175.936C305.411 175.924 305.38 175.918 305.349 175.918C305.319 175.918 305.288 175.924 305.26 175.936C305.231 175.948 305.205 175.965 305.183 175.987L302.777 178.394V175.683C302.777 175.621 302.752 175.562 302.708 175.518C302.664 175.474 302.605 175.449 302.543 175.449C302.481 175.451 302.423 175.476 302.379 175.519C302.336 175.563 302.311 175.622 302.309 175.683V178.394L299.907 175.973C299.885 175.951 299.86 175.934 299.831 175.922C299.803 175.91 299.772 175.904 299.741 175.904C299.71 175.904 299.68 175.91 299.651 175.922C299.623 175.934 299.597 175.951 299.575 175.973C299.532 176.017 299.508 176.077 299.508 176.139C299.508 176.201 299.532 176.26 299.575 176.305L301.982 178.707H299.272C299.21 178.708 299.151 178.733 299.108 178.777C299.064 178.82 299.039 178.879 299.038 178.941C299.038 179.002 299.063 179.062 299.106 179.106C299.15 179.15 299.21 179.174 299.272 179.174H301.982L299.575 181.581C299.532 181.625 299.508 181.685 299.508 181.747C299.508 181.809 299.532 181.868 299.575 181.913C299.62 181.955 299.68 181.978 299.741 181.978C299.803 181.978 299.862 181.955 299.907 181.913L302.309 179.506V182.212C302.309 182.274 302.334 182.333 302.378 182.377C302.422 182.421 302.481 182.446 302.543 182.446C302.605 182.446 302.664 182.421 302.708 182.377C302.752 182.333 302.777 182.274 302.777 182.212V179.506L305.183 181.913C305.229 181.955 305.288 181.978 305.349 181.978C305.411 181.978 305.47 181.955 305.515 181.913C305.558 181.868 305.583 181.809 305.583 181.747C305.583 181.685 305.558 181.625 305.515 181.581L303.108 179.174H305.814C305.876 179.174 305.936 179.15 305.98 179.106C306.023 179.062 306.048 179.002 306.048 178.941C306.045 178.881 306.018 178.825 305.975 178.784C305.931 178.743 305.874 178.721 305.814 178.721Z" fill="#4D8AF0"/>
<path d="M315.629 178.721H312.923L315.33 176.319C315.373 176.274 315.397 176.215 315.397 176.153C315.397 176.091 315.373 176.031 315.33 175.987C315.308 175.965 315.282 175.948 315.253 175.936C315.225 175.924 315.194 175.918 315.164 175.918C315.133 175.918 315.102 175.924 315.074 175.936C315.045 175.948 315.019 175.965 314.998 175.987L312.591 178.394V175.683C312.591 175.621 312.566 175.562 312.522 175.518C312.479 175.474 312.419 175.449 312.357 175.449C312.296 175.451 312.237 175.476 312.193 175.519C312.15 175.563 312.125 175.622 312.124 175.683V178.394L309.721 175.973C309.7 175.951 309.674 175.934 309.645 175.922C309.617 175.91 309.586 175.904 309.555 175.904C309.525 175.904 309.494 175.91 309.466 175.922C309.437 175.934 309.411 175.951 309.39 175.973C309.346 176.017 309.322 176.077 309.322 176.139C309.322 176.201 309.346 176.26 309.39 176.305L311.796 178.707H309.086C309.024 178.708 308.965 178.733 308.922 178.777C308.878 178.82 308.853 178.879 308.852 178.941C308.852 179.002 308.877 179.062 308.921 179.106C308.964 179.15 309.024 179.174 309.086 179.174H311.796L309.39 181.581C309.346 181.625 309.322 181.685 309.322 181.747C309.322 181.809 309.346 181.868 309.39 181.913C309.435 181.955 309.494 181.978 309.555 181.978C309.617 181.978 309.676 181.955 309.721 181.913L312.124 179.506V182.212C312.124 182.274 312.148 182.333 312.192 182.377C312.236 182.421 312.295 182.446 312.357 182.446C312.419 182.446 312.479 182.421 312.522 182.377C312.566 182.333 312.591 182.274 312.591 182.212V179.506L314.998 181.913C315.043 181.955 315.102 181.978 315.164 181.978C315.225 181.978 315.285 181.955 315.33 181.913C315.373 181.868 315.397 181.809 315.397 181.747C315.397 181.685 315.373 181.625 315.33 181.581L312.923 179.174H315.629C315.691 179.174 315.75 179.15 315.794 179.106C315.838 179.062 315.862 179.002 315.862 178.941C315.859 178.881 315.833 178.825 315.789 178.784C315.746 178.743 315.688 178.721 315.629 178.721Z" fill="#4D8AF0"/>
<path d="M325.443 178.721H322.737L325.144 176.319C325.187 176.274 325.211 176.215 325.211 176.153C325.211 176.091 325.187 176.031 325.144 175.987C325.122 175.965 325.096 175.948 325.068 175.936C325.039 175.924 325.009 175.918 324.978 175.918C324.947 175.918 324.916 175.924 324.888 175.936C324.859 175.948 324.834 175.965 324.812 175.987L322.405 178.394V175.683C322.405 175.621 322.38 175.562 322.337 175.518C322.293 175.474 322.233 175.449 322.171 175.449C322.11 175.451 322.051 175.476 322.007 175.519C321.964 175.563 321.939 175.622 321.938 175.683V178.394L319.536 175.973C319.514 175.951 319.488 175.934 319.46 175.922C319.431 175.91 319.4 175.904 319.37 175.904C319.339 175.904 319.308 175.91 319.28 175.922C319.251 175.934 319.225 175.951 319.204 175.973C319.161 176.017 319.137 176.077 319.137 176.139C319.137 176.201 319.161 176.26 319.204 176.305L321.611 178.707H318.9C318.838 178.708 318.78 178.733 318.736 178.777C318.692 178.82 318.668 178.879 318.666 178.941C318.666 179.002 318.691 179.062 318.735 179.106C318.779 179.15 318.838 179.174 318.9 179.174H321.611L319.204 181.581C319.161 181.625 319.137 181.685 319.137 181.747C319.137 181.809 319.161 181.868 319.204 181.913C319.249 181.955 319.308 181.978 319.37 181.978C319.431 181.978 319.491 181.955 319.536 181.913L321.938 179.506V182.212C321.938 182.274 321.962 182.333 322.006 182.377C322.05 182.421 322.109 182.446 322.171 182.446C322.233 182.446 322.293 182.421 322.337 182.377C322.38 182.333 322.405 182.274 322.405 182.212V179.506L324.812 181.913C324.857 181.955 324.916 181.978 324.978 181.978C325.039 181.978 325.099 181.955 325.144 181.913C325.187 181.868 325.211 181.809 325.211 181.747C325.211 181.685 325.187 181.625 325.144 181.581L322.737 179.174H325.443C325.505 179.174 325.564 179.15 325.608 179.106C325.652 179.062 325.676 179.002 325.676 178.941C325.673 178.881 325.647 178.825 325.603 178.784C325.56 178.743 325.502 178.721 325.443 178.721Z" fill="#4D8AF0"/>
<path d="M335.257 178.721H332.551L334.958 176.319C335.001 176.274 335.025 176.215 335.025 176.153C335.025 176.091 335.001 176.031 334.958 175.987C334.936 175.965 334.91 175.948 334.882 175.936C334.853 175.924 334.823 175.918 334.792 175.918C334.761 175.918 334.731 175.924 334.702 175.936C334.674 175.948 334.648 175.965 334.626 175.987L332.219 178.394V175.683C332.219 175.621 332.195 175.562 332.151 175.518C332.107 175.474 332.048 175.449 331.986 175.449C331.924 175.451 331.865 175.476 331.822 175.519C331.778 175.563 331.753 175.622 331.752 175.683V178.394L329.35 175.973C329.328 175.951 329.302 175.934 329.274 175.922C329.245 175.91 329.215 175.904 329.184 175.904C329.153 175.904 329.122 175.91 329.094 175.922C329.066 175.934 329.04 175.951 329.018 175.973C328.975 176.017 328.951 176.077 328.951 176.139C328.951 176.201 328.975 176.26 329.018 176.305L331.425 178.707H328.714C328.653 178.708 328.594 178.733 328.55 178.777C328.507 178.82 328.482 178.879 328.481 178.941C328.481 179.002 328.505 179.062 328.549 179.106C328.593 179.15 328.652 179.174 328.714 179.174H331.425L329.018 181.581C328.975 181.625 328.951 181.685 328.951 181.747C328.951 181.809 328.975 181.868 329.018 181.913C329.063 181.955 329.122 181.978 329.184 181.978C329.245 181.978 329.305 181.955 329.35 181.913L331.752 179.506V182.212C331.752 182.274 331.777 182.333 331.82 182.377C331.864 182.421 331.924 182.446 331.986 182.446C332.048 182.446 332.107 182.421 332.151 182.377C332.195 182.333 332.219 182.274 332.219 182.212V179.506L334.626 181.913C334.671 181.955 334.73 181.978 334.792 181.978C334.854 181.978 334.913 181.955 334.958 181.913C335.001 181.868 335.025 181.809 335.025 181.747C335.025 181.685 335.001 181.625 334.958 181.581L332.551 179.174H335.257C335.319 179.174 335.378 179.15 335.422 179.106C335.466 179.062 335.491 179.002 335.491 178.941C335.487 178.881 335.461 178.825 335.417 178.784C335.374 178.743 335.317 178.721 335.257 178.721Z" fill="#4D8AF0"/>
<path d="M345.071 178.721H342.365L344.772 176.319C344.815 176.274 344.839 176.215 344.839 176.153C344.839 176.091 344.815 176.031 344.772 175.987C344.75 175.965 344.724 175.948 344.696 175.936C344.668 175.924 344.637 175.918 344.606 175.918C344.575 175.918 344.545 175.924 344.516 175.936C344.488 175.948 344.462 175.965 344.44 175.987L342.033 178.394V175.683C342.033 175.621 342.009 175.562 341.965 175.518C341.921 175.474 341.862 175.449 341.8 175.449C341.738 175.451 341.679 175.476 341.636 175.519C341.592 175.563 341.567 175.622 341.566 175.683V178.394L339.164 175.973C339.142 175.951 339.116 175.934 339.088 175.922C339.059 175.91 339.029 175.904 338.998 175.904C338.967 175.904 338.937 175.91 338.908 175.922C338.88 175.934 338.854 175.951 338.832 175.973C338.789 176.017 338.765 176.077 338.765 176.139C338.765 176.201 338.789 176.26 338.832 176.305L341.239 178.707H338.528C338.467 178.708 338.408 178.733 338.364 178.777C338.321 178.82 338.296 178.879 338.295 178.941C338.295 179.002 338.319 179.062 338.363 179.106C338.407 179.15 338.466 179.174 338.528 179.174H341.239L338.832 181.581C338.789 181.625 338.765 181.685 338.765 181.747C338.765 181.809 338.789 181.868 338.832 181.913C338.877 181.955 338.936 181.978 338.998 181.978C339.06 181.978 339.119 181.955 339.164 181.913L341.566 179.506V182.212C341.566 182.274 341.591 182.333 341.635 182.377C341.678 182.421 341.738 182.446 341.8 182.446C341.862 182.446 341.921 182.421 341.965 182.377C342.009 182.333 342.033 182.274 342.033 182.212V179.506L344.44 181.913C344.485 181.955 344.545 181.978 344.606 181.978C344.668 181.978 344.727 181.955 344.772 181.913C344.815 181.868 344.839 181.809 344.839 181.747C344.839 181.685 344.815 181.625 344.772 181.581L342.365 179.174H345.071C345.133 179.174 345.193 179.15 345.236 179.106C345.28 179.062 345.305 179.002 345.305 178.941C345.301 178.881 345.275 178.825 345.232 178.784C345.188 178.743 345.131 178.721 345.071 178.721Z" fill="#4D8AF0"/>
<path d="M354.885 178.721H352.179L354.586 176.319C354.629 176.274 354.653 176.215 354.653 176.153C354.653 176.091 354.629 176.031 354.586 175.987C354.564 175.965 354.539 175.948 354.51 175.936C354.482 175.924 354.451 175.918 354.42 175.918C354.389 175.918 354.359 175.924 354.33 175.936C354.302 175.948 354.276 175.965 354.254 175.987L351.848 178.394V175.683C351.848 175.621 351.823 175.562 351.779 175.518C351.735 175.474 351.676 175.449 351.614 175.449C351.552 175.451 351.494 175.476 351.45 175.519C351.406 175.563 351.381 175.622 351.38 175.683V178.394L348.978 175.973C348.956 175.951 348.931 175.934 348.902 175.922C348.874 175.91 348.843 175.904 348.812 175.904C348.781 175.904 348.751 175.91 348.722 175.922C348.694 175.934 348.668 175.951 348.646 175.973C348.603 176.017 348.579 176.077 348.579 176.139C348.579 176.201 348.603 176.26 348.646 176.305L351.053 178.707H348.343C348.281 178.708 348.222 178.733 348.179 178.777C348.135 178.82 348.11 178.879 348.109 178.941C348.109 179.002 348.133 179.062 348.177 179.106C348.221 179.15 348.281 179.174 348.343 179.174H351.053L348.646 181.581C348.603 181.625 348.579 181.685 348.579 181.747C348.579 181.809 348.603 181.868 348.646 181.913C348.691 181.955 348.751 181.978 348.812 181.978C348.874 181.978 348.933 181.955 348.978 181.913L351.38 179.506V182.212C351.38 182.274 351.405 182.333 351.449 182.377C351.493 182.421 351.552 182.446 351.614 182.446C351.676 182.446 351.735 182.421 351.779 182.377C351.823 182.333 351.848 182.274 351.848 182.212V179.506L354.254 181.913C354.299 181.955 354.359 181.978 354.42 181.978C354.482 181.978 354.541 181.955 354.586 181.913C354.629 181.868 354.653 181.809 354.653 181.747C354.653 181.685 354.629 181.625 354.586 181.581L352.179 179.174H354.885C354.947 179.174 355.007 179.15 355.05 179.106C355.094 179.062 355.119 179.002 355.119 178.941C355.115 178.881 355.089 178.825 355.046 178.784C355.002 178.743 354.945 178.721 354.885 178.721Z" fill="#4D8AF0"/>
<path d="M430.123 235.573C430.11 235.008 430.039 234.446 429.912 233.895C429.492 232.316 428.543 230.404 426.982 229.927C425.371 229.434 423.814 228.776 422.337 227.965C422.056 222.955 423.206 217.828 421.954 212.972C421.486 211.196 420.715 209.495 420.51 207.677C420.253 205.415 420.869 203.004 419.967 200.92C419.257 199.275 417.696 198.116 416.018 197.508C414.341 196.9 412.532 196.737 410.751 196.573C408.508 196.391 401.246 195.531 398.713 197.536C398.538 197.672 398.381 197.829 398.245 198.003C398.189 198.08 398.139 198.162 398.096 198.246L398.072 198.284C398.022 198.381 397.979 198.483 397.946 198.588C397.911 198.702 397.884 198.819 397.867 198.938C397.867 198.975 397.867 199.013 397.867 199.05C397.867 199.088 397.867 199.214 397.867 199.298V199.424C397.867 199.508 397.867 199.592 397.867 199.681C397.867 199.77 397.867 199.747 397.867 199.779C397.9 200.2 397.96 200.62 397.96 201.036C397.965 201.244 397.946 201.45 397.904 201.653C397.749 202.204 397.485 202.719 397.128 203.167L397.044 203.289C396.993 203.364 396.941 203.434 396.895 203.509C396.848 203.583 396.811 203.639 396.773 203.705C396.736 203.77 396.698 203.812 396.666 203.873C396.621 203.95 396.58 204.03 396.544 204.112C396.544 204.158 396.493 204.2 396.474 204.247C396.416 204.373 396.369 204.505 396.334 204.64C396.224 205.046 396.215 205.472 396.306 205.883C396.432 206.407 396.649 206.905 396.946 207.355C397.063 207.546 397.189 207.733 397.32 207.92L397.647 208.364C397.586 208.798 397.553 209.235 397.549 209.673C397.549 211.136 397.882 212.581 398.521 213.897C399.161 215.213 400.091 216.367 401.241 217.272C401.426 219.245 401.406 221.233 401.18 223.202C401.138 223.614 401.087 224.03 401.031 224.441C400.975 224.852 400.933 225.123 400.877 225.464C400.193 225.562 399.496 225.51 398.834 225.31C398.529 225.174 398.217 225.054 397.9 224.95C396.54 224.609 395.152 225.964 393.806 225.553C393.806 225.619 393.768 225.679 393.745 225.74C393.464 225.565 393.141 225.47 392.81 225.464C392.011 225.427 391.361 224.847 390.782 224.301L389.001 222.623C388.885 222.52 388.782 222.404 388.693 222.277C388.597 222.095 388.525 221.902 388.478 221.702C388.179 220.735 387.454 219.964 386.753 219.23C386.621 219.063 386.444 218.935 386.244 218.861C386.167 218.849 386.088 218.849 386.01 218.861C385.963 218.796 385.911 218.733 385.856 218.674C385.735 218.535 385.606 218.404 385.468 218.281C384.618 217.496 384.534 216.823 383.795 215.945C383.151 215.107 382.567 214.224 382.047 213.304C381.987 212.813 381.902 212.309 381.8 211.799C381.564 210.633 381.221 209.491 380.776 208.388L379.841 206.317L379.734 206.425C379.056 205.415 378.332 204.864 377.682 204.995C376.593 205.219 376.056 207.332 376.229 210.093L376.603 212.898C376.603 212.968 376.635 213.038 376.654 213.108C376.587 213.44 376.552 213.778 376.551 214.117C376.551 214.51 376.916 214.8 377.108 215.15C377.414 215.625 377.577 216.179 377.575 216.744C377.551 216.945 377.491 217.136 377.481 217.333C377.507 217.772 377.659 218.194 377.921 218.548L380.257 222.473L380.725 223.296L380.753 223.333C380.9 223.62 381.115 223.867 381.379 224.053C381.471 225.036 381.731 225.996 382.15 226.89C382.23 227.067 382.318 227.236 382.412 227.404C383.04 228.437 383.78 229.397 384.618 230.269L385.73 231.516C386.828 232.741 387.926 233.97 389.118 235.101C389.545 235.555 390.06 235.916 390.632 236.162C390.913 236.274 391.218 236.31 391.516 236.267C391.815 236.223 392.097 236.101 392.333 235.914C392.333 236.494 392.333 237.073 392.333 237.653C392.507 237.663 392.675 237.72 392.819 237.817C392.963 237.914 393.079 238.048 393.154 238.205C393.229 238.361 393.261 238.535 393.247 238.709C393.232 238.882 393.172 239.048 393.072 239.19C392.09 241.709 391.1 244.252 389.614 246.509C390.663 247.13 391.635 247.872 392.511 248.719C393.08 249.349 393.585 250.033 394.021 250.762C394.063 251.107 394.095 251.449 394.114 251.79C394.46 257.36 392.305 262.889 390.375 268.198C389.819 269.703 389.212 271.278 389.258 272.844C388.892 273.069 388.542 273.321 388.212 273.596C388.595 274.596 388.445 275.489 388.403 276.559C388.389 277.2 388.258 277.834 388.015 278.428C387.812 278.84 387.587 279.241 387.342 279.629C386.132 281.765 385.865 284.303 385.622 286.742C385.478 288.214 386.048 290.014 385.379 291.332C384.225 293.593 383.202 296.005 383.043 298.519C383.037 299.085 382.965 299.648 382.828 300.197C382.683 300.664 382.426 301.062 382.295 301.52C382.16 302.133 382.129 302.765 382.202 303.389C382.29 305.629 381.958 307.866 381.22 309.983C380.636 311.652 379.991 313.437 380.449 315.152C379.321 316.336 378.625 317.866 378.472 319.494C378.46 319.91 378.41 320.325 378.323 320.732C378.18 321.149 377.992 321.548 377.762 321.924C376.821 323.637 376.381 325.58 376.491 327.532C375.089 329.434 374.388 331.78 373.972 334.112C373.556 336.444 373.373 338.818 372.841 341.122C372.13 344.169 370.845 347.249 370.593 350.371C369.079 351.338 368.424 353.212 368.135 354.984C367.845 356.755 367.798 358.615 367.055 360.25C366.672 361.101 366.12 361.863 365.756 362.732C365.5 363.424 365.312 364.139 365.195 364.868C364.971 366.008 364.774 367.279 365.05 368.373C364.654 368.793 364.191 369.145 363.681 369.415C363.756 369.125 363.816 368.836 363.868 368.541C362.662 369.635 360.475 369.251 359.512 370.565C359.223 370.988 359.11 371.507 359.197 372.012C359.285 372.517 359.565 372.969 359.979 373.271C360.281 373.454 360.606 373.594 360.947 373.687C363.284 374.434 365.686 375.187 368.088 374.789C368.372 374.759 368.647 374.671 368.896 374.532C369.209 374.302 369.466 374.005 369.649 373.663C370.009 373.093 370.368 372.523 370.724 371.953C371.584 372.21 372.46 372.414 373.345 372.565C373.434 373.313 373.5 374.06 373.532 374.808C374 374.902 374.626 374.93 374.846 374.495C374.912 374.331 374.939 374.153 374.925 373.976C374.925 373.644 374.972 373.205 375 372.757H375.093C376.519 372.814 377.938 372.527 379.229 371.92C378.729 367.779 380.379 363.732 381.809 359.816C383.318 355.694 384.613 351.497 385.917 347.3C386.852 344.347 387.884 341.487 388.8 338.528C389.953 334.79 391.111 331.051 392.273 327.312C392.777 325.667 393.287 324.041 393.866 322.405C395.086 319.095 396.534 315.874 398.199 312.764C398.666 311.881 399.133 311.007 399.517 310.091C399.984 308.974 400.316 307.805 400.69 306.651C401.504 304.282 402.485 301.974 403.624 299.744C403.657 299.683 403.681 299.627 403.713 299.571C404.092 301.118 404.47 302.688 404.723 304.244C405.064 306.152 405.091 308.104 404.802 310.021C404.578 311.324 404.153 312.614 404.204 313.937C404.274 315.764 405.251 317.423 405.732 319.185C406.043 320.504 406.218 321.85 406.256 323.204C406.386 325.307 407.527 327.667 406.723 329.616C404.223 335.79 405.433 342.763 404.008 349.245C403.274 352.572 401.026 355.699 401.204 359.101C401.328 361.515 401.54 363.924 401.839 366.326C401.911 367.084 402.109 367.825 402.423 368.518C402.61 368.882 402.824 369.232 403.064 369.565C402.858 369.644 402.685 369.854 402.536 370.298C402.152 371.467 402.536 372.915 403.573 373.57C403.996 373.796 404.452 373.954 404.924 374.037C405.559 374.218 406.217 374.309 406.877 374.308C407.083 374.297 407.287 374.272 407.489 374.233C408.212 374.537 408.95 374.802 409.7 375.028C409.7 375.219 409.737 375.411 409.761 375.603C409.762 375.703 409.784 375.802 409.826 375.893C409.868 375.983 409.928 376.065 410.004 376.131C410.12 376.185 410.249 376.208 410.378 376.196H412.915C412.915 375.986 412.915 375.771 412.915 375.561C413.206 375.591 413.499 375.56 413.777 375.47C414.055 375.38 414.31 375.232 414.528 375.037C414.752 374.751 414.912 374.419 414.995 374.065C415.687 371.719 416.374 369.371 417.056 367.022C417.874 364.426 418.214 361.702 418.061 358.984C417.159 350.371 419.14 341.73 418.495 333.093C418.107 327.902 418.374 322.683 419.29 317.559C419.5 316.4 419.757 315.222 419.851 314.068C420.056 311.89 419.804 309.689 419.958 307.525C420.01 306.768 420.112 306.015 420.206 305.263C420.846 300.593 421.182 295.886 421.211 291.173C421.196 289.611 421.1 288.051 420.921 286.499C421.408 286.375 421.85 286.116 422.197 285.751C422.613 285.209 422.505 284.448 422.5 283.756C422.5 282.102 423.197 280.541 423.758 278.98C424.477 276.827 425.067 274.632 425.524 272.409C426.007 270.617 426.271 268.773 426.309 266.918C426.309 266.731 426.3 266.544 426.281 266.357C426.457 266.235 426.604 266.075 426.711 265.889C426.833 265.616 426.909 265.323 426.936 265.025C427.104 263.833 427.277 262.637 427.445 261.44C427.57 260.584 427.693 259.728 427.814 258.875L429.3 248.504C429.426 247.602 429.557 246.705 429.683 245.808L430.071 243.125C430.113 242.807 430.16 242.49 430.193 242.191C431.333 240.284 430.244 237.741 430.123 235.573ZM417.724 274.4C417.173 273.091 416.659 271.75 416.79 270.339H416.738C416.861 269.904 416.84 269.442 416.677 269.021C416.532 268.679 416.28 268.39 416.126 268.049C415.96 267.632 415.875 267.188 415.874 266.74C415.757 263.898 415.982 261.052 416.542 258.262C416.603 257.935 416.668 257.603 416.729 257.276C416.925 257.163 417.104 257.023 417.262 256.86C417.507 256.58 417.71 256.265 417.864 255.926C418.392 254.865 418.874 253.785 419.318 252.687C419.463 252.332 419.673 251.921 420.033 251.832C419.958 254.566 420.238 257.356 419.126 259.823C418.915 260.221 418.758 260.646 418.659 261.085C418.556 261.782 418.846 262.487 418.743 263.179C418.692 263.539 418.537 263.871 418.477 264.226C418.43 264.4 418.431 264.584 418.479 264.758C418.526 264.932 418.619 265.09 418.748 265.216C418.81 265.26 418.877 265.294 418.949 265.319C418.921 265.506 418.897 265.698 418.879 265.88C418.841 266.263 418.822 266.623 418.799 266.848C418.692 267.991 418.649 269.139 418.673 270.287C418.673 271.526 418.72 272.764 418.701 274.026C418.718 274.388 418.658 274.75 418.523 275.087C418.431 275.261 418.311 275.418 418.168 275.554C418.033 275.133 417.883 274.764 417.724 274.4Z" fill="url(#paint0_linear)"/>
<path d="M380.833 220.174C382.259 219.882 382.745 216.371 381.917 212.333C381.09 208.295 379.263 205.259 377.837 205.551C376.411 205.843 375.925 209.353 376.753 213.391C377.58 217.43 379.407 220.466 380.833 220.174Z" fill="#FBBEBE"/>
<path d="M402.61 370.387C402.227 371.546 402.61 372.995 403.648 373.626C404.068 373.85 404.521 374.007 404.989 374.093C405.623 374.272 406.279 374.362 406.938 374.36C407.746 374.322 408.522 374.004 409.331 373.892C409.424 373.869 409.523 373.882 409.606 373.93C409.647 373.973 409.677 374.025 409.695 374.081C409.713 374.138 409.718 374.198 409.709 374.257C409.718 374.716 409.752 375.175 409.812 375.631C409.813 375.731 409.835 375.83 409.877 375.921C409.919 376.012 409.979 376.093 410.055 376.159C410.172 376.213 410.301 376.236 410.429 376.224H412.962C413.019 373.999 412.776 371.776 412.238 369.616C412.202 369.451 412.139 369.293 412.051 369.149C411.836 368.913 411.553 368.75 411.242 368.681C410.623 368.424 409.954 368.307 409.284 368.34C408.466 368.448 407.784 368.976 407.087 369.415C406.391 369.854 405.442 370.242 404.597 370.018C403.751 369.794 403.045 369.088 402.61 370.387Z" fill="#3F3D56"/>
<path d="M365.419 368.335C364.707 369.098 363.834 369.692 362.863 370.074L362.433 370.279C362.373 370.302 362.323 370.343 362.288 370.396C362.28 370.433 362.28 370.47 362.288 370.507C362.296 370.543 362.312 370.577 362.335 370.607C362.692 371.16 363.221 371.581 363.84 371.807C364.46 372.032 365.135 372.049 365.765 371.854C366.043 371.785 366.301 371.65 366.517 371.462C366.874 371.039 367.078 370.509 367.097 369.957C367.238 369.387 367.214 368.789 367.027 368.233C366.377 366.77 366.139 367.433 365.419 368.335Z" fill="#FBBEBE"/>
<path d="M375.131 374.093C375.145 374.27 375.118 374.447 375.051 374.612C374.831 375.042 374.219 375.018 373.743 374.925C373.67 373.339 373.478 371.761 373.168 370.205C372.261 370.163 371.607 371.023 371.121 371.794L369.868 373.78C369.687 374.122 369.432 374.419 369.121 374.649C368.87 374.786 368.596 374.873 368.312 374.906C365.919 375.303 363.503 374.551 361.194 373.803C360.854 373.712 360.529 373.574 360.227 373.392C359.815 373.09 359.536 372.639 359.449 372.136C359.362 371.632 359.473 371.114 359.76 370.691C360.727 369.382 362.9 369.756 364.106 368.672C363.98 369.435 363.773 370.182 363.489 370.901C365.101 370.658 366.186 369.181 367.485 368.195C367.811 367.918 368.204 367.731 368.625 367.653C368.94 367.627 369.257 367.66 369.56 367.751C371.058 368.128 372.459 368.818 373.672 369.775C374.163 370.163 374.93 370.709 375.145 371.308C375.374 372.023 375.131 373.331 375.131 374.093Z" fill="#3F3D56"/>
<path d="M407.279 219.898C412.611 219.898 416.934 215.576 416.934 210.243C416.934 204.911 412.611 200.588 407.279 200.588C401.947 200.588 397.624 204.911 397.624 210.243C397.624 215.576 401.947 219.898 407.279 219.898Z" fill="#FBBEBE"/>
<path d="M426.3 267.249C426.261 269.095 425.999 270.93 425.519 272.713C425.062 274.927 424.472 277.112 423.753 279.255C423.197 280.812 422.5 282.373 422.505 284.022C422.505 284.709 422.617 285.471 422.197 286.013C421.822 286.394 421.35 286.664 420.832 286.794C420.574 286.862 420.335 286.991 420.135 287.168C419.935 287.346 419.78 287.568 419.682 287.817C419.244 287.162 418.915 286.439 418.71 285.677C417.872 283.109 417.093 280.528 416.374 277.933C416.308 277.783 416.279 277.62 416.291 277.457C416.302 277.295 416.353 277.137 416.439 276.998C416.558 276.895 416.696 276.817 416.846 276.769C417.325 276.574 417.763 276.292 418.14 275.937C418.317 275.78 418.463 275.592 418.57 275.381C418.706 275.046 418.768 274.686 418.752 274.325C418.752 273.087 418.752 271.853 418.72 270.614C418.7 269.471 418.744 268.327 418.851 267.189C418.851 266.964 418.893 266.604 418.93 266.221C419 265.488 419.14 264.637 419.537 264.352C420.131 263.955 421.907 264.487 422.58 264.581C423.739 264.74 424.917 264.927 426.048 265.146C426.212 265.835 426.297 266.541 426.3 267.249Z" fill="#3F3D56"/>
<path d="M387.314 221.053C386.94 221.8 386.043 222.16 385.351 222.632L382.982 224.259C382.824 224.401 382.638 224.51 382.436 224.579C382.235 224.649 382.021 224.676 381.809 224.66C381.616 224.589 381.439 224.48 381.289 224.34C381.139 224.199 381.019 224.03 380.935 223.843C380.936 223.83 380.936 223.818 380.935 223.805L380.444 222.983L378.108 219.066C377.848 218.716 377.697 218.296 377.673 217.861C377.673 217.66 377.743 217.473 377.762 217.272C377.768 216.707 377.605 216.154 377.294 215.683C377.107 215.332 376.734 215.043 376.743 214.65C376.725 214.134 376.814 213.62 377.005 213.141C377.25 212.697 377.601 212.321 378.028 212.047C378.248 211.888 378.472 211.739 378.706 211.58C378.83 211.495 378.967 211.432 379.112 211.393C379.5 211.313 379.883 211.636 380.276 211.65C381.963 212.781 382.613 214.921 383.94 216.463C384.688 217.342 384.762 218.015 385.608 218.8C385.744 218.922 385.875 219.052 386.001 219.188C386.168 219.37 386.31 219.575 386.422 219.795C386.576 220.197 387.506 220.669 387.314 221.053Z" fill="#3F3D56"/>
<path d="M403.886 219.903C404.582 221.375 405.125 222.992 404.924 224.609C404.882 225.047 404.744 225.47 404.517 225.848C403.844 226.88 402.433 227.067 401.204 227.128C400.945 227.106 400.684 227.136 400.437 227.217C400.19 227.297 399.961 227.426 399.764 227.595C399.6 227.834 399.52 228.12 399.536 228.41C399.552 228.699 399.663 228.975 399.853 229.194C400.248 229.615 400.738 229.936 401.283 230.128C403.227 230.984 405.326 231.689 407.438 231.493C408.419 231.4 409.373 231.115 410.349 230.97C411.414 230.854 412.484 230.795 413.555 230.792C414.827 230.745 416.093 230.619 417.36 230.493L420.715 230.161C420.898 230.164 421.076 230.099 421.215 229.979C421.463 229.689 421.145 229.264 420.837 229.044C419.056 227.726 416.789 226.82 415.775 224.838C415.308 223.903 415.163 222.791 414.817 221.782C414.471 220.772 413.92 219.861 413.705 218.833C413.59 217.931 413.539 217.022 413.551 216.113C413.562 215.196 413.229 214.309 412.616 213.627C411.948 213.005 410.98 212.846 410.074 212.809C407.84 212.711 405.461 213.243 403.877 214.818C403.451 215.244 403.087 215.753 402.648 216.136C402.208 216.519 401.61 216.632 401.9 217.136C402.19 217.641 402.76 217.954 403.068 218.398C403.38 218.877 403.654 219.38 403.886 219.903Z" fill="#FBBEBE"/>
<path d="M422.921 233.498C422.332 237.097 421.373 240.625 420.061 244.027C419.401 245.564 418.839 247.14 418.378 248.747C418.019 250.196 418.089 251.748 417.757 253.201C417.346 255.01 416.934 256.823 416.602 258.646C416.046 261.429 415.823 264.269 415.939 267.104C415.94 267.551 416.026 267.994 416.191 268.408C416.345 268.745 416.593 269.035 416.738 269.38C416.846 269.684 416.891 270.007 416.868 270.329C416.846 270.651 416.757 270.964 416.607 271.25C416.367 271.785 416.042 272.277 415.644 272.708C411.289 274.007 406.629 273.582 402.091 273.858C397.909 274.11 393.679 274.97 389.557 274.255C389.09 272.385 389.87 270.427 390.539 268.605C392.478 263.31 394.623 257.795 394.278 252.248C394.241 251.601 394.168 250.956 394.058 250.318C393.38 246.387 394.119 242.317 395.301 238.508C396.035 236.134 396.002 233.605 395.834 231.133C395.751 230.33 395.74 229.522 395.801 228.717C395.869 227.895 396.174 227.111 396.68 226.46C396.68 226.427 396.722 226.394 396.745 226.362C396.768 226.329 396.951 226.334 397.096 226.362C397.133 226.377 397.172 226.385 397.212 226.385C397.253 226.385 397.292 226.377 397.329 226.362L397.381 226.329C397.4 226.315 397.424 226.307 397.448 226.307C397.473 226.307 397.496 226.315 397.516 226.329C397.624 226.394 397.684 226.619 397.918 226.661C398.263 226.713 398.611 226.746 398.96 226.759C399.38 226.771 399.797 226.831 400.203 226.936H400.26C400.867 227.039 401.491 226.986 402.073 226.782C402.46 226.686 402.834 226.541 403.185 226.352C403.288 226.24 403.933 226.137 404.064 226.058C404.489 225.801 404.395 224.595 404.484 224.1C404.533 223.603 404.651 223.115 404.835 222.651C405.048 222.308 405.341 222.023 405.69 221.82C406.039 221.617 406.432 221.503 406.835 221.487C407.64 221.468 408.444 221.54 409.232 221.702C410.976 221.95 412.761 221.908 414.471 222.31C415.331 222.511 416.271 222.815 417.06 222.422C417.275 222.473 417.308 222.66 417.308 222.889C417.288 223.107 417.244 223.322 417.177 223.53C416.878 224.819 417.892 226.006 418.827 226.941C419.222 227.382 419.688 227.753 420.206 228.039C420.673 228.254 421.14 228.343 421.608 228.577C421.986 228.779 422.308 229.073 422.542 229.432C422.812 229.844 422.993 230.307 423.075 230.792C423.175 231.696 423.123 232.611 422.921 233.498Z" fill="#3F3D56"/>
<path opacity="0.1" d="M422.921 233.498C422.332 237.097 421.373 240.625 420.061 244.027C419.401 245.564 418.839 247.14 418.378 248.747C418.018 250.196 418.089 251.748 417.757 253.201C417.346 255.01 416.934 256.823 416.602 258.646C416.504 258.702 416.401 258.753 416.299 258.8C415.717 259.078 415.101 259.276 414.467 259.389C413.327 259.527 412.174 259.489 411.046 259.277L404.377 258.384C401.713 258.024 398.876 257.59 396.899 255.786C395.801 254.795 395.081 253.486 394.292 252.224C394.255 251.577 394.182 250.933 394.072 250.294C393.394 246.364 394.133 242.293 395.315 238.485C396.049 236.11 396.016 233.582 395.848 231.11C395.765 230.307 395.754 229.499 395.815 228.694C395.883 227.872 396.188 227.088 396.694 226.437C396.83 226.396 396.969 226.365 397.11 226.343C397.204 226.324 397.299 226.312 397.395 226.306H397.53C397.688 226.306 397.844 226.325 397.998 226.362C398.316 226.463 398.628 226.583 398.932 226.722H398.988C399.389 226.854 399.81 226.914 400.231 226.899C400.848 226.899 401.484 226.801 402.101 226.759C402.863 226.64 403.643 226.78 404.316 227.156C404.75 227.505 405.163 227.882 405.55 228.283C406.017 228.65 406.544 228.936 407.106 229.128C411.129 230.664 415.592 230.57 419.547 228.867C419.927 228.651 420.358 228.541 420.794 228.549C421.117 228.612 421.423 228.743 421.692 228.932C421.972 229.096 422.248 229.255 422.533 229.399C422.802 229.811 422.984 230.274 423.066 230.759C423.173 231.674 423.124 232.6 422.921 233.498Z" fill="black"/>
<path d="M426.992 230.404C425.131 229.836 423.343 229.051 421.664 228.067C421.394 227.879 421.089 227.749 420.767 227.684C420.328 227.679 419.897 227.789 419.514 228.002C415.561 229.705 411.099 229.799 407.078 228.264C406.516 228.069 405.991 227.783 405.522 227.418C405.133 227.018 404.721 226.642 404.288 226.292C402.751 225.296 400.624 226.464 398.904 225.824C398.599 225.688 398.287 225.568 397.97 225.464C396.61 225.123 395.226 226.478 393.89 226.067C393.392 227.419 393.025 228.815 392.791 230.236C392.601 231.868 392.5 233.509 392.488 235.152C392.488 236.138 392.441 237.125 392.488 238.111C392.652 238.138 392.81 238.198 392.95 238.289C393.09 238.38 393.209 238.499 393.301 238.639C393.362 238.802 393.387 238.976 393.374 239.149C393.361 239.323 393.311 239.492 393.226 239.643C392.249 242.153 391.259 244.691 389.777 246.939C390.821 247.561 391.79 248.301 392.665 249.145C394.301 250.874 395.105 253.299 396.871 254.898C398.862 256.697 401.699 257.136 404.349 257.491L411.018 258.384C412.147 258.595 413.302 258.635 414.443 258.501C415.076 258.385 415.691 258.186 416.271 257.907C416.65 257.749 416.995 257.521 417.29 257.234C417.536 256.954 417.739 256.639 417.892 256.3C418.42 255.243 418.902 254.164 419.346 253.07C419.5 252.682 419.734 252.229 420.154 252.196C422.631 249.962 424.968 247.672 427.445 245.439C428.44 244.614 429.333 243.672 430.104 242.634C431.333 240.817 430.216 238.241 430.104 236.045C430.09 235.483 430.02 234.924 429.894 234.377C429.492 232.783 428.548 230.876 426.992 230.404Z" fill="#B8BED5"/>
<path opacity="0.1" d="M387.314 221.053C386.94 221.8 386.043 222.16 385.351 222.632L382.982 224.259C382.824 224.401 382.638 224.51 382.436 224.58C382.235 224.649 382.021 224.676 381.809 224.661C381.616 224.589 381.439 224.48 381.289 224.34C381.139 224.199 381.019 224.03 380.935 223.843C380.935 223.735 380.935 223.618 380.935 223.506C380.917 223.128 380.968 222.75 381.085 222.389C381.317 221.861 381.676 221.398 382.131 221.043C383.011 220.21 384.058 219.573 385.202 219.174C385.38 219.105 385.574 219.085 385.763 219.118C385.835 219.137 385.905 219.167 385.968 219.207C386.135 219.389 386.277 219.593 386.389 219.814C386.576 220.197 387.506 220.669 387.314 221.053Z" fill="black"/>
<path d="M392.894 225.978C392.1 225.941 391.45 225.366 390.871 224.819L389.099 223.174C388.981 223.074 388.877 222.958 388.791 222.829C388.695 222.647 388.623 222.454 388.576 222.254C388.2 221.31 387.612 220.465 386.856 219.786C386.724 219.619 386.548 219.492 386.347 219.422C386.157 219.387 385.961 219.406 385.781 219.478C384.637 219.876 383.59 220.513 382.711 221.347C382.256 221.702 381.896 222.165 381.664 222.693C381.546 223.053 381.496 223.432 381.514 223.81C381.525 225.045 381.803 226.263 382.328 227.38C382.407 227.553 382.496 227.726 382.589 227.895C383.213 228.925 383.95 229.883 384.786 230.75L385.898 231.993C386.992 233.218 388.085 234.442 389.272 235.568C389.698 236.022 390.214 236.382 390.786 236.624C391.074 236.742 391.388 236.778 391.695 236.728C392.002 236.679 392.289 236.546 392.525 236.344C392.749 236.085 392.917 235.783 393.02 235.456C393.74 233.587 394.422 231.643 394.464 229.628C394.475 228.822 394.44 228.015 394.362 227.212C394.292 226.362 393.689 226.03 392.894 225.978Z" fill="#B8BED5"/>
<path d="M421.215 291.406C421.188 296.107 420.854 300.802 420.215 305.459C420.122 306.212 420.019 306.964 419.967 307.717C419.813 309.899 420.066 312.091 419.86 314.259C419.752 315.432 419.509 316.596 419.304 317.741C418.39 322.851 418.124 328.056 418.509 333.233C419.154 341.847 417.177 350.464 418.075 359.054C418.183 360.724 418.091 362.402 417.799 364.05C417.632 365.073 417.39 366.082 417.075 367.069C416.392 369.409 415.707 371.746 415.018 374.079C414.937 374.434 414.778 374.766 414.551 375.051C414.313 375.257 414.033 375.41 413.731 375.5C413.428 375.589 413.111 375.613 412.798 375.57C410.102 375.486 407.564 374.322 405.115 373.186C404.834 373.075 404.573 372.917 404.344 372.719C403.835 372.191 403.877 371.359 403.653 370.663C403.428 369.967 402.821 369.312 402.475 368.597C402.19 367.921 402.018 367.203 401.965 366.471C401.654 364.078 401.442 361.676 401.33 359.264C401.152 355.871 403.395 352.75 404.134 349.45C405.536 342.963 404.349 336.009 406.84 329.855C407.625 327.91 406.485 325.555 406.372 323.461C406.332 322.111 406.157 320.767 405.849 319.451C405.382 317.694 404.396 316.04 404.326 314.217C404.274 312.899 404.699 311.614 404.919 310.315C405.21 308.403 405.184 306.456 404.84 304.553C404.592 302.982 404.213 301.412 403.835 299.879L403.751 300.052C402.612 302.278 401.633 304.581 400.82 306.945C400.447 308.09 400.119 309.259 399.652 310.371C399.269 311.306 398.797 312.161 398.334 313.04C396.675 316.138 395.23 319.347 394.011 322.643C393.432 324.26 392.922 325.915 392.418 327.537L388.955 338.753C388.02 341.702 386.996 344.552 386.08 347.497C384.786 351.703 383.491 355.871 381.987 359.984C380.585 363.886 378.916 367.929 379.416 372.051C378.128 372.657 376.712 372.943 375.29 372.887C372.881 372.674 370.518 372.101 368.279 371.186C367.387 370.854 366.461 370.481 365.859 369.747C364.821 368.48 365.078 366.625 365.391 365.013C365.509 364.286 365.697 363.572 365.952 362.882C366.307 362.022 366.887 361.26 367.251 360.409C367.985 358.778 368.032 356.932 368.321 355.161C368.611 353.39 369.256 351.521 370.77 350.558C371.027 347.445 372.308 344.375 373.014 341.332C373.546 339.028 373.724 336.659 374.145 334.322C374.565 331.986 375.243 329.649 376.654 327.756C376.543 325.805 376.983 323.861 377.925 322.148C378.153 321.772 378.339 321.372 378.482 320.956C378.569 320.55 378.619 320.138 378.631 319.723C378.786 318.099 379.48 316.573 380.603 315.39C380.136 313.684 380.786 311.904 381.37 310.25C382.105 308.138 382.438 305.908 382.351 303.674C382.279 303.05 382.309 302.419 382.44 301.805C382.571 301.337 382.828 300.94 382.977 300.491C383.111 299.942 383.181 299.379 383.188 298.814C383.37 296.285 384.393 293.902 385.524 291.645C386.197 290.327 385.627 288.537 385.767 287.069C386.01 284.63 386.277 282.106 387.487 279.98C387.711 279.578 387.955 279.195 388.155 278.779C388.399 278.185 388.531 277.551 388.543 276.909C388.585 275.839 388.735 274.951 388.352 273.956C390.852 271.876 394.264 271.292 397.516 271.152C400.769 271.011 404.059 271.306 407.242 270.614C408.176 270.404 409.111 270.114 410.097 269.974C412.336 269.647 414.607 270.156 416.818 270.661C416.663 272.063 417.177 273.409 417.752 274.713C419.997 279.994 421.173 285.668 421.215 291.406Z" fill="#33313F"/>
<path opacity="0.1" d="M410.209 292.477L404.839 304.553C404.592 302.982 404.213 301.412 403.835 299.879L403.751 300.052V299.8L406.676 293.365L410.209 292.477Z" fill="black"/>
<path opacity="0.1" d="M426.3 267.249C425.99 267.481 425.62 267.619 425.234 267.647C424.642 267.668 424.051 267.587 423.486 267.408L419.28 266.357C419.148 266.324 419.02 266.279 418.897 266.221C418.967 265.488 419.107 264.637 419.505 264.352C420.098 263.955 421.874 264.487 422.547 264.581C423.706 264.74 424.884 264.927 426.015 265.146C426.19 265.834 426.286 266.54 426.3 267.249Z" fill="black"/>
<path d="M429.856 239.442C429.945 239.83 430.071 240.214 430.146 240.606C430.272 241.569 430.239 242.547 430.048 243.499L429.665 246.172L429.281 248.859L427.8 259.202L427.436 261.763L426.921 265.338C426.897 265.635 426.821 265.926 426.697 266.198C426.544 266.452 426.33 266.664 426.075 266.815C425.82 266.966 425.531 267.051 425.234 267.062C424.642 267.081 424.052 267.001 423.486 266.824L419.28 265.768C419.096 265.735 418.921 265.663 418.766 265.558C418.638 265.432 418.545 265.274 418.497 265.101C418.45 264.928 418.449 264.745 418.495 264.571C418.556 264.216 418.71 263.884 418.762 263.529C418.864 262.838 418.575 262.127 418.677 261.44C418.778 261.003 418.935 260.58 419.145 260.183C420.547 257.085 419.734 253.467 420.21 250.103C420.639 247.454 421.758 244.966 423.454 242.887C424.5 241.575 425.702 240.394 427.034 239.372C427.557 238.966 428.389 238.129 429.048 237.97C429.894 237.793 429.716 238.854 429.856 239.442Z" fill="#B8BED5"/>
<path d="M398.026 199.186C397.717 200.167 398.199 201.247 397.979 202.247C397.741 203.35 396.703 204.116 396.409 205.224C395.941 206.911 397.371 208.448 398.418 209.85C402.297 215.057 401.788 222.263 400.46 228.614C399.393 233.71 397.916 238.711 396.044 243.569C395.46 245.079 394.815 246.612 393.665 247.743C395.815 247.126 398.1 246.504 400.255 247.102C402.984 247.859 405.34 250.509 408.106 249.906C409.77 249.537 410.938 248.06 412.434 247.243C415.238 245.733 418.617 246.682 421.743 247.168C422.417 247.327 423.122 247.291 423.776 247.065C424.276 246.796 424.701 246.405 425.01 245.929C426.405 244.139 427.241 241.977 427.412 239.714C427.486 238.587 427.32 237.457 426.924 236.399C426.529 235.341 425.913 234.379 425.117 233.577C424.454 232.951 423.659 232.446 423.15 231.708C422.655 230.846 422.389 229.87 422.379 228.876C422.01 223.735 423.262 218.487 421.972 213.514C421.505 211.743 420.743 210.047 420.538 208.233C420.28 205.976 420.893 203.56 419.995 201.494C419.29 199.854 417.733 198.69 416.056 198.092C414.378 197.494 412.583 197.326 410.803 197.157C408.242 196.942 399.096 195.844 398.026 199.186Z" fill="#33313F"/>
<g opacity="0.1">
<path opacity="0.1" d="M400.46 228.614C399.398 233.689 397.929 238.669 396.067 243.508C396.39 242.868 396.661 242.195 396.918 241.527C398.792 236.669 400.269 231.668 401.334 226.572C402.666 220.216 403.176 213.019 399.297 207.808C398.362 206.565 397.161 205.219 397.203 203.761C396.858 204.202 396.589 204.698 396.409 205.228C395.941 206.916 397.371 208.453 398.418 209.855C402.297 215.057 401.788 222.263 400.46 228.614Z" fill="black"/>
<path opacity="0.1" d="M398.035 201.775C398.41 201.309 398.689 200.774 398.857 200.2C398.93 199.506 398.911 198.805 398.801 198.115C398.441 198.386 398.171 198.759 398.026 199.186C397.75 200.013 398.068 200.91 398.035 201.775Z" fill="black"/>
<path opacity="0.1" d="M425.889 243.873C425.579 244.348 425.155 244.737 424.655 245.004C424.002 245.235 423.295 245.27 422.622 245.107C419.495 244.639 416.079 243.677 413.312 245.186C411.812 245.999 410.649 247.476 408.98 247.85C406.218 248.467 403.863 245.817 401.133 245.046C399.199 244.508 397.161 244.952 395.212 245.513C394.825 246.339 394.302 247.094 393.665 247.747C395.815 247.13 398.1 246.509 400.255 247.107C402.984 247.864 405.34 250.514 408.106 249.911C409.77 249.542 410.938 248.065 412.434 247.247C415.238 245.738 418.617 246.686 421.743 247.172C422.417 247.331 423.122 247.296 423.776 247.07C424.276 246.801 424.701 246.41 425.01 245.934C425.857 244.817 426.511 243.566 426.945 242.233C426.632 242.804 426.28 243.352 425.889 243.873Z" fill="black"/>
</g>
</g>
<defs>
<linearGradient id="paint0_linear" x1="359.199" y1="286.209" x2="430.702" y2="286.209" gradientUnits="userSpaceOnUse">
<stop stop-color="#808080" stop-opacity="0.25"/>
<stop offset="0.54" stop-color="#808080" stop-opacity="0.12"/>
<stop offset="1" stop-color="#808080" stop-opacity="0.1"/>
</linearGradient>
<clipPath id="clip0">
<rect width="545" height="376.252" fill="white"/>
</clipPath>
</defs>
</svg>
