<svg width="520" height="372" viewBox="0 0 520 372" fill="none" xmlns="http://www.w3.org/2000/svg">
<g clip-path="url(#clip0)">
<path opacity="0.1" d="M511.524 250.093C499.469 274.961 474.992 291.589 449.625 302.555C415.474 317.324 377.867 323.181 340.776 320.704C334.276 320.271 327.795 319.58 321.334 318.63C298.896 315.357 277.02 308.987 256.332 299.702C250.361 297.013 244.511 294.077 238.782 290.895C229.214 285.592 220.045 279.596 211.351 272.956C209.164 271.286 207.007 269.574 204.881 267.82C203.407 266.604 201.946 265.36 200.462 264.154C197.331 261.608 194.11 259.19 190.517 257.38C189.432 256.833 188.321 256.342 187.186 255.91C175.807 251.581 162.686 253.215 150.84 256.59C141.829 259.158 133.045 262.674 124.044 265.184C120.04 266.333 115.96 267.201 111.835 267.779C102.624 268.945 93.27 268.123 84.4034 265.37L83.6457 265.134C82.3753 264.734 81.1155 264.297 79.8663 263.822L79.1086 263.532C77.8987 263.066 76.7145 262.566 75.5561 262.03L74.7984 261.685C73.5885 261.123 72.4043 260.528 71.2458 259.902C70.8284 259.685 70.4156 259.449 70.0072 259.226C63.416 255.545 57.4248 250.88 52.24 245.393C52.0903 245.243 51.9496 245.089 51.7863 244.939C51.0649 244.159 50.3571 243.365 49.672 242.553C49.4179 242.253 49.1638 241.954 48.9143 241.645C48.1007 240.653 47.3157 239.638 46.5596 238.601C46.4461 238.451 46.3372 238.297 46.2284 238.147C43.1302 233.861 40.5618 229.216 38.5788 224.313C38.5153 224.164 38.4563 224.009 38.4019 223.86C37.7969 222.302 37.2449 220.719 36.7458 219.109C36.5417 218.438 36.3466 217.748 36.1742 217.077C36.1152 216.877 36.0607 216.673 36.0108 216.473C33.5064 206.614 33.2205 196.365 33.2205 186.175C33.2205 184.986 33.2205 183.799 33.2205 182.613C33.2931 166.13 33.5472 149.365 35.9791 133.109C35.9791 132.996 36.0108 132.882 36.029 132.773C36.8429 127.301 37.9501 121.875 39.3456 116.521C40.8062 110.904 42.6728 105.399 44.9307 100.052C50.525 86.8942 58.66 74.9209 67.6933 63.8232C90.4468 35.8974 120.287 12.4543 155.214 3.6796C192.849 -5.77115 234.676 3.28487 265.034 27.4539C274.289 34.8221 282.606 43.547 293 49.1956C302.075 54.1138 312.696 56.151 322.414 52.2808C330.445 49.0822 335.672 47.4942 344.691 47.9797C363.364 49.036 381.772 52.8917 399.3 59.4177C400.007 59.6763 400.715 59.944 401.419 60.2117C447.111 77.693 486.389 112.424 506.806 157.056C507.347 158.235 507.872 159.424 508.38 160.622C520.553 189.056 524.954 222.381 511.524 250.093Z" fill="#4D8AF0"/>
<path opacity="0.1" d="M54.5811 337.101C76.702 337.101 94.6345 334.22 94.6345 330.667C94.6345 327.114 76.702 324.234 54.5811 324.234C32.4602 324.234 14.5277 327.114 14.5277 330.667C14.5277 334.22 32.4602 337.101 54.5811 337.101Z" fill="#4D8AF0"/>
<path opacity="0.1" d="M413.9 372C453.123 372 484.919 368.912 484.919 365.104C484.919 361.295 453.123 358.207 413.9 358.207C374.677 358.207 342.881 361.295 342.881 365.104C342.881 368.912 374.677 372 413.9 372Z" fill="#4D8AF0"/>
<path d="M478.2 48.8871H58.3605C55.2308 48.8871 52.6937 51.4242 52.6937 54.5539V287.465C52.6937 290.595 55.2308 293.132 58.3605 293.132H478.2C481.329 293.132 483.866 290.595 483.866 287.465V54.5539C483.866 51.4242 481.329 48.8871 478.2 48.8871Z" fill="url(#paint0_linear)"/>
<path d="M477.564 52.3217H59.0456C55.9159 52.3217 53.3788 54.8588 53.3788 57.9885V286.653C53.3788 289.783 55.9159 292.32 59.0456 292.32H477.564C480.694 292.32 483.231 289.783 483.231 286.653V57.9885C483.231 54.8588 480.694 52.3217 477.564 52.3217Z" fill="white"/>
<path d="M477.564 52.3217H59.0456C55.9159 52.3217 53.3788 54.8588 53.3788 57.9885V286.653C53.3788 289.783 55.9159 292.32 59.0456 292.32H477.564C480.694 292.32 483.231 289.783 483.231 286.653V57.9885C483.231 54.8588 480.694 52.3217 477.564 52.3217Z" fill="white"/>
<path opacity="0.04" d="M477.564 52.3217H59.0456C55.9159 52.3217 53.3788 54.8588 53.3788 57.9885V286.653C53.3788 289.783 55.9159 292.32 59.0456 292.32H477.564C480.694 292.32 483.231 289.783 483.231 286.653V57.9885C483.231 54.8588 480.694 52.3217 477.564 52.3217Z" fill="white"/>
<path d="M481.049 49.5676H55.5611C54.9823 49.5676 54.4273 49.7976 54.018 50.2068C53.6087 50.6161 53.3788 51.1712 53.3788 51.75V60.9739H483.213V51.75C483.213 51.1743 482.986 50.622 482.58 50.2132C482.175 49.8045 481.624 49.5724 481.049 49.5676Z" fill="#5A5773"/>
<path d="M61.9629 58.2199C63.5917 58.2199 64.912 56.8995 64.912 55.2708C64.912 53.642 63.5917 52.3217 61.9629 52.3217C60.3342 52.3217 59.0138 53.642 59.0138 55.2708C59.0138 56.8995 60.3342 58.2199 61.9629 58.2199Z" fill="white"/>
<path d="M69.9028 58.2199C71.5316 58.2199 72.8519 56.8995 72.8519 55.2708C72.8519 53.642 71.5316 52.3217 69.9028 52.3217C68.2741 52.3217 66.9537 53.642 66.9537 55.2708C66.9537 56.8995 68.2741 58.2199 69.9028 58.2199Z" fill="white"/>
<path d="M77.8427 58.2199C79.4715 58.2199 80.7918 56.8995 80.7918 55.2708C80.7918 53.642 79.4715 52.3217 77.8427 52.3217C76.214 52.3217 74.8936 53.642 74.8936 55.2708C74.8936 56.8995 76.214 58.2199 77.8427 58.2199Z" fill="white"/>
<path opacity="0.2" d="M204.137 82.4252H88.7816V92.2162H204.137V82.4252Z" fill="#4D8AF0"/>
<path opacity="0.1" d="M447.828 121.685H88.7816V272.298H447.828V121.685Z" fill="#5A5773"/>
<path opacity="0.1" d="M299.007 131.507H292.86V119.566C292.86 106.091 282.116 94.8885 268.641 94.6843C265.391 94.6502 262.167 95.2594 259.155 96.477C256.142 97.6945 253.4 99.4962 251.087 101.778C248.773 104.06 246.934 106.778 245.676 109.774C244.418 112.77 243.765 115.985 243.755 119.234V131.507H237.621C234.91 131.516 232.312 132.596 230.395 134.513C228.479 136.43 227.398 139.028 227.39 141.738V190.839C227.398 193.55 228.479 196.147 230.395 198.064C232.312 199.981 234.91 201.061 237.621 201.07H299.007C301.718 201.061 304.315 199.981 306.231 198.064C308.147 196.147 309.227 193.549 309.234 190.839V141.738C309.227 139.028 308.147 136.43 306.231 134.513C304.315 132.596 301.718 131.516 299.007 131.507ZM271.898 163.426V181.011C271.904 181.943 271.556 182.841 270.924 183.525C270.292 184.209 269.424 184.628 268.496 184.696C268.011 184.718 267.526 184.642 267.072 184.472C266.617 184.303 266.201 184.042 265.85 183.707C265.499 183.372 265.22 182.969 265.028 182.523C264.837 182.077 264.739 181.597 264.739 181.111V163.417C263.079 162.607 261.743 161.259 260.948 159.592C260.152 157.926 259.946 156.039 260.361 154.239C260.776 152.44 261.789 150.835 263.235 149.685C264.68 148.535 266.472 147.909 268.319 147.909C270.165 147.909 271.957 148.535 273.403 149.685C274.848 150.835 275.861 152.44 276.276 154.239C276.691 156.039 276.485 157.926 275.69 159.592C274.895 161.259 273.558 162.607 271.898 163.417V163.426ZM285.709 131.507H250.914V119.234C250.914 114.622 252.747 110.199 256.008 106.937C259.269 103.676 263.693 101.844 268.305 101.844C272.917 101.844 277.341 103.676 280.602 106.937C283.863 110.199 285.696 114.622 285.696 119.234L285.709 131.507Z" fill="black"/>
<path d="M299.007 130.6H292.86V118.658C292.86 105.183 282.116 93.9812 268.641 93.777C265.391 93.7429 262.167 94.3521 259.155 95.5696C256.142 96.7871 253.4 98.5889 251.087 100.871C248.773 103.153 246.934 105.87 245.676 108.866C244.418 111.862 243.765 115.078 243.755 118.327V130.6H237.621C234.91 130.608 232.312 131.689 230.395 133.606C228.479 135.523 227.398 138.12 227.39 140.831V189.931C227.398 192.642 228.479 195.24 230.395 197.157C232.312 199.074 234.91 200.154 237.621 200.163H299.007C301.718 200.154 304.315 199.073 306.231 197.156C308.147 195.239 309.227 192.642 309.234 189.931V140.831C309.227 138.121 308.147 135.523 306.231 133.606C304.315 131.689 301.718 130.608 299.007 130.6ZM271.898 162.518V180.104C271.904 181.035 271.556 181.934 270.924 182.618C270.292 183.302 269.424 183.72 268.496 183.788C268.011 183.811 267.526 183.735 267.072 183.565C266.617 183.395 266.201 183.135 265.85 182.8C265.499 182.465 265.22 182.062 265.028 181.616C264.837 181.17 264.739 180.689 264.739 180.204V162.509C263.079 161.7 261.743 160.352 260.948 158.685C260.152 157.018 259.946 155.131 260.361 153.332C260.776 151.533 261.789 149.927 263.235 148.778C264.68 147.628 266.472 147.002 268.319 147.002C270.165 147.002 271.957 147.628 273.403 148.778C274.848 149.927 275.861 151.533 276.276 153.332C276.691 155.131 276.485 157.018 275.69 158.685C274.895 160.352 273.558 161.7 271.898 162.509V162.518ZM285.709 130.6H250.914V118.327C250.914 113.715 252.747 109.291 256.008 106.03C259.269 102.769 263.693 100.937 268.305 100.937C272.917 100.937 277.341 102.769 280.602 106.03C283.863 109.291 285.696 113.715 285.696 118.327L285.709 130.6Z" fill="#4D8AF0"/>
<path opacity="0.1" d="M447.828 107.189H411.486V115.768H447.828V107.189Z" fill="#5A5773"/>
<path d="M460.196 367.182C459.957 365.979 459.548 364.816 458.98 363.729L453.536 355.599H453.568C453.568 355.599 452.71 351.515 453.568 349.51C454.425 347.504 450.51 342.573 450.51 342.573C450.51 342.573 450.033 341.334 451.276 339.809C452.52 338.285 450.51 333.82 450.51 333.82C450.51 333.82 449.557 324.497 449.462 323.072C449.366 321.647 448.6 313.753 448.6 313.753L446.785 297.016L443.554 252.657L443.495 251.826C443.895 251.631 444.108 251.509 444.108 251.509L443.464 226.981L444.022 226.478C448.894 222.068 460.133 211.859 460.019 211.637C459.906 211.414 458.658 194.591 458.513 190.381C458.388 187.388 457.734 184.442 456.58 181.678C456.299 181.12 455.487 177.441 455.151 175.885C455.06 175.458 455.001 175.19 455.001 175.19C455.001 175.19 451.707 168.911 451.993 166.057C452.279 163.203 452.851 161.066 445.827 160.068C445.827 160.068 439.929 159.188 436.417 156.788C434.341 155.35 432.071 154.214 429.675 153.412C429.675 153.412 427.706 149.783 426.336 151.012C425.756 149.717 425.322 148.361 425.043 146.97L425.002 146.716C427.603 144.902 429.475 142.223 430.283 139.157C430.329 138.984 430.365 138.808 430.406 138.635C430.542 138.681 430.684 138.707 430.828 138.712C432.021 138.712 432.756 137.383 433.872 136.961C434.326 136.784 434.884 136.757 435.233 136.398C435.348 136.26 435.434 136.1 435.486 135.928C435.537 135.755 435.553 135.574 435.533 135.396C435.544 135.272 435.544 135.147 435.533 135.024C435.535 134.98 435.535 134.936 435.533 134.892V134.937C435.229 133.286 433.949 131.82 434.09 130.142C434.226 128.563 435.614 127.174 435.501 125.636C435.499 125.515 435.489 125.393 435.469 125.273V125.328C435.3 124.727 434.989 124.176 434.562 123.722C434.073 123.056 433.432 122.518 432.693 122.152C432.062 121.875 431.331 121.812 430.742 121.48C429.008 120.537 429.013 118.078 427.983 116.399C427.542 115.698 426.916 115.133 426.173 114.765C425.431 114.398 424.602 114.242 423.777 114.316C422.489 114.443 421.323 115.129 420.048 115.351C418.305 115.659 416.531 115.092 414.88 114.443C413.228 113.795 411.554 113.082 409.78 113.082C408.006 113.082 406.087 113.99 405.552 115.664C405.266 116.571 405.407 117.547 405.189 118.468C404.799 120.092 403.374 121.254 401.899 122.061C400.992 122.565 399.912 123.141 399.631 124.094C399.631 124.067 399.631 124.044 399.631 124.021C399.611 124.097 399.595 124.175 399.585 124.253C399.576 124.354 399.576 124.455 399.585 124.557C399.585 125.21 399.93 125.831 400.162 126.453C400.593 127.636 400.583 128.934 400.134 130.11C399.799 130.972 399.227 131.73 398.9 132.587C398.746 132.987 398.646 133.405 398.601 133.83V133.758C398.59 133.951 398.59 134.145 398.601 134.339C398.595 135.001 398.751 135.655 399.055 136.244C399.263 136.651 399.55 137.012 399.9 137.305C400.25 137.599 400.655 137.82 401.092 137.955C401.999 138.163 402.566 137.274 403.524 137.501C403.695 137.542 403.863 137.595 404.027 137.66C404.059 137.864 404.091 138.068 404.127 138.268C404.706 141.321 406.333 144.077 408.728 146.058C408.728 146.167 408.764 146.276 408.778 146.389C409.067 148.198 409.193 150.029 409.154 151.861C409.154 151.861 407.725 149.769 405.765 153.807C405.765 153.807 400.652 156.756 398.887 157.092C397.122 157.428 390.856 159.61 390.856 159.61C389.911 160.293 388.774 160.66 387.608 160.658C385.652 160.658 384.028 164.937 384.264 167.264C384.5 169.592 384.123 171.307 382.304 171.402C380.484 171.497 381.478 175.186 381.492 175.249L381.324 176.043C380.97 177.668 380.199 181.152 379.926 181.697C378.773 184.46 378.117 187.407 377.989 190.399C377.848 194.609 376.628 211.369 376.487 211.655C376.392 211.841 384.091 218.878 389.504 223.796L390.289 224.504L387.798 247.77C387.871 248.667 388.137 249.537 388.579 250.32C389.021 251.103 389.628 251.781 390.357 252.307C390.357 252.579 390.357 252.856 390.33 253.142C390.221 255.864 390.003 259.158 389.568 260.02C388.805 261.545 388.996 269.721 388.996 269.721C388.996 269.721 388.229 286.363 387.276 288.173C386.324 289.983 386.129 293.781 386.414 294.525C386.7 295.269 385.457 315.255 385.457 315.255L384.504 324.197C384.504 324.197 384.79 332.754 383.928 332.945C383.066 333.135 382.59 339.034 382.59 339.034C382.59 339.034 379.536 343.217 380.87 344.737C382.204 346.257 380.675 346.928 380.534 347.305C380.394 347.681 377.621 349.12 379.627 354.437C379.645 354.49 379.666 354.541 379.69 354.591C377.812 357.2 371.859 365.616 372.222 366.896C372.49 367.71 373.058 368.391 373.81 368.801C375.212 369.641 377.617 370.031 381.442 368.801C387.794 366.755 387.34 365.281 387.34 365.281C387.372 364.591 387.668 363.941 388.166 363.463C388.664 362.985 389.327 362.717 390.017 362.713C392.644 362.522 394.604 360.099 394.604 360.099L394.295 358.951L393.873 357.363C393.923 356.91 394.245 356.116 395.688 355.676C397.889 355.009 397.312 350.825 397.312 350.825C397.312 350.825 397.122 346.452 398.075 345.88C399.027 345.308 398.651 338.081 398.651 338.081C398.651 338.081 399.703 332.85 401.228 329.329C402.752 325.808 404.576 304.892 404.576 304.892C404.576 304.892 405.815 294.62 406.963 291.671C408.111 288.722 409.163 280.451 409.163 280.451C409.163 280.451 416.237 266.753 416.327 263.709C416.327 263.709 417.235 260.855 418.142 263.995C419.05 267.134 421.599 274.648 421.599 274.648L424.081 283.872L427.044 297.66L428.959 309.266C428.959 309.266 428.668 313.64 429.412 315.164C430.156 316.688 431.227 320.2 430.655 320.867C430.084 321.534 431.799 324.674 432.28 325.336C432.761 325.999 432.28 340.077 432.28 340.077C432.28 340.077 434.476 352.06 437.629 354.142C437.849 354.287 438.083 354.408 438.328 354.505C438.282 355.803 438.237 357.54 438.296 358.448C438.289 358.651 438.323 358.853 438.396 359.042C438.681 359.423 441.93 361.991 442.602 361.991C443.273 361.991 445.655 363.656 445.755 364.464C445.855 365.272 452.737 368.693 453.713 368.792C454.688 368.892 459.416 369.741 460.065 368.411C460.225 368.022 460.271 367.596 460.196 367.182ZM443.287 195.807L443.777 196.229C443.777 196.229 444.28 200.153 444.639 201.329C444.997 202.504 444.566 204.79 444.566 204.79C444.599 205.644 444.769 206.486 445.07 207.286C445.496 208.143 444.208 210.008 444.208 210.008H443.06L442.701 195.317L443.287 195.807ZM409.154 151.942V151.856C409.145 151.883 409.141 151.915 409.141 151.942H409.154ZM391.528 208.497C391.351 208.117 391.325 207.684 391.455 207.286C391.557 207.07 391.638 206.845 391.695 206.614C391.836 206.018 391.925 205.411 391.959 204.799C391.959 204.792 391.959 204.784 391.959 204.777C391.918 204.559 391.55 202.454 391.891 201.338C392.231 200.222 392.748 196.238 392.748 196.238L393.075 195.961L393.832 195.303C393.832 195.303 393.832 195.058 393.887 194.655C394.046 198.103 394.173 201.914 393.969 202.104C393.587 202.481 392.199 206.188 392.535 206.333C392.644 206.383 392.494 207.867 392.24 209.863C391.955 209.434 391.716 208.976 391.528 208.497Z" fill="url(#paint1_linear)"/>
<path d="M428.096 155.567V161.212L416.518 167.033C416.518 167.033 405.021 160.077 407.857 157.31C409.671 155.558 409.322 150.749 408.832 147.442C408.546 145.518 408.215 144.107 408.215 144.107C408.215 144.107 428.868 138.209 425.746 142.687C424.703 144.184 424.621 146.121 424.97 148.04C425.678 151.847 428.096 155.567 428.096 155.567Z" fill="#C37098"/>
<path d="M396.378 210.761L394.885 229.145C394.885 229.145 392.648 227.117 389.754 224.477C384.386 219.581 376.764 212.581 376.855 212.395C376.995 212.109 378.216 195.43 378.347 191.238C378.471 188.262 379.12 185.332 380.262 182.581C380.534 182.037 381.301 178.571 381.623 176.951C381.732 176.447 381.8 176.121 381.8 176.121L384.305 175.113C384.305 175.113 394.74 186.755 394.74 186.969C394.74 187.182 394.028 196.125 394.028 196.125L393.288 196.769L392.966 197.046C392.966 197.046 392.467 200.952 392.113 202.123C391.759 203.293 392.14 205.326 392.181 205.544C392.148 206.155 392.061 206.762 391.922 207.358C391.863 207.588 391.783 207.811 391.682 208.025C391.554 208.422 391.58 208.853 391.754 209.232C391.956 209.758 392.218 210.259 392.535 210.725L396.378 210.761Z" fill="#3F3D56"/>
<path d="M459.62 212.395C459.729 212.617 448.6 222.775 443.777 227.163L441.59 229.145L440.111 210.761H443.945C443.945 210.761 445.224 208.915 444.798 208.062C444.5 207.266 444.333 206.428 444.303 205.58C444.303 205.58 444.725 203.311 444.371 202.136C444.017 200.961 443.518 197.059 443.518 197.059L443.033 196.642L442.456 196.138C442.456 196.138 441.744 187.196 441.744 186.982C441.744 186.769 452.179 175.127 452.179 175.127L454.666 176.121C454.666 176.121 454.72 176.388 454.811 176.815C455.147 178.362 455.95 182.023 456.226 182.581C457.369 185.332 458.017 188.262 458.141 191.238C458.259 195.43 459.475 212.109 459.62 212.395Z" fill="#3F3D56"/>
<path d="M459.665 368.443C458.999 369.768 454.316 368.897 453.35 368.824C452.384 368.751 445.56 365.317 445.464 364.514C445.369 363.711 443.005 362.055 442.343 362.055C441.681 362.055 438.464 359.496 438.178 359.119C438.105 358.931 438.073 358.73 438.083 358.529C437.983 356.973 438.178 352.967 438.178 352.967L451.903 353.725L458.572 363.756C459.134 364.838 459.54 365.995 459.779 367.191C459.86 367.61 459.821 368.045 459.665 368.443Z" fill="#3F3D56"/>
<path opacity="0.1" d="M459.665 368.443C458.999 369.768 454.316 368.897 453.35 368.824C452.384 368.751 445.56 365.317 445.464 364.514C445.369 363.711 443.005 362.055 442.343 362.055C441.681 362.055 438.464 359.496 438.178 359.119C438.105 358.931 438.073 358.73 438.083 358.529C437.983 356.973 438.178 352.967 438.178 352.967L451.903 353.725L458.572 363.756C459.134 364.838 459.54 365.995 459.779 367.191C459.86 367.61 459.821 368.045 459.665 368.443Z" fill="black"/>
<path opacity="0.1" d="M459.665 368.443C458.999 369.768 454.316 368.897 453.35 368.824C452.383 368.751 445.56 365.317 445.464 364.514C445.369 363.711 443.005 362.055 442.343 362.055C441.681 362.055 438.464 359.496 438.178 359.119C438.105 358.931 438.073 358.731 438.083 358.529L442.529 361.342C442.529 361.342 445.369 363.157 446.127 364.233C446.885 365.308 452.855 367.545 453.35 367.59C453.717 367.626 457.637 366.873 459.779 367.191C459.86 367.61 459.821 368.045 459.665 368.443Z" fill="black"/>
<path d="M394.785 360.163C394.785 360.163 392.843 362.576 390.248 362.762C389.563 362.768 388.907 363.035 388.414 363.511C387.92 363.986 387.629 364.633 387.598 365.317C387.598 365.317 388.052 366.787 381.777 368.824C377.989 370.044 375.607 369.659 374.219 368.824C373.474 368.413 372.911 367.735 372.644 366.927C372.218 365.417 380.593 353.915 380.593 353.915L388.216 353.461L393.66 355.921L394.495 359.037L394.785 360.163Z" fill="#3F3D56"/>
<path opacity="0.1" d="M394.785 360.163C394.785 360.163 392.843 362.576 390.248 362.762C389.563 362.768 388.907 363.035 388.414 363.511C387.92 363.986 387.629 364.633 387.598 365.317C387.598 365.317 388.052 366.787 381.777 368.824C377.989 370.044 375.607 369.659 374.219 368.824C373.474 368.413 372.911 367.735 372.644 366.927C372.218 365.417 380.593 353.915 380.593 353.915L388.216 353.461L393.66 355.921L394.495 359.037L394.785 360.163Z" fill="black"/>
<path opacity="0.1" d="M394.785 360.163C394.785 360.163 392.843 362.576 390.248 362.763C389.563 362.768 388.907 363.036 388.414 363.511C387.92 363.986 387.629 364.633 387.599 365.317C387.599 365.317 388.052 366.787 381.777 368.824C377.989 370.045 375.607 369.659 374.219 368.824C377.789 368.452 385.679 366.197 386.469 365.417C387.417 364.468 388.601 361.864 389.404 361.819C389.962 361.782 392.798 360.077 394.499 359.019L394.785 360.163Z" fill="black"/>
<path d="M453.227 349.61C452.374 351.597 453.227 355.667 453.227 355.667C453.227 355.667 440.524 356.329 437.42 354.246C434.317 352.164 432.121 340.236 432.121 340.236C432.121 340.236 432.575 326.23 432.121 325.568C431.667 324.905 429.943 321.784 430.51 321.121C431.077 320.459 430.057 316.956 429.281 315.441C428.505 313.925 428.827 309.574 428.827 309.574L426.931 298.023L424 284.303L421.509 275.12C421.509 275.12 418.954 267.643 418.088 264.521C417.221 261.4 416.305 264.235 416.305 264.235C416.214 267.266 409.209 280.895 409.209 280.895C409.209 280.895 408.165 289.13 407.031 292.061C405.897 294.992 404.662 305.219 404.662 305.219C404.662 305.219 402.848 326.039 401.35 329.542C399.853 333.045 398.823 338.249 398.823 338.249C398.823 338.249 399.204 345.444 398.256 346.012C397.308 346.579 397.462 350.934 397.462 350.934C397.462 350.934 398.029 355.095 395.851 355.762C393.674 356.429 394.037 357.844 394.037 357.844C394.037 357.844 381.923 359.832 379.935 354.528C377.948 349.224 380.693 347.813 380.843 347.432C380.993 347.051 382.503 346.393 381.179 344.873C379.854 343.353 382.88 339.197 382.88 339.197C382.88 339.197 383.356 333.33 384.205 333.14C385.053 332.949 384.776 324.433 384.776 324.433L385.72 315.536C385.72 315.536 386.954 295.659 386.668 294.901C386.383 294.144 386.573 290.364 387.521 288.549C388.47 286.735 389.223 270.183 389.223 270.183C389.223 270.183 389.032 262.048 389.79 260.533C390.244 259.675 390.434 256.377 390.543 253.687C390.625 251.631 390.643 249.93 390.643 249.93L401.242 245.955L414.853 241.604L426.304 247.094L443.06 250.311L443.269 253.201L446.467 297.351L448.282 314.007C448.282 314.007 449.04 321.861 449.135 323.281C449.23 324.701 450.174 333.979 450.174 333.979C450.174 333.979 452.161 338.426 450.932 339.941C449.702 341.456 450.174 342.663 450.174 342.663C450.174 342.663 454.08 347.622 453.227 349.61Z" fill="#3F3D56"/>
<path opacity="0.1" d="M425.755 142.687C424.712 144.184 424.63 146.121 424.98 148.04C422.595 149.722 419.724 150.575 416.808 150.466C413.892 150.357 411.093 149.292 408.841 147.437C408.555 145.513 408.224 144.102 408.224 144.102C408.224 144.102 428.877 138.213 425.755 142.687Z" fill="black"/>
<path d="M430.583 136.897C430.583 139.527 429.803 142.097 428.342 144.283C426.882 146.469 424.806 148.173 422.376 149.179C419.947 150.185 417.274 150.449 414.696 149.936C412.117 149.423 409.748 148.157 407.889 146.297C406.03 144.438 404.764 142.07 404.251 139.491C403.738 136.912 404.001 134.239 405.007 131.81C406.014 129.381 407.717 127.305 409.904 125.844C412.09 124.383 414.66 123.604 417.289 123.604C419.037 123.595 420.77 123.933 422.386 124.599C424.003 125.264 425.472 126.243 426.708 127.479C427.944 128.715 428.923 130.184 429.588 131.8C430.253 133.417 430.591 135.149 430.583 136.897Z" fill="#C37098"/>
<path opacity="0.1" d="M433.35 158.989L428.995 236.55L405.334 231.582L400.647 200.489L405.289 158.748L408.782 159.197L414.943 159.982L421.046 160.359L427.661 159.624L433.35 158.989Z" fill="black"/>
<path d="M433.35 159.556L428.995 237.117L405.334 232.149L400.647 201.056L405.289 159.32L408.782 159.764L414.943 160.549L421.046 160.926L427.661 160.191L433.35 159.556Z" fill="white"/>
<path d="M413.9 161.638L422.421 161.924L420.025 165.277C420.025 165.277 420.193 172.051 421.332 173.993C422.471 175.934 422.135 205.934 422.135 205.934L419.866 210.239L415.987 205.412L416.037 165.803L413.9 161.638Z" fill="#3F3D56"/>
<path opacity="0.1" d="M413.9 161.638L422.421 161.924L420.025 165.277C420.025 165.277 420.193 172.051 421.332 173.993C422.471 175.934 422.135 205.934 422.135 205.934L419.866 210.239L415.987 205.412L416.037 165.803L413.9 161.638Z" fill="black"/>
<path opacity="0.1" d="M427.244 152.836L419.295 161.638L423.836 166.37L431.363 159.034L427.244 152.836Z" fill="black"/>
<path d="M427.244 152.269L419.295 161.071L423.836 165.803L431.363 158.467L427.244 152.269Z" fill="white"/>
<path opacity="0.1" d="M415.937 161.212L407.888 153.167L407.131 157.378L410.824 166.606L415.937 161.212Z" fill="black"/>
<path d="M416.218 160.644L408.174 152.6L407.416 156.811L411.11 166.039L416.218 160.644Z" fill="white"/>
<path opacity="0.1" d="M443.309 253.215C439.446 255.055 435.308 256.252 431.059 256.758C423.251 257.752 418.142 247.816 418.142 247.816L415.161 251.695C414.213 255.814 399.781 256.853 393.914 255.293C392.697 254.992 391.552 254.451 390.548 253.7C390.629 251.645 390.647 249.943 390.647 249.943L401.246 245.969L414.857 241.618L426.309 247.108L443.064 250.325L443.309 253.215Z" fill="black"/>
<path opacity="0.1" d="M433.35 159.56L428.999 237.117L405.334 232.149L400.638 201.061L405.275 159.32L408.769 159.773C408.679 161.294 408.508 162.808 408.256 164.31C407.689 166.965 411.191 185.798 411.191 185.798C411.191 185.798 417.847 206.918 420.842 203.874C423.836 200.829 428.101 184.755 428.101 184.755C430.991 178.793 428.151 162.069 427.938 161.733C427.789 161.239 427.698 160.729 427.666 160.214L433.35 159.56Z" fill="black"/>
<path opacity="0.1" d="M443.572 219.577L443.772 227.176L441.585 229.159L440.111 210.761H443.377L443.572 219.577Z" fill="black"/>
<path opacity="0.1" d="M392.185 205.557C392.152 206.168 392.066 206.776 391.927 207.372C391.927 207.204 391.927 207.109 391.891 207.095C391.754 207.059 391.918 206.365 392.185 205.557Z" fill="black"/>
<path opacity="0.1" d="M396.378 210.761L394.885 229.145C394.885 229.145 392.648 227.117 389.754 224.477L390.098 221.219C390.098 221.219 391.319 213.216 391.764 209.268C391.965 209.794 392.227 210.295 392.544 210.761H396.378Z" fill="black"/>
<path d="M409.213 152.882C409.213 152.882 407.798 150.799 405.856 154.819C405.856 154.819 400.792 157.754 399.05 158.086C397.308 158.417 391.11 160.595 391.11 160.595C390.174 161.271 389.048 161.635 387.893 161.634C385.952 161.634 384.341 165.894 384.577 168.212C384.813 170.531 384.436 172.237 382.639 172.332C380.843 172.427 381.832 176.161 381.832 176.161L393.805 189.886C393.805 189.886 394.563 202.522 394.186 202.903C393.81 203.284 392.435 206.986 392.766 207.113C393.097 207.24 390.951 221.215 390.951 221.215L388.066 248.333C388.066 248.333 388.066 252.87 393.937 254.435C399.808 256 414.249 254.966 415.179 250.846L418.16 246.962C418.16 246.962 423.269 256.903 431.077 255.91C438.886 254.916 443.858 252.076 443.858 252.076L443.005 219.577L442.438 196.152L454.629 176.12C454.629 176.12 451.363 169.873 451.648 167.046C451.934 164.22 452.497 162.078 445.542 161.085C445.542 161.085 439.675 160.209 436.218 157.818C434.163 156.391 431.918 155.261 429.548 154.46C429.548 154.46 427.597 150.831 426.241 152.074C426.241 152.074 427.602 157.205 427.489 157.972C427.375 158.739 427.702 162.205 427.915 162.564C428.128 162.922 430.968 179.623 428.078 185.585C428.078 185.585 423.836 201.66 420.819 204.704C417.802 207.748 411.169 186.628 411.169 186.628C411.169 186.628 407.666 167.79 408.233 165.141C408.8 162.491 409.213 152.882 409.213 152.882Z" fill="#3F3D56"/>
<path d="M419.34 214.926C420.49 214.926 421.422 213.994 421.422 212.844C421.422 211.693 420.49 210.761 419.34 210.761C418.19 210.761 417.257 211.693 417.257 212.844C417.257 213.994 418.19 214.926 419.34 214.926Z" fill="#3F3D56"/>
<path d="M419.34 224.744C420.49 224.744 421.422 223.812 421.422 222.662C421.422 221.512 420.49 220.579 419.34 220.579C418.19 220.579 417.257 221.512 417.257 222.662C417.257 223.812 418.19 224.744 419.34 224.744Z" fill="#3F3D56"/>
<path opacity="0.1" d="M419.34 214.926C420.49 214.926 421.422 213.994 421.422 212.844C421.422 211.693 420.49 210.761 419.34 210.761C418.19 210.761 417.257 211.693 417.257 212.844C417.257 213.994 418.19 214.926 419.34 214.926Z" fill="black"/>
<path opacity="0.1" d="M419.34 224.744C420.49 224.744 421.422 223.812 421.422 222.662C421.422 221.512 420.49 220.579 419.34 220.579C418.19 220.579 417.257 221.512 417.257 222.662C417.257 223.812 418.19 224.744 419.34 224.744Z" fill="black"/>
<path opacity="0.1" d="M438.055 346.769C438.055 346.769 446.603 347.432 447.452 348.094C448.3 348.757 438.055 346.769 438.055 346.769Z" fill="black" stroke="#4D8AF0" stroke-miterlimit="10"/>
<path opacity="0.1" d="M387.163 340.05C387.163 340.05 388.978 342.318 388.206 343.362C387.435 344.405 387.163 340.05 387.163 340.05Z" fill="black" stroke="#4D8AF0" stroke-miterlimit="10"/>
<path opacity="0.1" d="M389.341 348.23C389.341 348.23 392.653 346.052 393.978 347.5C395.303 348.947 389.341 348.23 389.341 348.23Z" fill="black" stroke="#4D8AF0" stroke-miterlimit="10"/>
<path opacity="0.1" d="M430.583 136.897C430.585 138.032 430.442 139.162 430.156 140.259C429.877 140.132 429.642 139.922 429.485 139.657C429.328 139.393 429.255 139.087 429.276 138.78C429.335 138.24 429.694 137.746 429.616 137.21C429.503 136.385 428.505 136.049 427.979 135.396C427.33 134.606 427.47 133.458 427.525 132.437C427.579 131.417 427.321 130.169 426.363 129.82C426.078 129.715 425.764 129.706 425.488 129.588C424.735 129.271 424.503 128.336 424 127.692C422.992 126.394 420.991 126.421 419.462 127.038C418.797 127.357 418.115 127.642 417.421 127.891C417.073 128.014 416.703 128.063 416.336 128.036C415.968 128.009 415.61 127.905 415.284 127.732C414.984 127.542 414.744 127.279 414.435 127.088C413.41 126.471 412.067 127.088 411.178 127.882C410.288 128.676 409.576 129.742 408.455 130.228C407.952 130.455 407.33 130.591 407.094 131.081C406.978 131.348 406.928 131.639 406.949 131.929C406.949 133.694 407.158 135.486 406.79 137.215C406.554 138.327 405.774 139.588 404.644 139.452C404.504 139.431 404.365 139.396 404.231 139.347C403.891 137.53 403.934 135.662 404.357 133.862C404.779 132.063 405.573 130.371 406.686 128.895C407.8 127.419 409.209 126.192 410.824 125.292C412.438 124.391 414.223 123.838 416.064 123.666C417.904 123.494 419.76 123.708 421.514 124.294C423.267 124.881 424.879 125.826 426.246 127.071C427.613 128.315 428.706 129.831 429.454 131.521C430.203 133.212 430.59 135.04 430.592 136.888L430.583 136.897Z" fill="black"/>
<path d="M403.637 138.594C403.977 138.671 404.3 138.848 404.649 138.894C405.779 139.03 406.559 137.769 406.795 136.657C407.162 134.928 406.972 133.136 406.958 131.371C406.933 131.081 406.981 130.789 407.099 130.523C407.358 130.033 407.979 129.897 408.46 129.67C409.558 129.18 410.275 128.136 411.182 127.324C412.09 126.512 413.41 125.913 414.435 126.53C414.739 126.712 414.984 126.984 415.284 127.174C415.611 127.345 415.97 127.447 416.338 127.474C416.706 127.501 417.076 127.453 417.425 127.333C418.129 127.125 418.786 126.757 419.462 126.48C420.978 125.863 422.983 125.841 424 127.129C424.503 127.778 424.735 128.708 425.488 129.026C425.764 129.144 426.078 129.157 426.363 129.262C427.321 129.62 427.566 130.859 427.525 131.879C427.484 132.9 427.348 134.048 427.979 134.838C428.505 135.482 429.503 135.818 429.616 136.652C429.689 137.188 429.335 137.687 429.276 138.222C429.263 138.421 429.289 138.621 429.353 138.81C429.417 138.999 429.518 139.173 429.651 139.322C429.783 139.472 429.943 139.593 430.123 139.68C430.302 139.767 430.497 139.817 430.696 139.828C431.876 139.828 432.606 138.508 433.709 138.086C434.163 137.909 434.712 137.882 435.07 137.524C435.203 137.351 435.297 137.152 435.346 136.94C435.395 136.727 435.396 136.507 435.351 136.294C435.129 134.556 433.736 133.045 433.886 131.303C434.026 129.634 435.574 128.177 435.247 126.535C435.081 125.929 434.769 125.373 434.34 124.915C433.853 124.256 433.219 123.72 432.488 123.35C431.858 123.077 431.127 123.014 430.551 122.683C428.836 121.744 428.841 119.294 427.829 117.624C427.395 116.934 426.779 116.377 426.049 116.013C425.319 115.65 424.503 115.495 423.691 115.564C422.416 115.691 421.259 116.367 419.998 116.594C418.269 116.903 416.518 116.335 414.88 115.687C413.242 115.038 411.586 114.325 409.83 114.325C408.074 114.325 406.173 115.233 405.638 116.893C405.357 117.801 405.497 118.772 405.28 119.684C404.898 121.303 403.465 122.456 402.022 123.259C401.028 123.812 399.835 124.448 399.717 125.577C399.64 126.294 400.035 126.939 400.284 127.633C400.709 128.807 400.699 130.095 400.257 131.262C399.926 132.12 399.372 132.873 399.037 133.726C398.798 134.305 398.686 134.928 398.706 135.554C398.726 136.179 398.879 136.793 399.154 137.356C399.366 137.766 399.659 138.128 400.015 138.421C400.372 138.713 400.785 138.93 401.228 139.057C402.122 139.27 402.684 138.386 403.637 138.594Z" fill="#3F3D56"/>
<g opacity="0.1">
<path opacity="0.1" d="M406.795 135.668C406.559 136.78 405.774 138.041 404.644 137.905C404.295 137.859 403.977 137.682 403.633 137.605C402.684 137.397 402.122 138.286 401.228 138.059C400.784 137.932 400.371 137.715 400.013 137.423C399.656 137.13 399.362 136.768 399.15 136.358C398.913 135.896 398.769 135.392 398.728 134.874C398.638 135.677 398.784 136.49 399.15 137.211C399.362 137.621 399.656 137.983 400.013 138.276C400.371 138.568 400.784 138.785 401.228 138.912C402.135 139.121 402.684 138.231 403.633 138.458C403.965 138.574 404.302 138.672 404.644 138.753C405.774 138.894 406.559 137.632 406.795 136.521C406.981 135.539 407.054 134.539 407.013 133.54C407.008 134.255 406.935 134.967 406.795 135.668Z" fill="black"/>
<path opacity="0.1" d="M400.579 128.835C400.637 128.092 400.535 127.344 400.28 126.644C400.074 126.178 399.9 125.699 399.758 125.21C399.738 125.286 399.723 125.363 399.713 125.441C399.635 126.154 400.035 126.802 400.28 127.497C400.438 127.928 400.539 128.378 400.579 128.835Z" fill="black"/>
<path opacity="0.1" d="M435.242 126.444C435.029 127.733 433.986 128.944 433.881 130.301C433.856 130.533 433.856 130.767 433.881 130.999C434.108 129.416 435.51 128.014 435.242 126.444Z" fill="black"/>
<path opacity="0.1" d="M435.32 136.017C435.281 136.207 435.192 136.383 435.061 136.525C434.725 136.884 434.154 136.911 433.7 137.088C432.597 137.51 431.885 138.844 430.687 138.83C430.381 138.813 430.086 138.703 429.843 138.515C429.6 138.327 429.42 138.07 429.326 137.778C429.298 137.876 429.277 137.976 429.263 138.077C429.25 138.276 429.276 138.475 429.341 138.663C429.405 138.851 429.507 139.025 429.639 139.174C429.771 139.323 429.931 139.444 430.11 139.531C430.289 139.617 430.484 139.668 430.683 139.679C431.867 139.679 432.593 138.358 433.695 137.941C434.149 137.764 434.703 137.737 435.056 137.378C435.19 137.206 435.284 137.007 435.332 136.795C435.381 136.582 435.383 136.362 435.338 136.149C435.333 136.094 435.324 136.058 435.32 136.017Z" fill="black"/>
<path opacity="0.1" d="M429.63 135.641C429.517 134.815 428.518 134.479 427.992 133.826C427.669 133.397 427.494 132.875 427.493 132.338C427.457 133.182 427.47 134.044 427.992 134.679C428.514 135.314 429.308 135.586 429.562 136.24C429.626 136.047 429.649 135.843 429.63 135.641Z" fill="black"/>
<path opacity="0.1" d="M427.52 130.89C427.557 129.87 427.312 128.622 426.354 128.272C426.073 128.168 425.76 128.155 425.483 128.041C424.73 127.723 424.494 126.789 423.995 126.145C422.983 124.852 420.982 124.874 419.458 125.491C418.777 125.768 418.129 126.136 417.421 126.344C417.073 126.467 416.703 126.516 416.336 126.489C415.968 126.461 415.61 126.358 415.284 126.185C414.984 125.995 414.739 125.732 414.435 125.541C413.405 124.924 412.062 125.541 411.178 126.335C410.293 127.129 409.576 128.191 408.455 128.681C407.947 128.908 407.33 129.044 407.067 129.534C406.952 129.801 406.903 130.092 406.926 130.382C406.926 130.559 406.926 130.736 406.926 130.913C406.932 130.73 406.977 130.551 407.058 130.387C407.321 129.897 407.938 129.761 408.446 129.534C409.544 129.044 410.261 128 411.169 127.188C412.076 126.376 413.396 125.777 414.426 126.394C414.73 126.576 414.975 126.848 415.275 127.034C415.6 127.208 415.958 127.312 416.326 127.339C416.694 127.366 417.064 127.316 417.412 127.193C418.105 126.946 418.785 126.663 419.449 126.344C420.969 125.727 422.97 125.7 423.986 126.993C424.485 127.637 424.721 128.572 425.474 128.89C425.751 129.007 426.064 129.021 426.345 129.125C427.121 129.416 427.43 130.287 427.498 131.149L427.52 130.89Z" fill="black"/>
</g>
<g opacity="0.1">
<path opacity="0.1" d="M405.175 135.641C405.201 134.888 405.471 134.163 405.944 133.577C406.417 132.99 407.067 132.573 407.798 132.388C409.821 131.893 411.943 131.989 413.914 132.664C418.219 134.089 413.369 139.216 413.369 139.216C413.369 139.216 410.143 142.392 407.135 140.173C406.247 139.502 405.625 138.537 405.379 137.451C405.232 136.859 405.163 136.25 405.175 135.641Z" fill="black"/>
<path opacity="0.1" d="M428.845 135.641C428.819 134.887 428.548 134.162 428.075 133.576C427.601 132.989 426.949 132.572 426.218 132.388C424.196 131.894 422.076 131.99 420.107 132.664C415.801 134.089 420.651 139.216 420.651 139.216C420.651 139.216 423.872 142.392 426.885 140.173C427.774 139.502 428.396 138.537 428.641 137.451C428.788 136.859 428.857 136.25 428.845 135.641Z" fill="black"/>
<path opacity="0.1" d="M413.101 132.247V132.46H420.964V132.206L413.101 132.247Z" fill="black"/>
<path opacity="0.1" d="M415.61 134.52H415.86V133.799C415.86 133.799 416.659 133.177 417.983 133.799V134.443H418.437V134.021H418.215C418.215 134.021 418.306 133.145 416.826 133.286C416.826 133.286 415.638 133.172 415.665 133.926H415.393L415.61 134.52Z" fill="black"/>
</g>
<path d="M405.175 135.346C405.201 134.593 405.471 133.868 405.944 133.282C406.417 132.695 407.067 132.278 407.798 132.093C409.821 131.601 411.943 131.697 413.914 132.369C418.219 133.799 413.369 138.921 413.369 138.921C413.369 138.921 410.143 142.097 407.135 139.878C406.245 139.208 405.622 138.243 405.379 137.156C405.232 136.564 405.163 135.956 405.175 135.346Z" fill="#333A56"/>
<path d="M428.845 135.346C428.819 134.592 428.548 133.867 428.075 133.281C427.601 132.694 426.949 132.277 426.218 132.093C424.196 131.601 422.076 131.697 420.107 132.369C415.801 133.799 420.651 138.921 420.651 138.921C420.651 138.921 423.872 142.097 426.885 139.878C427.775 139.208 428.398 138.243 428.641 137.156C428.789 136.564 428.857 135.956 428.845 135.346Z" fill="#333A56"/>
<path d="M413.101 131.961V132.179H420.964V131.92L413.101 131.961Z" fill="#333A56"/>
<path d="M415.61 134.234H415.86V133.513C415.86 133.513 416.659 132.896 417.983 133.513V134.162H418.437V133.735H418.215C418.215 133.735 418.306 132.864 416.826 133C416.826 133 415.638 132.891 415.665 133.64H415.393L415.61 134.234Z" fill="#333A56"/>
<path d="M55.8697 207.431H53.2926V265.46H55.8697V207.431Z" fill="#535461"/>
<path d="M72.067 265.283L71.9037 267.897L71.6768 271.585L71.5816 273.123L71.3547 276.817L71.2549 278.355L71.028 282.043L68.4283 323.998C68.3174 325.803 67.522 327.498 66.2043 328.738C64.8866 329.977 63.1458 330.667 61.3368 330.667H47.8254C46.0169 330.667 44.2766 329.977 42.9597 328.737C41.6427 327.498 40.8482 325.803 40.7385 323.998L38.1251 282.043L37.8982 278.355L37.803 276.817L37.5806 273.114L37.4854 271.576L37.2585 267.888L37.0952 265.274C37.0642 264.773 37.1363 264.27 37.307 263.797C37.4777 263.325 37.7434 262.892 38.0877 262.526C38.4321 262.16 38.8477 261.868 39.3091 261.669C39.7704 261.47 40.2677 261.367 40.7702 261.368H68.3965C68.8997 261.367 69.3976 261.47 69.8593 261.67C70.3211 261.87 70.7369 262.162 71.081 262.529C71.4251 262.897 71.6902 263.33 71.8598 263.804C72.0294 264.278 72.0999 264.781 72.067 265.283Z" fill="#3F3D56"/>
<path d="M71.9037 267.897L71.6768 271.585H37.4808L37.254 267.897H71.9037Z" fill="#9D9CB5"/>
<path d="M71.5816 273.123L71.3547 276.817H37.8075L37.5761 273.123H71.5816Z" fill="#9D9CB5"/>
<path d="M71.2549 278.355L71.028 282.043H38.1342L37.9028 278.355H71.2549Z" fill="#9D9CB5"/>
<path d="M33.3204 229.182C48.329 240.039 54.5811 257.026 54.5811 257.026C54.5811 257.026 36.4918 256.404 21.4604 245.547C6.42906 234.69 0.199646 217.703 0.199646 217.703C0.199646 217.703 18.3071 218.324 33.3204 229.182Z" fill="#4D8AF0"/>
<path d="M0.222321 217.703C0.222321 217.703 18.9968 228.138 25.0175 236.759C31.0382 245.379 54.5811 257.03 54.5811 257.03" stroke="#535461" stroke-width="2" stroke-miterlimit="10"/>
<path d="M43.007 207.327C51.1737 213.225 54.5811 222.48 54.5811 222.48C54.5811 222.48 44.7356 222.145 36.5643 216.233C28.393 210.321 24.9948 201.079 24.9948 201.079C24.9948 201.079 34.8402 201.392 43.007 207.327Z" fill="#4D8AF0"/>
<path d="M24.9948 201.056C24.9948 201.056 35.2123 206.728 38.4881 211.424C41.7638 216.119 54.5811 222.458 54.5811 222.458" stroke="#535461" stroke-width="2" stroke-miterlimit="10"/>
<path d="M66.4547 221.99C57.0675 232.303 55.0847 245.778 55.0847 245.778C55.0847 245.778 68.3149 242.534 77.6976 232.222C87.0803 221.909 89.0675 208.429 89.0675 208.429C89.0675 208.429 75.8374 211.673 66.4547 221.99Z" fill="#4D8AF0"/>
<path d="M89.0675 208.429C89.0675 208.429 76.8446 219 73.7367 226.287C70.6288 233.574 55.0847 245.797 55.0847 245.797" stroke="#535461" stroke-width="2" stroke-miterlimit="10"/>
</g>
<defs>
<linearGradient id="paint0_linear" x1="268.278" y1="293.132" x2="268.278" y2="48.8871" gradientUnits="userSpaceOnUse">
<stop stop-color="#808080" stop-opacity="0.25"/>
<stop offset="0.54" stop-color="#808080" stop-opacity="0.12"/>
<stop offset="1" stop-color="#808080" stop-opacity="0.1"/>
</linearGradient>
<linearGradient id="paint1_linear" x1="83497.5" y1="219337" x2="83497.5" y2="74316.5" gradientUnits="userSpaceOnUse">
<stop stop-color="#808080" stop-opacity="0.25"/>
<stop offset="0.54" stop-color="#808080" stop-opacity="0.12"/>
<stop offset="1" stop-color="#808080" stop-opacity="0.1"/>
</linearGradient>
<clipPath id="clip0">
<rect width="519.755" height="372" fill="white"/>
</clipPath>
</defs>
</svg>
