<svg width="554" height="412" viewBox="0 0 554 412" fill="none" xmlns="http://www.w3.org/2000/svg">
<g clip-path="url(#clip0)">
<path opacity="0.1" d="M321.38 57.6409C285.919 56.7258 252.146 48.2222 219.895 38.9186C187.645 29.615 155.701 19.2867 121.09 14.3555C98.8277 11.1831 73.366 10.7338 55.4327 19.6045C38.1679 28.1301 32.5901 42.8471 29.593 56.545C27.3356 66.8294 26.0096 77.6508 32.1901 87.2776C36.4858 93.9622 44.1018 99.5784 49.3727 105.984C67.7115 128.262 54.7478 155.729 34.8804 177.481C25.5658 187.683 14.7444 197.414 7.5503 208.279C0.356161 219.145 -2.96969 231.582 3.32587 242.667C9.56116 253.625 24.4261 261.893 40.5294 267.695C73.2345 279.481 111.758 282.851 149.351 284.763C232.541 288.993 316.17 287.157 399.579 285.311C430.448 284.632 461.45 283.947 491.815 280.38C508.68 278.413 526.087 275.284 538.333 267.739C553.872 258.162 557.724 241.943 547.308 229.933C529.84 209.786 481.558 204.778 469.334 183.157C462.617 171.257 469.515 158.003 479.284 146.962C500.237 123.287 535.353 102.515 537.199 75.4481C538.47 56.8628 521.589 38.2446 495.486 29.4506C468.129 20.2346 430.185 21.3907 410.011 36.6502C389.218 52.3809 352.694 58.4299 321.38 57.6409Z" fill="#4D8AF0"/>
<g opacity="0.8">
<path opacity="0.8" d="M514.367 97.9564C514.367 97.9564 508.187 95.4469 488.528 104.466C468.868 113.484 466.414 112.339 461.323 110.958C456.233 109.578 453.395 109.254 447.938 101.726C447.938 101.726 444.102 80.8669 440.366 77.6178C436.629 74.3686 420.816 79.4642 420.816 79.4642C420.816 79.4642 401.847 83.8256 398.209 58.4626C398.209 58.4626 400.773 39.3513 397.278 33.4831C397.278 33.4831 404.335 36.524 415.972 31.6147C427.61 26.7054 436.925 36.9076 436.925 36.9076C436.925 36.9076 439.862 44.5072 439.555 49.033C439.248 53.5588 441.105 55.2683 446.678 53.0766C446.678 53.0766 449.417 49.1973 445.544 42.7867C441.67 36.3761 438.925 31.5983 440.004 26.6177C441.083 21.6372 444.179 14.7389 454.135 11.2761C464.09 7.81323 477.619 7.16669 484.111 4.49286C490.604 1.81903 492.171 0.0273438 492.171 0.0273438C492.171 0.0273438 488.177 4.03261 497.59 20.9961C507.003 37.9596 501.004 45.3291 501.004 45.3291C501.004 45.3291 495.996 57.2627 473.893 56.2874C473.893 56.2874 452.595 57.0654 464.206 66.0951C464.206 66.0951 471.641 64.5828 482.763 61.0488C493.886 57.5147 501.902 72.1002 503.897 82.2476C505.891 92.3951 514.367 97.9564 514.367 97.9564Z" fill="#4D8AF0"/>
<path opacity="0.8" d="M485.744 12.8705L485.859 12.8376C486.714 16.0758 477.197 29.0834 469.06 39.428L468.967 39.3568C480.44 24.7658 486.423 15.3581 485.744 12.8705Z" fill="#444053"/>
<path opacity="0.8" d="M469.131 39.1431L469.181 39.2746C462.682 47.5371 454.507 57.3996 447.965 64.7034C447.341 65.3992 446.722 66.1279 446.13 66.895L445.938 66.7471C446.541 65.9964 447.16 65.2622 447.785 64.5554C454.327 57.2407 462.639 47.4002 469.131 39.1431Z" fill="#444053"/>
<path opacity="0.8" d="M446.097 66.5278L446.228 66.747C434.322 81.612 433.533 104.69 433.506 104.893L430.996 102.022C431.024 101.792 434.109 81.4914 446.097 66.5278Z" fill="#444053"/>
<path opacity="0.8" d="M500.565 89.8964C500.565 89.8964 486.528 82.5982 475.586 85.2172C464.644 87.8363 440.015 75.9574 440.015 75.9574C440.015 75.9574 429.555 71.7111 427.451 66.8675C427.451 66.8675 420.279 59.2789 419.868 55.3613C419.457 51.4437 412.455 41.5593 407.918 41.2031" stroke="#444053" stroke-miterlimit="10"/>
<path opacity="0.8" d="M498.533 96.9208C498.533 96.9208 491.464 92.1594 492.286 86.6035" stroke="#444053" stroke-miterlimit="10"/>
<path opacity="0.8" d="M487.689 103.074C487.689 103.074 477.575 99.4029 476.561 84.9927" stroke="#444053" stroke-miterlimit="10"/>
<path opacity="0.8" d="M471.372 106.8C471.372 106.8 461.707 98.7836 464.918 84.7734" stroke="#444053" stroke-miterlimit="10"/>
<path opacity="0.8" d="M451.762 102.882C451.762 102.882 445.33 89.387 451.056 80.6094" stroke="#444053" stroke-miterlimit="10"/>
<path opacity="0.8" d="M500.73 80.9985C500.73 80.9985 493.415 83.3217 494.988 87.1681" stroke="#444053" stroke-miterlimit="10"/>
<path opacity="0.8" d="M491.903 67.728C491.903 67.728 482.117 70.8292 481.887 84.6751" stroke="#444053" stroke-miterlimit="10"/>
<path opacity="0.8" d="M478.26 64.5337C478.26 64.5337 469.356 75.5249 469.986 85.5134" stroke="#444053" stroke-miterlimit="10"/>
<path opacity="0.8" d="M462.666 68.8457C462.666 68.8457 453.817 77.3 454.946 81.9957" stroke="#444053" stroke-miterlimit="10"/>
<path opacity="0.8" d="M457.329 65.8594C457.329 65.8594 449.034 67.3442 447.878 64.6211" stroke="#444053" stroke-miterlimit="10"/>
<path opacity="0.8" d="M446.552 55.8438C446.552 55.8438 450.743 61.3941 451.823 60.1504" stroke="#444053" stroke-miterlimit="10"/>
<path opacity="0.8" d="M488.095 52.3316C488.095 52.3316 467.186 53.8494 462.458 47.5483" stroke="#444053" stroke-miterlimit="10"/>
<path opacity="0.8" d="M442.152 27.8779C442.152 27.8779 451.965 48.9343 459.088 51.6191" stroke="#444053" stroke-miterlimit="10"/>
<path opacity="0.8" d="M452.453 17.8457C452.453 17.8457 458.48 37.2145 465.942 43.2635" stroke="#444053" stroke-miterlimit="10"/>
<path opacity="0.8" d="M496.894 36.3488C496.894 36.3488 481.005 43.1703 471.449 36.2666" stroke="#444053" stroke-width="0.75" stroke-miterlimit="10"/>
<path opacity="0.8" d="M466.611 13.7144C466.611 13.7144 470.244 27.9602 475.137 31.3956" stroke="#444053" stroke-width="0.75" stroke-miterlimit="10"/>
<path opacity="0.8" d="M494.494 20.3826C494.494 20.3826 485.558 23.7632 482.221 21.1716" stroke="#444053" stroke-width="0.75" stroke-miterlimit="10"/>
<path opacity="0.8" d="M438.897 60.4951C438.897 60.4951 438.897 72.9054 435.517 73.7876" stroke="#444053" stroke-miterlimit="10"/>
<path opacity="0.8" d="M411.271 76.5768C411.271 76.5768 424.695 77.7274 430.881 70.8018" stroke="#444053" stroke-miterlimit="10"/>
<path opacity="0.8" d="M435.435 45.833C435.435 45.833 432.191 58.4351 423.232 61.8102" stroke="#444053" stroke-miterlimit="10"/>
<path opacity="0.8" d="M403.222 63.317C403.222 63.317 412.723 66.6045 420.893 58.2104" stroke="#444053" stroke-miterlimit="10"/>
<path opacity="0.8" d="M424.876 35.0117C424.876 35.0117 423.978 45.7016 418.164 50.704" stroke="#444053" stroke-miterlimit="10"/>
<path opacity="0.8" d="M403.584 47.0276C403.584 47.0276 411.469 47.0769 413.315 44.5127" stroke="#444053" stroke-miterlimit="10"/>
</g>
<path opacity="0.1" d="M144.031 411.151C209.999 411.151 263.476 407.349 263.476 402.658C263.476 397.968 209.999 394.166 144.031 394.166C78.0627 394.166 24.585 397.968 24.585 402.658C24.585 407.349 78.0627 411.151 144.031 411.151Z" fill="#4D8AF0"/>
<path d="M213.227 356.419C214.871 353.466 216.838 350.683 218.427 347.691C219.879 344.952 221.013 342.048 222.322 339.231C224.563 334.41 227.325 329.851 229.84 325.161C231.484 322.087 233.073 318.739 232.755 315.265C232.453 311.978 230.525 309.129 229.78 305.951C226.744 292.905 219.44 280.928 214.986 268.309C213.846 265.109 212.739 261.887 211.315 258.797C208.575 252.852 204.74 247.51 200.904 242.212C199.522 240.188 197.983 238.275 196.302 236.492C194.927 235.116 193.382 233.905 192.132 232.415C189.557 229.347 188.352 224.931 185.13 222.553C185.075 222.695 185.015 222.832 184.955 222.974C182.648 217.084 174.911 213.2 170.424 208.318C167.811 205.336 165.408 202.178 163.23 198.866L153.46 184.746C151.778 182.314 150.063 179.815 149.384 176.917C148.551 173.421 149.324 169.695 148.502 166.199C147.976 164.095 146.952 162.148 145.516 160.523C145.609 160.496 145.707 160.457 145.806 160.435C147.669 159.937 149.641 159.849 151.488 159.405C155.515 158.446 159.016 155.871 163.027 154.841C165.076 154.293 167.262 154.184 169.12 153.197C170.023 152.657 170.736 151.848 171.158 150.884C171.58 149.919 171.691 148.847 171.476 147.817C170.177 140.94 173.804 133.971 173.191 126.996C173.026 125.067 172.533 123.188 172.216 121.276C171.476 116.838 171.613 112.29 171.876 107.786C173.126 105.756 174.626 103.892 176.341 102.236C178.807 99.8577 181.749 97.8523 183.464 94.8771C184.96 92.2417 185.322 89.0583 184.944 86.0447C184.675 83.8531 183.93 81.5463 182.204 80.2149C180.478 78.8835 178.002 78.7848 175.914 79.4807C175.624 79.5738 175.339 79.6889 175.059 79.8095C174.187 79.3728 173.234 79.1184 172.26 79.0619C171.286 79.0053 170.311 79.1479 169.394 79.4807C167.312 80.1711 165.525 81.5463 163.849 82.9764C162.855 83.7557 161.983 84.679 161.263 85.716C160.205 87.3597 159.898 89.387 159.498 91.3212C158.648 95.0549 157.408 98.6892 155.8 102.164C155.504 102.778 154.704 103.879 154.058 104.931L152.885 104.69C152.375 109.572 148.288 113.156 145.8 117.375C144.59 119.424 143.74 121.665 142.65 123.785C141.406 126.093 140.017 128.321 138.491 130.453C137.012 132.645 135.531 134.817 134.048 136.968C132.189 139.794 130.177 142.515 128.021 145.121C126.01 144.957 123.999 144.809 121.994 144.776C118.628 144.728 115.266 145.027 111.961 145.669C111.769 144.507 111.65 143.334 111.605 142.157C111.605 142.086 111.605 142.014 111.605 141.943C111.605 141.658 111.638 141.319 111.676 140.951C114.524 139.044 116.842 136.446 118.413 133.4C119.984 130.354 120.757 126.96 120.66 123.534C120.564 120.108 119.6 116.762 117.859 113.81C116.118 110.858 113.657 108.395 110.706 106.652C110.815 106.036 110.885 105.414 110.915 104.789C110.915 104.422 110.915 104.049 110.915 103.693C110.915 103.507 110.915 103.321 110.876 103.145C110.842 102.776 110.78 102.409 110.69 102.049C110.646 101.874 110.597 101.699 110.537 101.501C110.42 101.158 110.268 100.827 110.082 100.515C110.07 100.496 110.058 100.478 110.043 100.46C109.972 100.345 109.901 100.23 109.819 100.121C109.737 100.011 109.748 100.033 109.715 99.9892C109.657 99.909 109.595 99.8322 109.528 99.7591L109.391 99.6166C109.331 99.5509 109.271 99.4851 109.205 99.4249L109.052 99.2879L108.86 99.118L108.685 98.9865L108.487 98.8386L108.296 98.7126L108.098 98.5865C108.033 98.5427 107.961 98.5043 107.89 98.466L107.687 98.3509L107.468 98.2413L107.266 98.1427L107.024 98.0386L106.827 97.951L106.564 97.8523L106.378 97.7811L106.093 97.6825L105.923 97.6277L105.611 97.5291L105.463 97.4852L105.123 97.3921L104.992 97.3537L104.636 97.2661L104.531 97.2387L104.137 97.151H104.071L103.49 97.025C101.091 96.5319 98.676 96.1063 96.2469 95.7483C94.258 95.4525 92.2197 95.2004 90.2582 95.6442C87.5515 96.2469 85.2941 98.077 82.7627 99.2112C79.7711 100.559 76.4507 100.915 73.2619 101.655C70.073 102.395 66.791 103.66 64.7911 106.274C63.2679 108.268 62.6597 110.805 62.2049 113.276C58.4133 133.9 62.5008 155.055 63.2733 176.018C63.5747 184.177 63.2076 192.899 58.5832 199.578L72.051 199.222C72.6975 199.222 73.3495 199.184 74.007 199.146C74.6645 199.107 75.322 199.058 75.9686 198.981C77.6766 198.821 79.3359 198.324 80.8505 197.518C81.5519 197.119 82.1922 196.621 82.7518 196.039C84.5818 194.154 85.5571 191.519 86.4502 188.998C86.7515 188.149 87.0529 187.289 87.3214 186.423C87.431 186.061 87.5351 185.7 87.6282 185.327L87.6721 185.152L87.8255 185.223C88.3734 186.253 88.9925 187.261 89.65 188.237C92.0006 191.699 94.9813 194.658 97.94 197.6C103.819 203.436 109.83 209.375 117.199 213.123C119.687 214.378 122.377 215.435 124.273 217.506C125.204 218.509 126.01 219.797 127.33 220.142C128.152 220.355 129.056 220.142 129.84 220.492C130.99 220.975 131.412 222.361 131.944 223.5C132.475 224.64 133.675 225.802 134.815 225.281C134.601 226.339 134.689 227.436 135.069 228.447C135.449 229.457 136.105 230.34 136.963 230.996C137.515 231.302 137.99 231.729 138.354 232.245C138.53 232.716 138.626 233.212 138.639 233.714C138.873 235.113 139.612 236.378 140.716 237.27C139.647 239.039 140.502 241.576 140.53 243.784C140.53 245.636 139.921 247.422 139.505 249.225C138.294 254.512 138.957 260.046 139.943 265.378C140.491 268.32 141.187 271.366 143.105 273.651C143.729 274.391 144.475 275.032 145.132 275.75C146.387 277.164 147.43 278.753 148.228 280.467C149.891 283.862 151.023 287.491 151.586 291.228C151.851 293.104 152.386 294.931 153.175 296.653C154.375 299.272 153.28 302.494 154.353 305.167C154.841 306.367 155.74 307.392 156.03 308.647C156.441 310.471 155.482 312.296 155.225 314.153C154.6 318.504 157.74 322.542 158.024 326.925C158.071 327.182 158.016 327.447 157.871 327.665C157.657 327.906 157.29 327.9 157 328.037C156.452 328.3 156.304 329.04 156.129 329.654C155.953 330.267 155.46 330.963 154.852 330.777C145.85 335.593 136.53 340.042 127.527 344.858L123.418 347.05L101.441 358.792C101.174 358.924 100.95 359.129 100.794 359.383C100.638 359.637 100.557 359.93 100.559 360.227C100.559 360.49 100.592 360.775 100.614 361.022C99.0742 361.405 97.5948 361.866 96.5428 362.057C96.11 362.14 95.6771 362.222 95.2497 362.315C95.3537 362.148 95.4209 361.962 95.447 361.767C95.4488 361.497 95.3508 361.236 95.1718 361.034C94.9928 360.831 94.7454 360.702 94.4772 360.671C93.9404 360.618 93.3985 360.689 92.8937 360.879C91.6374 361.223 90.3544 361.459 89.0583 361.586C87.5186 361.734 85.9516 361.729 84.4613 362.134C82.9709 362.54 81.5025 363.444 80.8998 364.874C80.5983 365.701 80.4642 366.58 80.5053 367.46C80.4719 370.847 80.8734 374.224 81.6998 377.509C81.7128 377.639 81.7557 377.765 81.8251 377.876C81.8944 377.987 81.9884 378.081 82.0997 378.15C82.2915 378.226 82.5216 378.15 82.7134 378.237C82.8822 378.34 83.0086 378.499 83.0696 378.687C83.99 380.78 84.2037 383.114 84.4503 385.393C84.8156 388.772 85.2777 392.142 85.8365 395.502C86.1653 397.464 86.5707 399.513 87.8474 401.025C89.25 402.669 91.4691 403.398 93.6115 403.688C98.1318 404.296 102.696 403.381 107.156 402.444C107.989 402.269 108.882 402.055 109.441 401.409C109.849 400.893 110.045 400.24 109.989 399.584C109.885 397.332 107.835 395.749 105.972 394.483L103.43 392.724C103.213 392.609 103.041 392.424 102.942 392.2C102.843 391.975 102.822 391.724 102.882 391.486L103.047 388.16H102.553C103.101 385.815 103.984 383.563 105.709 381.952C106.898 380.856 108.449 380.089 109.693 379.092C111.289 380.319 113.222 381.029 115.232 381.125C118.52 376.698 123.15 373.684 127.78 370.715C131.54 368.339 135.427 366.17 139.423 364.216C142.659 362.616 145.947 361.117 149.285 359.718C153.997 357.734 158.797 355.965 163.602 354.239C166.808 353.088 170.04 351.954 172.994 350.255C180.664 345.823 186.083 336.974 185.048 328.114C183.744 316.937 186.533 305.288 186.346 294.034C186.291 290.746 186.171 287.459 185.174 284.308C185.406 284.473 185.624 284.656 185.826 284.856C187.82 286.719 188.302 289.678 190.209 291.804C191.694 293.475 193.951 294.543 194.85 296.582C195.535 298.143 195.436 300.253 196.866 301.151C197.272 301.409 197.754 301.518 198.159 301.77C198.644 302.116 199.053 302.558 199.359 303.069C200.877 305.233 202.45 307.551 202.614 310.192C202.685 311.238 202.587 312.449 203.354 313.156C203.573 313.359 203.852 313.507 203.967 313.781C204.208 314.328 203.573 314.909 203.463 315.518C203.304 316.361 204.137 317.002 204.652 317.709C205.082 318.299 205.313 319.01 205.313 319.739C205.313 320.469 205.082 321.18 204.652 321.769C200.159 327.605 199.348 335.467 195.42 341.708C194.061 343.861 192.549 345.899 191.234 348.08C187.19 354.776 185.146 362.468 183.163 370.046C184.01 371.521 185.158 372.802 186.533 373.805C185.79 376.356 184.51 378.72 182.779 380.736C182.337 381.229 181.924 381.747 181.541 382.287C181.22 381.88 180.799 381.563 180.319 381.366C179.599 384.512 179.231 387.728 179.223 390.955C179.223 393.08 179.514 395.508 181.24 396.735C181.929 397.169 182.686 397.482 183.481 397.661L187.239 398.757C187.901 399.01 188.618 399.08 189.316 398.96C189.76 398.834 190.154 398.56 190.609 398.472C191.103 398.421 191.602 398.487 192.067 398.664L195.316 399.612C196.414 399.904 197.488 400.283 198.526 400.746C199.452 401.19 200.307 401.765 201.217 402.258C202.729 403.022 204.299 403.667 205.912 404.187L211.512 406.115C213.072 406.734 214.703 407.157 216.367 407.376C217.517 407.474 218.684 407.376 219.818 407.573C220.684 407.721 221.522 408.033 222.394 408.121C223.839 408.164 225.261 407.741 226.448 406.915C226.912 406.653 227.312 406.292 227.621 405.858C228.443 404.576 227.736 402.883 226.936 401.59C225.451 399.19 223.594 396.943 221.144 395.563C220.153 395.015 219.079 394.609 218.054 394.105C215.139 392.681 212.942 390.303 210.186 388.675C209.835 388.425 209.407 388.304 208.977 388.333C208.547 388.362 208.139 388.539 207.825 388.834C205.534 387.349 203.058 385.897 201.798 383.481C201.236 382.315 200.866 381.066 200.702 379.783C201.989 380.089 203.288 380.33 204.597 380.544C206.729 372.282 209.057 363.871 213.227 356.419ZM160.589 122.739C160.479 123.358 160.359 123.971 160.227 124.585C159.131 129.73 157.564 135.494 153.981 139.324C152.802 140.447 151.433 141.35 149.937 141.992L149.537 142.19C152.118 135.297 156.227 128.908 160.589 122.739Z" fill="url(#paint0_linear)"/>
<path d="M165.893 92.22C166.298 90.3077 166.605 88.3024 167.662 86.6531C168.385 85.6162 169.259 84.6929 170.254 83.9136C171.931 82.4945 173.722 81.1301 175.81 80.4398C177.897 79.7494 180.352 79.8425 182.105 81.1685C183.859 82.4945 184.598 84.7793 184.872 86.96C185.245 89.9571 184.872 93.1131 183.388 95.7266C181.689 98.6909 178.741 100.658 176.265 103.036C174.47 104.752 172.91 106.698 171.624 108.822C171.038 109.929 170.329 110.966 169.509 111.912C169.093 112.383 168.572 112.75 167.989 112.983C167.406 113.216 166.776 113.309 166.15 113.254C165.093 113.085 164.232 112.35 163.411 111.649C162.397 110.761 159.668 109.178 159.575 107.77C159.509 106.63 161.641 104.044 162.161 102.976C163.781 99.5319 165.031 95.9267 165.893 92.22Z" fill="#FBBEBE"/>
<path opacity="0.1" d="M165.893 92.22C166.298 90.3077 166.605 88.3024 167.662 86.6531C168.385 85.6162 169.259 84.6929 170.254 83.9136C171.931 82.4945 173.722 81.1301 175.81 80.4398C177.897 79.7494 180.352 79.8425 182.105 81.1685C183.859 82.4945 184.598 84.7793 184.872 86.96C185.245 89.9571 184.872 93.1131 183.388 95.7266C181.689 98.6909 178.741 100.658 176.265 103.036C174.47 104.752 172.91 106.698 171.624 108.822C171.038 109.929 170.329 110.966 169.509 111.912C169.093 112.383 168.572 112.75 167.989 112.983C167.406 113.216 166.776 113.309 166.15 113.254C165.093 113.085 164.232 112.35 163.411 111.649C162.397 110.761 159.668 109.178 159.575 107.77C159.509 106.63 161.641 104.044 162.161 102.976C163.781 99.5319 165.031 95.9267 165.893 92.22Z" fill="black"/>
<path d="M108.361 146.984C112.751 145.817 117.282 145.264 121.824 145.34C129.401 145.45 137.204 147.286 144.42 144.962C146.283 144.316 148.094 143.531 149.839 142.612C151.291 141.889 152.77 141.143 153.882 139.96C157.471 136.157 159.016 130.432 160.139 125.32C161.263 120.208 161.553 114.958 161.843 109.737C163.712 110.608 165.679 111.468 167.75 111.293C169.821 111.118 171.887 109.54 171.876 107.458C171.569 112.296 171.328 117.194 172.144 121.972C172.462 123.868 172.955 125.736 173.125 127.654C173.739 134.579 170.106 141.5 171.405 148.332C171.619 149.357 171.507 150.423 171.085 151.382C170.662 152.34 169.95 153.141 169.049 153.674C167.186 154.677 164.994 154.803 162.945 155.318C158.929 156.343 155.422 158.896 151.389 159.849C149.51 160.293 147.554 160.397 145.702 160.874C143.039 161.575 140.623 163.098 137.911 163.581C135.878 163.942 133.785 163.696 131.73 163.871C129.944 164.019 128.19 164.49 126.399 164.534C122.015 164.644 117.868 162.161 114.953 158.868C112.038 155.576 110.191 150.973 108.361 146.984Z" fill="#4D8AF0"/>
<path opacity="0.1" d="M108.361 146.984C112.751 145.817 117.282 145.264 121.824 145.34C129.401 145.45 137.204 147.286 144.42 144.962C146.283 144.316 148.094 143.531 149.839 142.612C151.291 141.889 152.77 141.143 153.882 139.96C157.471 136.157 159.016 130.432 160.139 125.32C161.263 120.208 161.553 114.958 161.843 109.737C163.712 110.608 165.679 111.468 167.75 111.293C169.821 111.118 171.887 109.54 171.876 107.458C171.569 112.296 171.328 117.194 172.144 121.972C172.462 123.868 172.955 125.736 173.125 127.654C173.739 134.579 170.106 141.5 171.405 148.332C171.619 149.357 171.507 150.423 171.085 151.382C170.662 152.34 169.95 153.141 169.049 153.674C167.186 154.677 164.994 154.803 162.945 155.318C158.929 156.343 155.422 158.896 151.389 159.849C149.51 160.293 147.554 160.397 145.702 160.874C143.039 161.575 140.623 163.098 137.911 163.581C135.878 163.942 133.785 163.696 131.73 163.871C129.944 164.019 128.19 164.49 126.399 164.534C122.015 164.644 117.868 162.161 114.953 158.868C112.038 155.576 110.191 150.973 108.361 146.984Z" fill="black"/>
<path d="M305.409 153.718C312.869 153.718 320.161 155.93 326.364 160.075C332.567 164.22 337.402 170.111 340.256 177.003C343.111 183.896 343.858 191.48 342.402 198.797C340.946 206.114 337.353 212.835 332.078 218.109C326.802 223.384 320.081 226.976 312.764 228.431C305.447 229.886 297.862 229.138 290.97 226.282C284.078 223.427 278.188 218.591 274.044 212.388C269.9 206.184 267.689 198.891 267.69 191.431C267.691 181.428 271.666 171.836 278.739 164.763C285.813 157.691 295.406 153.718 305.409 153.718ZM305.409 144.403C296.106 144.403 287.012 147.162 279.278 152.33C271.543 157.499 265.515 164.844 261.955 173.439C258.395 182.033 257.464 191.491 259.28 200.614C261.095 209.738 265.575 218.118 272.153 224.696C278.731 231.273 287.112 235.752 296.236 237.567C305.36 239.381 314.817 238.449 323.411 234.888C332.005 231.327 339.35 225.298 344.518 217.563C349.685 209.827 352.443 200.733 352.442 191.431C352.427 178.962 347.467 167.008 338.65 158.191C329.832 149.375 317.878 144.416 305.409 144.403Z" fill="#3F3D56"/>
<path d="M309.469 133.401H298.445V145.006H309.469V133.401Z" fill="#3F3D56"/>
<path d="M338.581 143.786L329.132 138.108L323.155 148.056L332.604 153.734L338.581 143.786Z" fill="#3F3D56"/>
<path d="M357.96 166.754L352.615 157.112L342.465 162.738L347.81 172.38L357.96 166.754Z" fill="#3F3D56"/>
<path d="M352.471 225.434L358.312 216.085L348.471 209.935L342.629 219.284L352.471 225.434Z" fill="#3F3D56"/>
<path d="M263.01 172.376L268.355 162.734L258.205 157.108L252.86 166.75L263.01 172.376Z" fill="#3F3D56"/>
<path d="M268.193 219.28L262.351 209.931L252.509 216.081L258.351 225.43L268.193 219.28Z" fill="#3F3D56"/>
<path d="M278.21 153.733L287.66 148.055L281.683 138.108L272.233 143.786L278.21 153.733Z" fill="#3F3D56"/>
<path d="M309.469 237.856H298.445V249.461H309.469V237.856Z" fill="#3F3D56"/>
<path d="M332.606 229.131L323.156 234.809L329.133 244.756L338.583 239.079L332.606 229.131Z" fill="#3F3D56"/>
<path d="M272.235 239.079L281.684 244.757L287.661 234.81L278.212 229.132L272.235 239.079Z" fill="#3F3D56"/>
<path d="M259.57 186.79H246.223V196.653H259.57V186.79Z" fill="#3F3D56"/>
<path d="M351.247 196.653H364.594V186.79H351.247V196.653Z" fill="#3F3D56"/>
<path d="M393.031 85.8258C400.491 85.8258 407.784 88.0381 413.987 92.1829C420.19 96.3277 425.024 102.219 427.879 109.111C430.734 116.004 431.48 123.588 430.025 130.905C428.569 138.222 424.976 144.943 419.7 150.217C414.425 155.492 407.703 159.084 400.386 160.539C393.069 161.994 385.485 161.246 378.593 158.39C371.701 155.534 365.811 150.699 361.667 144.496C357.523 138.292 355.312 130.999 355.313 123.539C355.314 113.536 359.289 103.944 366.362 96.8714C373.436 89.799 383.029 85.8258 393.031 85.8258ZM393.031 76.5112C383.729 76.5112 374.635 79.2698 366.9 84.4381C359.166 89.6064 353.137 96.9523 349.578 105.547C346.018 114.141 345.087 123.598 346.902 132.722C348.717 141.846 353.197 150.226 359.776 156.804C366.354 163.381 374.735 167.86 383.859 169.674C392.983 171.489 402.44 170.556 411.034 166.996C419.628 163.435 426.973 157.406 432.141 149.671C437.308 141.935 440.065 132.841 440.064 123.539C440.05 111.07 435.09 99.1158 426.272 90.2994C417.455 81.483 405.5 76.5243 393.031 76.5112Z" fill="#3F3D56"/>
<path d="M397.091 65.5142H386.067V77.119H397.091V65.5142Z" fill="#3F3D56"/>
<path d="M426.207 75.8902L416.758 70.2124L410.781 80.1597L420.231 85.8375L426.207 75.8902Z" fill="#3F3D56"/>
<path d="M445.585 98.8596L440.241 89.2178L430.091 94.8439L435.436 104.486L445.585 98.8596Z" fill="#3F3D56"/>
<path d="M440.092 157.543L445.934 148.194L436.092 142.044L430.25 151.393L440.092 157.543Z" fill="#3F3D56"/>
<path d="M350.629 104.491L355.974 94.8486L345.824 89.2225L340.48 98.8644L350.629 104.491Z" fill="#3F3D56"/>
<path d="M355.813 151.392L349.971 142.043L340.13 148.193L345.972 157.542L355.813 151.392Z" fill="#3F3D56"/>
<path d="M365.833 85.8385L375.283 80.1606L369.306 70.2133L359.856 75.8911L365.833 85.8385Z" fill="#3F3D56"/>
<path d="M397.091 169.964H386.067V181.569H397.091V169.964Z" fill="#3F3D56"/>
<path d="M420.228 161.241L410.779 166.918L416.756 176.866L426.205 171.188L420.228 161.241Z" fill="#3F3D56"/>
<path d="M359.854 171.185L369.304 176.863L375.281 166.915L365.831 161.238L359.854 171.185Z" fill="#3F3D56"/>
<path d="M347.187 118.898H333.84V128.76H347.187V118.898Z" fill="#3F3D56"/>
<path d="M438.875 128.76H452.223V118.898H438.875V128.76Z" fill="#3F3D56"/>
<path d="M217.764 82.9215C218.208 82.9215 218.651 82.9215 219.095 82.9215C228.981 83.2587 238.34 87.466 245.153 94.6371C251.967 101.808 255.691 111.369 255.523 121.259C255.355 131.15 251.308 140.578 244.254 147.514C237.201 154.449 227.705 158.336 217.813 158.337C217.369 158.337 216.926 158.337 216.476 158.337C206.59 158 197.231 153.792 190.417 146.62C183.604 139.449 179.88 129.887 180.049 119.996C180.218 110.105 184.266 100.676 191.32 93.7416C198.375 86.8068 207.871 82.921 217.764 82.9215ZM217.764 73.6069C205.428 73.6054 193.586 78.4501 184.789 87.097C175.991 95.7439 170.943 107.501 170.732 119.835C170.521 132.168 175.163 144.091 183.659 153.034C192.155 161.977 203.825 167.225 216.153 167.646C216.701 167.646 217.249 167.673 217.797 167.673C230.132 167.673 241.973 162.828 250.769 154.18C259.566 145.533 264.613 133.776 264.823 121.443C265.034 109.11 260.391 97.1874 251.895 88.2449C243.399 79.3023 231.73 74.0553 219.402 73.6343C218.854 73.6343 218.306 73.6069 217.758 73.6069H217.764Z" fill="#3F3D56"/>
<path d="M223.852 62.7954L212.835 62.4126L212.432 74.0105L223.449 74.3933L223.852 62.7954Z" fill="#3F3D56"/>
<path d="M252.583 74.1769L243.336 68.1743L237.017 77.9081L246.264 83.9106L252.583 74.1769Z" fill="#3F3D56"/>
<path d="M271.156 97.8026L266.149 87.981L255.81 93.2513L260.816 103.073L271.156 97.8026Z" fill="#3F3D56"/>
<path d="M263.639 156.242L269.802 147.101L260.18 140.613L254.017 149.754L263.639 156.242Z" fill="#3F3D56"/>
<path d="M176.066 100.12L181.742 90.6699L171.794 84.6947L166.118 94.1452L176.066 100.12Z" fill="#3F3D56"/>
<path d="M178.848 148.086L173.336 138.495L163.24 144.297L168.752 153.888L178.848 148.086Z" fill="#3F3D56"/>
<path d="M191.918 82.0079L201.559 76.6616L195.931 66.5128L186.29 71.859L191.918 82.0079Z" fill="#3F3D56"/>
<path d="M220.23 167.176L209.212 166.793L208.809 178.391L219.827 178.774L220.23 167.176Z" fill="#3F3D56"/>
<path d="M243.661 159.269L234.02 164.615L239.648 174.764L249.289 169.418L243.661 159.269Z" fill="#3F3D56"/>
<path d="M182.988 167.102L192.235 173.105L198.554 163.371L189.307 157.369L182.988 167.102Z" fill="#3F3D56"/>
<path d="M172.133 114.413L158.794 113.95L158.452 123.806L171.791 124.27L172.133 114.413Z" fill="#3F3D56"/>
<path d="M263.425 127.438L276.765 127.901L277.107 118.045L263.768 117.581L263.425 127.438Z" fill="#3F3D56"/>
<path d="M96.3072 361.137C94.9498 361.303 93.6336 361.713 92.4225 362.348C90.7788 363.351 89.7651 365.121 89.0418 366.907C87.2282 371.389 86.8502 376.309 86.7735 381.153C86.7077 385.054 86.8392 389.048 88.2364 392.686C88.6196 393.838 89.2845 394.876 90.1706 395.705C90.95 396.318 91.8528 396.756 92.817 396.987C94.8991 397.535 97.3154 397.535 99.0194 396.22C100.915 394.736 101.392 392.122 101.792 389.749C102.34 386.55 103.101 383.174 105.479 380.944C107.244 379.301 109.77 378.479 111.052 376.441C112.58 374.019 111.775 370.857 110.8 368.162C109.95 365.827 108.707 361.088 106.263 359.894C103.819 358.699 98.8495 360.677 96.3072 361.137Z" fill="#FBBEBE"/>
<path d="M186.423 372.616C185.684 375.229 184.374 377.645 182.588 379.689C181.492 380.939 180.149 382.456 180.725 384.007C180.959 384.532 181.307 384.998 181.744 385.371C189.776 393.234 201.014 397.058 212.164 398.45C212.343 398.499 212.533 398.499 212.712 398.45C213.041 398.302 213.117 397.902 213.161 397.535C213.339 396.373 213.339 395.19 213.161 394.028C212.613 391.289 210.23 389.388 207.896 387.886C205.562 386.385 203.008 384.927 201.704 382.478C200.061 379.432 200.767 375.465 198.833 372.616C197.266 370.298 194.357 369.328 191.595 368.874C190.636 368.726 188.598 367.674 187.76 368.161C186.905 368.654 186.713 371.662 186.423 372.616Z" fill="#FBBEBE"/>
<path d="M95.2114 360.852C95.2132 360.582 95.1152 360.321 94.9362 360.118C94.7572 359.916 94.5099 359.787 94.2416 359.756C93.7052 359.701 93.1633 359.77 92.6581 359.959C91.4016 360.3 90.1186 360.535 88.8227 360.66C87.283 360.808 85.7105 360.803 84.2147 361.208C82.7189 361.614 81.256 362.507 80.6478 363.948C80.352 364.771 80.218 365.643 80.2533 366.517C80.2223 369.881 80.6238 373.234 81.4477 376.495C81.4622 376.626 81.5063 376.751 81.5765 376.862C81.6468 376.973 81.7414 377.067 81.8532 377.136C82.045 377.213 82.2751 377.136 82.4669 377.224C82.6353 377.324 82.7618 377.481 82.823 377.668C83.749 379.75 83.9627 382.051 84.2092 384.33C84.5745 387.687 85.0366 391.033 85.5955 394.368C85.9242 396.313 86.3297 398.357 87.6118 399.847C89.0145 401.491 91.239 402.198 93.3814 402.488C97.9071 403.091 102.477 402.181 106.948 401.25C107.8 401.165 108.602 400.805 109.233 400.225C109.641 399.713 109.837 399.064 109.78 398.412C109.676 396.176 107.622 394.576 105.759 393.349L103.195 391.623C103.016 391.524 102.862 391.385 102.745 391.217C102.624 390.962 102.58 390.676 102.619 390.396L102.784 387.108C101.08 387.135 99.4163 387.624 97.9689 388.522C96.5215 389.421 95.345 390.695 94.5649 392.209C94.2087 392.916 93.8745 393.743 93.1348 394.017C92.2198 394.362 91.2006 393.59 90.8938 392.664C90.6804 391.708 90.7087 390.713 90.976 389.771C92.4773 381.728 92.1266 373.459 93.0416 365.328C93.0982 364.416 93.3786 363.532 93.858 362.753C94.3019 362.14 95.1292 361.603 95.2114 360.852Z" fill="#3F3D56"/>
<path d="M207.118 392.039C207.496 392.664 208.082 393.135 208.433 393.782C208.783 394.428 208.778 395.371 208.148 395.738C207.776 395.902 207.362 395.944 206.964 395.858C198.92 394.86 191.367 391.444 185.305 386.062C184.299 385.211 183.407 384.233 182.653 383.152C181.947 382.056 181.349 380.769 180.144 380.319C179.423 383.443 179.056 386.637 179.048 389.842C179.048 391.952 179.338 394.362 181.064 395.584C181.756 396.014 182.516 396.323 183.311 396.499L187.075 397.562C187.739 397.813 188.457 397.883 189.157 397.765C189.601 397.644 189.995 397.365 190.45 397.283C190.946 397.23 191.447 397.294 191.913 397.469L195.162 398.417C196.262 398.697 197.337 399.063 198.379 399.513C199.305 399.951 200.165 400.526 201.069 401.014C202.585 401.775 204.159 402.414 205.775 402.926L211.496 404.91C213.059 405.527 214.694 405.947 216.361 406.159C217.512 406.258 218.679 406.159 219.819 406.356C220.684 406.504 221.523 406.817 222.399 406.904C223.844 406.944 225.263 406.524 226.454 405.704C226.918 405.445 227.32 405.088 227.632 404.658C228.454 403.381 227.747 401.699 226.941 400.411C225.457 398.033 223.599 395.803 221.144 394.445C220.147 393.897 219.073 393.491 218.049 392.993C215.134 391.579 212.926 389.218 210.17 387.601C207.567 386.089 205.89 390.028 207.118 392.039Z" fill="#3F3D56"/>
<path d="M126.777 161.745C123.755 163.821 120.293 165.168 116.662 165.679C114.763 165.915 112.85 166.018 110.937 165.986C102.958 165.976 94.9938 165.311 87.1242 163.997C90.2582 160.545 93.4252 156.874 94.6087 152.348C95.1951 149.961 95.3161 147.483 94.9648 145.05C94.4902 141.928 93.7459 138.854 92.7403 135.861C96.0969 136.041 99.4625 135.955 102.806 135.604C104.712 135.412 109.381 133.675 111.024 134.99C112.564 136.212 111.402 140.535 111.375 142.529C111.375 142.601 111.375 142.672 111.375 142.743C111.461 145.771 112.113 148.755 113.298 151.543C115.709 156.934 120.865 161.361 126.777 161.745Z" fill="#FBBEBE"/>
<path opacity="0.1" d="M111.397 142.502C108.996 144.071 106.286 145.107 103.451 145.542C100.616 145.977 97.7204 145.8 94.9594 145.023C94.4848 141.901 93.7405 138.827 92.7348 135.834C96.0914 136.014 99.457 135.928 102.8 135.576C104.707 135.385 109.375 133.648 111.019 134.963C112.586 136.185 111.424 140.508 111.397 142.502Z" fill="black"/>
<path d="M100.417 144.836C111.492 144.836 120.47 135.858 120.47 124.782C120.47 113.707 111.492 104.729 100.417 104.729C89.3412 104.729 80.3629 113.707 80.3629 124.782C80.3629 135.858 89.3412 144.836 100.417 144.836Z" fill="#FBBEBE"/>
<path d="M185.503 226.257C185.513 227.875 185.102 229.469 184.31 230.881C183.517 232.292 182.37 233.472 180.982 234.306C179.432 235.119 177.77 235.701 176.051 236.032C166.879 238.223 157.482 240.026 148.063 239.489C146.025 239.374 143.954 239.133 142.124 238.24C140.294 237.347 138.732 235.675 138.458 233.659C138.446 233.16 138.348 232.667 138.168 232.202C137.805 231.688 137.329 231.264 136.776 230.963C135.929 230.313 135.282 229.437 134.908 228.436C134.534 227.436 134.449 226.35 134.661 225.303C133.516 225.813 132.322 224.662 131.785 223.528C131.248 222.394 130.826 221.024 129.675 220.547C128.892 220.213 127.988 220.41 127.16 220.197C125.84 219.857 125.035 218.553 124.103 217.578C122.202 215.545 119.506 214.493 117.018 213.244C109.638 209.523 103.622 203.628 97.7318 197.831C94.7676 194.91 91.7815 191.968 89.4309 188.516C88.7679 187.546 88.1707 186.549 87.6063 185.525C85.8243 182.108 84.2792 178.573 82.9819 174.944C82.2368 173.005 81.4806 170.955 81.7875 168.917C81.8149 168.731 81.8532 168.545 81.897 168.369C82.2789 167.045 82.895 165.8 83.7161 164.693C85.7544 161.696 88.4282 158.858 91.9349 157.937C95.4415 157.017 98.9427 158.129 102.504 158.885C103.687 159.148 104.886 159.331 106.093 159.433C109.868 159.701 113.605 158.688 117.254 157.679L121.232 156.584C123.226 156.036 124.224 153.625 126.24 153.203C127.141 153.073 128.058 153.12 128.941 153.34C133.034 154.118 137.16 155.121 140.76 157.203C141.561 157.668 142.328 158.19 143.055 158.764C145.62 160.792 147.647 163.493 148.392 166.649C149.214 170.117 148.441 173.821 149.274 177.289C149.954 180.155 151.674 182.654 153.362 185.07L163.153 199.053C165.338 202.343 167.746 205.481 170.358 208.444C175.607 214.159 185.371 218.482 185.503 226.257Z" fill="#4D8AF0"/>
<path d="M159.356 92.22C159.761 90.3077 160.063 88.3024 161.12 86.6531C161.843 85.6162 162.717 84.6929 163.712 83.9136C165.394 82.4945 167.18 81.1301 169.268 80.4398C171.355 79.7494 173.81 79.8425 175.563 81.1685C177.317 82.4945 178.056 84.7793 178.33 86.96C178.703 89.9571 178.33 93.1131 176.845 95.7266C175.147 98.6909 172.199 100.658 169.723 103.036C167.93 104.754 166.37 106.699 165.082 108.822C164.496 109.929 163.787 110.966 162.967 111.912C162.551 112.383 162.03 112.75 161.447 112.983C160.864 113.216 160.234 113.309 159.608 113.254C158.556 113.085 157.69 112.35 156.868 111.649C155.855 110.761 153.121 109.178 153.033 107.77C152.967 106.63 155.099 104.044 155.619 102.976C157.238 99.5311 158.49 95.9261 159.356 92.22Z" fill="#FBBEBE"/>
<path d="M229.834 324.514C227.314 329.166 224.552 333.697 222.306 338.486C220.997 341.286 219.862 344.168 218.405 346.891C216.816 349.861 214.86 352.622 213.2 355.559C209.019 362.962 206.69 371.312 204.537 379.536C198.514 378.634 192.719 376.588 187.464 373.509C187.108 373.301 186.768 373.082 186.439 372.846C185.034 371.839 183.86 370.545 182.993 369.049C184.982 361.526 187.026 353.877 191.075 347.231C192.395 345.039 193.908 343.039 195.266 340.902C199.206 334.711 200.017 326.898 204.515 321.101C204.945 320.516 205.177 319.81 205.177 319.084C205.177 318.359 204.945 317.652 204.515 317.068C203.995 316.394 203.167 315.753 203.321 314.92C203.436 314.312 204.071 313.764 203.825 313.194C203.71 312.92 203.43 312.772 203.211 312.575C202.444 311.868 202.543 310.663 202.477 309.627C202.307 307.003 200.735 304.696 199.189 302.554C198.881 302.046 198.473 301.606 197.99 301.261C197.584 301.014 197.102 300.905 196.696 300.653C195.261 299.754 195.365 297.661 194.675 296.11C193.776 294.067 191.513 293.026 190.028 291.365C188.138 289.256 187.656 286.314 185.645 284.467C185.442 284.268 185.224 284.085 184.993 283.919C185.99 287.015 186.089 290.319 186.16 293.579C186.352 304.751 183.557 316.317 184.867 327.418C185.897 336.223 180.484 345.012 172.785 349.412C169.827 351.099 166.594 352.228 163.383 353.373C158.567 355.077 153.767 356.836 149.044 358.808C145.706 360.189 142.418 361.678 139.182 363.274C135.181 365.216 131.287 367.37 127.517 369.728C122.881 372.676 118.246 375.673 114.953 380.073C111.769 379.985 108.855 378.073 106.838 375.607C104.822 373.142 103.551 370.128 102.395 367.191C101.37 364.644 100.362 362.014 100.285 359.269C100.299 358.974 100.396 358.689 100.564 358.446C100.733 358.204 100.967 358.014 101.238 357.899L123.248 346.234L127.363 344.042C136.376 339.259 145.713 334.837 154.726 330.059C155.334 330.24 155.822 329.55 156.003 328.963C156.184 328.377 156.31 327.621 156.879 327.358C157.164 327.221 157.537 327.226 157.751 326.985C157.89 326.77 157.944 326.51 157.904 326.257C157.614 321.873 154.469 317.89 155.099 313.567C155.367 311.726 156.315 309.912 155.904 308.088C155.614 306.833 154.715 305.819 154.227 304.63C153.132 301.973 154.227 298.773 153.044 296.171C152.257 294.459 151.722 292.643 151.455 290.779C150.888 287.066 149.754 283.463 148.091 280.095C147.291 278.392 146.248 276.814 144.995 275.41C144.332 274.698 143.587 274.062 142.957 273.322C141.045 271.054 140.338 268.03 139.795 265.104C138.809 259.805 138.152 254.31 139.357 249.061C139.773 247.269 140.409 245.494 140.382 243.658C140.354 241.231 139.286 238.398 140.973 236.645C141.672 236.017 142.522 235.581 143.439 235.379C147.318 234.223 151.356 233.697 155.373 233.188L173.755 230.782C175.859 230.503 178.012 230.234 179.87 229.188C182.363 227.813 184.018 225.265 185.031 222.613C188.259 224.969 189.464 229.358 192.039 232.399C193.294 233.883 194.844 235.083 196.22 236.448C197.901 238.219 199.442 240.119 200.828 242.13C204.663 247.395 208.499 252.699 211.238 258.605C212.668 261.674 213.775 264.874 214.915 268.057C219.402 280.588 226.717 292.483 229.752 305.436C230.497 308.603 232.432 311.463 232.733 314.701C233.073 318.136 231.484 321.457 229.834 324.514Z" fill="#3F3D56"/>
<path opacity="0.1" d="M133.566 220.443C133.115 221.276 132.882 222.208 132.886 223.155C133.297 221.128 136.086 220.005 136.267 217.999C136.349 217.073 136.179 217.117 135.609 217.605C134.744 218.355 134.365 219.649 133.566 220.443Z" fill="black"/>
<path opacity="0.1" d="M142.064 226.602C141.475 227.099 141.035 227.75 140.793 228.481C140.318 229.511 140.227 230.677 140.535 231.769C140.946 231.577 141.083 231.073 141.209 230.635C141.411 229.952 141.704 229.299 142.08 228.695C142.409 228.147 143.927 226.925 143.921 226.35C143.905 225.468 142.469 226.29 142.064 226.602Z" fill="black"/>
<path opacity="0.1" d="M143.044 158.726C141.756 159.835 140.335 160.781 138.815 161.542C134.842 163.553 130.442 164.616 126.443 166.567C124.469 167.578 122.553 168.695 120.7 169.914L108.811 177.448C107.855 177.995 106.975 178.664 106.192 179.437C104.762 180.96 104.767 183.64 103.452 185.273C102.137 186.905 99.8687 187.826 97.6825 187.935C95.4926 187.948 93.3173 187.578 91.2555 186.84C90.0067 186.466 88.7809 186.02 87.5844 185.503C86.3331 184.972 85.1487 184.295 84.0558 183.486C81.9354 181.886 80.2204 179.558 79.9026 176.911C79.7598 175.095 80.0006 173.27 80.6095 171.553C80.9386 170.436 81.362 169.349 81.8751 168.304C82.1674 167.709 82.5044 167.138 82.8833 166.594C85.6229 162.726 90.4281 160.912 95.0799 160.019C97.5236 159.542 100.011 159.252 102.482 158.836C103.665 159.099 104.864 159.282 106.071 159.384C109.846 159.652 113.583 158.638 117.232 157.63L121.21 156.534C123.204 155.986 124.202 153.576 126.218 153.154C127.119 153.024 128.036 153.071 128.919 153.291C133.012 154.069 137.138 155.071 140.738 157.153C141.543 157.622 142.314 158.147 143.044 158.726Z" fill="black"/>
<path d="M152.743 105.501C152.233 110.351 148.14 113.912 145.62 118.104C144.409 120.136 143.56 122.366 142.469 124.47C141.22 126.764 139.829 128.978 138.305 131.1L133.85 137.566C131.231 141.368 128.585 145.203 125.237 148.387C119.402 149.379 114.509 153.713 108.975 155.817C104.548 157.499 99.7207 157.729 95.0744 158.633C90.4281 159.537 85.6119 161.372 82.8833 165.208C81.8672 166.721 81.0979 168.385 80.6039 170.139C79.9915 171.853 79.7524 173.678 79.9026 175.492C80.2368 178.133 81.9299 180.456 84.0503 182.067C86.1708 183.678 88.7076 184.632 91.2499 185.421C93.3125 186.156 95.4873 186.527 97.677 186.516C99.8687 186.407 102.093 185.563 103.452 183.853C104.811 182.144 104.745 179.541 106.192 178.018C106.977 177.245 107.859 176.576 108.816 176.029L120.706 168.495C122.557 167.284 124.472 166.174 126.443 165.17C130.442 163.213 134.842 162.156 138.815 160.145C142.787 158.134 146.485 154.814 147.28 150.431C149.702 136.963 159.022 125.61 167.005 114.487C166.742 114.432 166.824 113.835 166.725 113.583C165.706 110.942 163.438 108.953 160.885 107.699C158.331 106.444 155.482 106.093 152.743 105.501Z" fill="#4D8AF0"/>
<path d="M110.706 105.6C110.855 104.139 110.567 102.667 109.879 101.37C108.559 99.1784 105.792 98.4058 103.304 97.8908C100.897 97.3976 98.4788 96.9739 96.0497 96.6196C94.0553 96.3292 92.0116 96.0717 90.05 96.521C87.3104 97.1182 85.0804 98.9318 82.5436 100.061C79.5465 101.397 76.2261 101.748 73.0263 102.488C69.8265 103.227 66.5499 104.482 64.5445 107.079C63.0213 109.052 62.4131 111.572 61.9584 114.027C58.1613 134.513 62.2488 155.526 63.0268 176.347C63.3282 184.451 62.9611 193.113 58.3312 199.77L71.8154 199.414C75.2673 199.326 78.9767 199.146 81.6779 197.014C84.0668 195.14 85.1955 192.121 86.2201 189.261C87.0255 187.009 87.8365 184.714 87.9406 182.325C88.1542 177.432 85.3763 172.627 86.2968 167.81C86.9707 164.216 89.5843 161.312 92.3842 158.951C95.184 156.589 98.2962 154.567 100.559 151.674C104.603 146.562 105.375 139.576 104.871 133.083C104.57 129.221 103.879 125.358 104.214 121.495C104.466 118.607 105.381 115.627 107.271 113.375C109.397 110.822 110.52 109.222 110.706 105.6Z" fill="#3F3D56"/>
<path opacity="0.1" d="M109.879 101.37C108.581 99.2111 105.885 98.433 103.414 97.918C104.727 98.3854 105.851 99.2708 106.614 100.438C107.304 101.735 107.592 103.207 107.441 104.668C107.255 108.285 106.131 109.884 103.984 112.443C102.093 114.695 101.178 117.67 100.926 120.563C100.592 124.426 101.282 128.289 101.584 132.152C102.088 138.645 101.315 145.631 97.277 150.743C95.0086 153.614 91.8965 155.674 89.1021 158.019C86.3077 160.364 83.6832 163.284 83.0093 166.879C82.1052 171.695 84.8832 176.5 84.653 181.393C84.5489 183.782 83.7325 186.078 82.9271 188.33C81.908 191.19 80.7738 194.203 78.3849 196.077C75.6453 198.209 71.9578 198.395 68.5224 198.482L58.9722 198.735C58.7585 199.085 58.5393 199.436 58.3037 199.77L71.788 199.414C75.2398 199.326 78.9492 199.145 81.6505 197.014C84.0394 195.14 85.1681 192.121 86.1927 189.261C86.9981 187.009 87.809 184.713 87.9131 182.324C88.1268 177.432 85.3489 172.626 86.2694 167.81C86.9433 164.216 89.5569 161.312 92.3567 158.95C95.1566 156.589 98.2688 154.567 100.532 151.674C104.575 146.562 105.348 139.576 104.844 133.083C104.542 129.22 103.852 125.358 104.186 121.495C104.438 118.607 105.353 115.627 107.244 113.375C109.391 110.821 110.531 109.221 110.701 105.6C110.851 104.14 110.565 102.668 109.879 101.37Z" fill="black"/>
<path opacity="0.1" d="M211.189 312.52L186.439 372.873C185.034 371.866 183.86 370.572 182.993 369.076C184.982 361.553 187.026 353.904 191.075 347.258C192.395 345.067 193.908 343.067 195.266 340.93C199.206 334.738 200.017 326.925 204.515 321.128C204.945 320.544 205.177 319.837 205.177 319.112C205.177 318.386 204.945 317.68 204.515 317.095C203.995 316.422 203.167 315.78 203.321 314.948C203.436 314.339 204.071 313.792 203.825 313.222C203.71 312.948 203.43 312.8 203.211 312.603C202.444 311.896 202.543 310.69 202.477 309.655C202.307 307.03 200.735 304.723 199.189 302.581C198.881 302.073 198.473 301.633 197.99 301.288C197.584 301.041 197.102 300.932 196.696 300.68C195.261 299.781 195.365 297.688 194.675 296.138C193.776 294.094 191.513 293.053 190.028 291.393C188.138 289.283 187.656 286.341 185.645 284.494L185.475 284.067L187.404 272.424L211.189 312.52Z" fill="black"/>
</g>
<defs>
<linearGradient id="paint0_linear" x1="145.674" y1="408.143" x2="145.674" y2="79.0095" gradientUnits="userSpaceOnUse">
<stop stop-color="#808080" stop-opacity="0.25"/>
<stop offset="0.54" stop-color="#808080" stop-opacity="0.12"/>
<stop offset="1" stop-color="#808080" stop-opacity="0.1"/>
</linearGradient>
<clipPath id="clip0">
<rect width="553.143" height="411.151" fill="white"/>
</clipPath>
</defs>
</svg>
