<svg width="508" height="374" viewBox="0 0 508 374" fill="none" xmlns="http://www.w3.org/2000/svg">
<g clip-path="url(#clip0)">
<path opacity="0.1" d="M497.461 33.6614H445.983C443.541 33.6614 441.536 31.8546 441.536 29.6467C441.536 27.4389 443.541 25.6275 445.983 25.6275H454.887C452.44 25.6275 450.44 23.8206 450.44 21.6082C450.44 19.3957 452.44 17.5935 454.887 17.5935H448.533C446.085 17.5935 444.081 15.7867 444.081 13.5742C444.081 11.3618 446.085 9.55958 448.533 9.55958H475.401C469.439 7.05675 462.47 5.27758 454.439 4.3419C381.173 -4.15297 355.016 1.46572 345.789 7.24112C334.288 14.5295 321.513 19.5867 308.133 22.1475C262.931 30.5686 178.397 40.6997 101.778 18.921C63.6974 8.0754 35.3931 26.3788 18.4308 56.9751H506.402C505.765 48.0838 503.857 39.8701 500.357 32.6842C499.528 33.3231 498.509 33.667 497.461 33.6614Z" fill="#4D8AF0"/>
<path opacity="0.1" d="M1.10373 114.725C-0.873533 132.72 -0.201404 150.907 3.09874 168.708L455.063 183.638C467.504 170.759 478.075 156.202 486.466 140.394L1.10373 114.725ZM179.861 153.235H170.962C173.41 153.235 175.414 155.046 175.414 157.254C175.414 159.462 173.41 161.269 170.962 161.269H119.484C117.041 161.269 115.037 159.462 115.037 157.254C115.037 155.046 117.041 153.235 119.484 153.235H128.388C125.94 153.235 123.94 151.428 123.94 149.22C123.94 147.012 125.94 145.201 128.388 145.201H122.029C119.581 145.201 117.577 143.394 117.577 141.186C117.577 138.979 119.581 137.167 122.029 137.167H173.507C175.954 137.167 177.954 138.974 177.954 141.186C177.954 143.399 175.954 145.201 173.507 145.201H179.861C182.309 145.201 184.308 147.008 184.308 149.22C184.308 151.433 182.309 153.235 179.861 153.235Z" fill="#4D8AF0"/>
<path opacity="0.1" d="M506.421 57.2517L12.9861 68.0835C6.98255 82.0173 3.00175 97.7717 1.16837 114.098H497.776C501.007 104.546 503.405 94.7332 504.943 84.769C506.425 75.1771 507.016 65.8987 506.421 57.2517ZM101.353 92.7661H92.4543C94.9019 92.7661 96.9061 94.5775 96.9061 96.7853C96.9061 98.9932 94.9019 100.805 92.4543 100.805H40.9764C38.5334 100.805 36.5291 98.9932 36.5291 96.7853C36.5291 94.5775 38.5334 92.7661 40.9764 92.7661H49.8801C47.4325 92.7661 45.4328 90.9592 45.4328 88.7514C45.4328 86.5436 47.4325 84.7321 49.8801 84.7321H43.5209C41.0733 84.7321 39.0691 82.9253 39.0691 80.7174C39.0691 78.5096 41.0733 76.6982 43.5209 76.6982H94.9989C97.4465 76.6982 99.4461 78.505 99.4461 80.7174C99.4461 82.9299 97.4465 84.7321 94.9989 84.7321H101.353C103.801 84.7321 105.801 86.5436 105.801 88.7514C105.801 90.9592 103.801 92.7661 101.353 92.7661Z" fill="#4D8AF0"/>
<path opacity="0.1" d="M251.723 360.02C365.726 360.02 458.143 351.534 458.143 341.067C458.143 330.599 365.726 322.114 251.723 322.114C137.721 322.114 45.3035 330.599 45.3035 341.067C45.3035 351.534 137.721 360.02 251.723 360.02Z" fill="#4D8AF0"/>
<g opacity="0.1">
<path opacity="0.1" d="M390.105 130.977C390.2 130.796 390.283 130.61 390.354 130.419C390.876 128.972 390.645 127.382 390.65 125.842C390.649 125.329 390.697 124.816 390.793 124.312C390.366 125.223 390.159 126.22 390.188 127.225C390.183 128.465 390.331 129.765 390.105 130.977Z" fill="black"/>
<path opacity="0.1" d="M447.036 200.59C445.12 202.015 442.28 201.641 440.345 200.235C438.41 198.83 437.232 196.622 436.415 194.377C435.394 191.658 434.637 188.588 432.309 186.841C431.473 186.214 430.462 185.804 429.645 185.177C427.797 183.767 426.874 181.439 426.209 179.208C425.354 176.396 424.68 173.506 423.438 170.851C422.196 168.196 420.247 165.726 417.559 164.514C415.047 163.384 412.147 163.458 409.547 162.541C405.067 160.964 401.756 157.208 397.309 155.438C395.885 154.839 394.535 154.078 393.286 153.17C391.097 151.663 390.516 150.81 390.192 148.151C389.731 144.159 385.667 140.679 386.299 136.918C386.196 137.121 386.105 137.331 386.027 137.545C384.641 141.601 389.259 145.275 389.721 149.529C390.021 152.188 390.645 153.041 392.815 154.548C394.064 155.456 395.414 156.217 396.838 156.816C401.285 158.586 404.596 162.347 409.076 163.919C411.676 164.841 414.576 164.763 417.088 165.892C419.776 167.104 421.706 169.579 422.967 172.23C424.228 174.88 424.902 177.761 425.738 180.586C426.417 182.817 427.308 185.145 429.174 186.555C430.01 187.182 431.021 187.592 431.838 188.219C434.147 189.966 434.923 193.036 435.944 195.755C436.784 197.991 437.962 200.203 439.897 201.604C441.832 203.006 444.672 203.384 446.588 201.959C447.812 201.037 448.436 199.632 448.847 198.124C448.481 199.097 447.855 199.95 447.036 200.59Z" fill="black"/>
<path opacity="0.1" d="M456.527 186.767C456.35 187.098 456.273 187.473 456.305 187.846C457.349 186.818 459.704 187.422 460.526 186.099C460.717 185.772 460.792 185.39 460.738 185.016C459.667 186.03 457.312 185.426 456.527 186.767Z" fill="black"/>
<path opacity="0.1" d="M449.743 194.649C449.655 195.11 449.567 195.603 449.456 196.083C452.283 196.963 455.548 194.7 456.009 191.842C454.887 194.041 452.116 195.511 449.743 194.649Z" fill="black"/>
</g>
<path opacity="0.1" d="M394.709 349.359C393.365 349.41 385.727 349.359 385.727 349.359C385.615 349.242 385.51 349.119 385.413 348.99C387.366 348.327 391.587 347.331 394.709 349.359Z" fill="black"/>
<path opacity="0.1" d="M416.557 349.359C415.213 349.41 407.575 349.359 407.575 349.359C407.463 349.242 407.358 349.119 407.261 348.99C409.205 348.327 413.426 347.331 416.557 349.359Z" fill="black"/>
<path opacity="0.1" d="M388.571 207.85C388.539 208.011 387.98 210.464 387.131 214.248C387.463 211.017 387.925 208.698 388.571 207.85Z" fill="black"/>
<path d="M375.151 198.124C377.447 198.124 379.307 196.866 379.307 195.313C379.307 193.76 377.447 192.501 375.151 192.501C372.856 192.501 370.995 193.76 370.995 195.313C370.995 196.866 372.856 198.124 375.151 198.124Z" fill="#575A89"/>
<path d="M239.675 351.82C318.358 351.82 382.143 288.157 382.143 209.625C382.143 131.092 318.358 67.429 239.675 67.429C160.992 67.429 97.2064 131.092 97.2064 209.625C97.2064 288.157 160.992 351.82 239.675 351.82Z" fill="#4D8AF0"/>
<path d="M314.428 281.082C314.428 303.529 279.072 282.999 241.166 282.999C203.261 282.999 164.921 302.681 164.921 280.234C164.921 267.434 177.141 249.633 194.671 236.704C207.879 226.96 224.098 219.981 240.39 219.981C257.145 219.981 273.558 227.536 286.65 237.907C303.174 250.983 314.428 268.554 314.428 281.082Z" fill="#444053"/>
<path d="M286.645 237.898C266.497 234.87 230.055 231.178 194.671 236.695C207.879 226.951 224.098 219.972 240.39 219.972C257.14 219.972 273.553 227.527 286.645 237.898Z" fill="#F6F8FB"/>
<path opacity="0.05" d="M164.922 109.249C164.922 109.249 122.006 136.632 122.357 179.466C122.708 222.3 164.922 109.249 164.922 109.249Z" fill="black"/>
<path d="M382.088 31.9099C382.088 31.9099 343.203 29.573 347.789 56.7676C347.789 56.7676 346.865 61.5705 351.243 63.7553C351.243 63.7553 351.313 61.741 355.229 62.4232C356.624 62.6562 358.043 62.7243 359.454 62.626C361.362 62.4966 363.175 61.7488 364.617 60.4965C364.617 60.4965 375.548 55.9933 379.802 38.16C379.802 38.16 382.946 34.2698 382.822 33.2742L376.259 36.0674C376.259 36.0674 378.499 40.7919 376.721 44.719C376.721 44.719 376.509 36.2426 375.248 36.4223C374.994 36.4638 371.84 38.0586 371.84 38.0586C371.84 38.0586 375.696 46.2908 372.764 52.269C372.764 52.269 373.867 42.1286 370.612 38.6532L365.993 41.345C365.993 41.345 370.501 49.8445 367.444 56.7815C367.444 56.7815 368.229 46.1433 365.024 41.9996L360.835 45.2583C360.835 45.2583 365.07 53.6379 362.488 59.3903C362.488 59.3903 362.151 47.0052 359.93 46.0695C359.93 46.0695 356.268 49.296 355.709 50.6189C355.709 50.6189 358.609 56.6985 356.813 59.9065C356.813 59.9065 355.709 51.656 354.804 51.6099C354.804 51.6099 351.155 57.0764 350.772 60.8284C350.772 60.8284 350.934 55.2512 353.917 51.089C353.917 51.089 350.389 51.6928 348.334 53.979C348.334 53.979 348.902 50.1119 354.799 49.7754C354.799 49.7754 357.815 45.627 358.623 45.3781C358.623 45.3781 352.735 44.885 349.165 46.4659C349.165 46.4659 352.305 42.82 359.699 44.4747L363.855 41.11C363.855 41.11 356.106 40.0498 352.818 41.2206C352.818 41.2206 356.6 37.9941 364.968 40.3448L369.471 37.6576C369.471 37.6576 362.862 36.238 358.923 36.7358C358.923 36.7358 363.079 34.5003 370.787 36.9248L374.02 35.4821C374.02 35.4821 369.175 34.5326 367.758 34.3851C366.34 34.2376 366.266 33.8412 366.266 33.8412C369.342 33.3419 372.497 33.7074 375.377 34.8967C375.377 34.8967 382.203 32.3385 382.088 31.9099Z" fill="#4D8AF0"/>
<path d="M342.206 19.8198C342.206 19.8198 324.657 18.7597 326.707 31.048C326.707 31.048 326.296 33.219 328.268 34.2053C328.268 34.2053 328.296 33.2835 330.069 33.6061C330.699 33.7096 331.339 33.7406 331.977 33.6983C332.839 33.6369 333.659 33.299 334.313 32.735C334.313 32.735 339.25 30.6977 341.171 22.6407C341.171 22.6407 342.594 20.8846 342.557 20.4329L339.592 21.6958C339.592 21.6958 340.608 23.8299 339.809 25.6045C339.809 25.6045 339.712 21.7742 339.144 21.8663C339.028 21.8663 337.601 22.6038 337.601 22.6038C337.601 22.6038 339.347 26.3235 338.031 29.0245C338.031 29.0245 338.53 24.4429 337.061 22.8712L334.974 24.088C334.974 24.088 337.01 27.9321 335.63 31.0664C335.63 31.0664 335.98 26.259 334.535 24.3876L332.642 25.858C332.642 25.858 334.553 29.6422 333.39 32.2418C333.39 32.2418 333.237 26.6461 332.231 26.2221C332.231 26.2221 330.577 27.6786 330.323 28.2778C330.323 28.2778 331.635 31.0434 330.822 32.4769C330.822 32.4769 330.323 28.748 329.898 28.7341C329.898 28.7341 328.25 31.2001 328.079 32.8825C328.158 31.3168 328.647 29.7992 329.497 28.4806C328.546 28.6601 327.67 29.1136 326.975 29.7851C326.975 29.7851 327.229 28.0381 329.903 27.886C329.903 27.886 331.265 26.0147 331.63 25.8994C331.63 25.8994 328.97 25.6782 327.358 26.3926C327.358 26.3926 328.776 24.7425 332.12 25.4708L333.967 23.9543C333.967 23.9543 330.466 23.4934 328.979 24.0004C328.979 24.0004 330.688 22.5439 334.47 23.6086L336.502 22.3918C336.502 22.3918 333.519 21.7511 331.736 21.9816C331.736 21.9816 333.616 20.9721 337.098 22.0691L338.553 21.4146C338.553 21.4146 336.364 20.986 335.726 20.9214C335.089 20.8569 335.048 20.6772 335.048 20.6772C336.434 20.447 337.857 20.6066 339.158 21.1381C339.158 21.1381 342.256 20.0134 342.206 19.8198Z" fill="#4D8AF0"/>
<path opacity="0.1" d="M495.563 336.481C502.432 336.481 508 335.542 508 334.383C508 333.225 502.432 332.286 495.563 332.286C488.695 332.286 483.127 333.225 483.127 334.383C483.127 335.542 488.695 336.481 495.563 336.481Z" fill="#4D8AF0"/>
<path opacity="0.1" d="M21.5989 371.368C28.4674 371.368 34.0354 370.429 34.0354 369.271C34.0354 368.113 28.4674 367.174 21.5989 367.174C14.7304 367.174 9.16232 368.113 9.16232 369.271C9.16232 370.429 14.7304 371.368 21.5989 371.368Z" fill="#4D8AF0"/>
<path opacity="0.1" d="M93.7936 374C100.662 374 106.23 373.061 106.23 371.903C106.23 370.745 100.662 369.806 93.7936 369.806C86.925 369.806 81.357 370.745 81.357 371.903C81.357 373.061 86.925 374 93.7936 374Z" fill="#4D8AF0"/>
<path d="M468.344 359.992C478.6 359.992 486.914 358.589 486.914 356.858C486.914 355.127 478.6 353.724 468.344 353.724C458.089 353.724 449.775 355.127 449.775 356.858C449.775 358.589 458.089 359.992 468.344 359.992Z" fill="#4D8AF0"/>
<path d="M476.02 351.737C476.867 351.047 477.485 350.116 477.793 349.069C478.019 348.013 477.567 346.741 476.555 346.354C475.419 345.92 474.205 346.709 473.286 347.501C472.367 348.294 471.309 349.198 470.104 349.032C470.724 348.471 471.187 347.76 471.45 346.968C471.712 346.175 471.764 345.328 471.6 344.51C471.548 344.171 471.404 343.852 471.184 343.588C470.552 342.915 469.411 343.201 468.654 343.731C466.252 345.418 465.583 348.672 465.569 351.604C465.329 350.548 465.532 349.446 465.527 348.377C465.523 347.308 465.223 346.073 464.308 345.506C463.741 345.203 463.104 345.054 462.461 345.072C461.38 345.031 460.18 345.137 459.441 345.925C458.517 346.907 458.762 348.548 459.561 349.612C460.36 350.677 461.57 351.369 462.683 352.111C463.578 352.642 464.342 353.368 464.918 354.236C464.985 354.358 465.041 354.486 465.084 354.618H471.849C473.363 353.85 474.766 352.881 476.02 351.737Z" fill="#4D8AF0"/>
<path d="M27.4038 313.089C27.4038 313.089 29.9391 316.398 26.2308 321.385C22.5224 326.373 19.4653 330.604 20.6891 333.72C20.6891 333.72 26.2816 324.437 30.8489 324.303C35.4162 324.169 32.4098 318.67 27.4038 313.089Z" fill="#4D8AF0"/>
<path opacity="0.1" d="M27.4038 313.089C27.6239 313.408 27.798 313.758 27.921 314.126C32.3636 319.334 34.7281 324.197 30.461 324.317C26.4802 324.432 21.6866 331.53 20.5644 333.323C20.6036 333.462 20.6498 333.599 20.7029 333.734C20.7029 333.734 26.2954 324.45 30.8627 324.317C35.43 324.183 32.4098 318.67 27.4038 313.089Z" fill="black"/>
<path d="M32.1189 317.306C32.1189 318.472 31.9849 319.417 31.8233 319.417C31.6617 319.417 31.5324 318.495 31.5324 317.306C31.5324 316.117 31.694 316.689 31.8603 316.689C32.0265 316.689 32.1189 316.14 32.1189 317.306Z" fill="#FFD037"/>
<path d="M33.7167 318.698C32.6915 319.256 31.8002 319.592 31.7217 319.449C31.6432 319.306 32.4144 318.744 33.4396 318.186C34.4649 317.629 34.0585 318.034 34.137 318.186C34.2155 318.338 34.7604 318.14 33.7167 318.698Z" fill="#FFD037"/>
<path d="M14.0021 313.089C14.0021 313.089 11.4667 316.398 15.1704 321.385C18.8742 326.373 21.9359 330.604 20.7122 333.72C20.7122 333.72 15.115 324.437 10.5523 324.303C5.98966 324.169 8.99142 318.67 14.0021 313.089Z" fill="#4D8AF0"/>
<path opacity="0.1" d="M14.0021 313.089C13.7799 313.407 13.6056 313.757 13.4848 314.126C9.04223 319.334 6.67315 324.197 10.9449 324.317C14.9211 324.432 19.7193 331.53 20.8369 333.323C20.7992 333.462 20.7545 333.599 20.7029 333.734C20.7029 333.734 15.1058 324.45 10.5431 324.317C5.98043 324.183 8.99143 318.67 14.0021 313.089Z" fill="black"/>
<path d="M9.287 317.306C9.287 318.472 9.41631 319.417 9.57795 319.417C9.73958 319.417 9.86888 318.495 9.86888 317.306C9.86888 316.117 9.70725 316.689 9.54562 316.689C9.38399 316.689 9.287 316.14 9.287 317.306Z" fill="#FFD037"/>
<path d="M7.66605 318.698C8.69126 319.256 9.58718 319.592 9.66568 319.449C9.74419 319.306 8.97297 318.744 7.94775 318.186C6.92253 317.629 7.32431 318.034 7.25042 318.186C7.17653 318.338 6.64083 318.14 7.66605 318.698Z" fill="#FFD037"/>
<path d="M10.0952 333.3C10.0952 333.3 17.1886 333.084 19.3314 331.563C21.4742 330.042 30.2439 328.23 30.775 330.641C31.3061 333.051 41.4336 342.763 33.4258 342.828C25.418 342.892 14.8195 341.579 12.6859 340.283C10.5524 338.988 10.0952 333.3 10.0952 333.3Z" fill="#A8A8A8"/>
<path opacity="0.2" d="M33.5597 342.003C25.5519 342.067 14.9534 340.753 12.8198 339.458C11.1943 338.472 10.5477 334.927 10.3307 333.291H10.0952C10.0952 333.291 10.557 339.002 12.6767 340.297C14.7964 341.592 25.4088 342.906 33.4166 342.841C35.7256 342.841 36.5245 341.998 36.483 340.786C36.1597 341.528 35.2823 341.989 33.5597 342.003Z" fill="black"/>
<path d="M189.023 190.98C191.734 190.828 204.494 189.869 212.599 185.255C213.9 184.491 215.371 184.059 216.88 183.997C219.457 183.923 222.421 184.997 220.523 191.008C217.448 200.839 199.59 211.902 188.506 211.289C177.848 210.699 165.203 206.412 156.854 191.34C156.054 189.89 155.66 188.251 155.713 186.597C155.81 183.555 156.918 179.743 162.64 183.992C170.371 189.731 185.038 190.819 187.98 190.98C188.327 190.999 188.676 190.999 189.023 190.98Z" fill="#444053"/>
<path d="M291.545 190.98C294.256 190.828 307.016 189.869 315.121 185.255C316.422 184.491 317.893 184.059 319.401 183.997C321.978 183.923 324.943 184.997 323.045 191.008C319.97 200.839 302.111 211.902 291.028 211.289C280.369 210.699 267.725 206.412 259.375 191.34C258.575 189.89 258.181 188.251 258.235 186.597C258.332 183.555 259.44 179.743 265.162 183.992C272.893 189.731 287.56 190.819 290.501 190.98C290.849 190.999 291.197 190.999 291.545 190.98Z" fill="#444053"/>
</g>
<defs>
<clipPath id="clip0">
<rect width="508" height="374" fill="white"/>
</clipPath>
</defs>
</svg>
